<svg xmlns="http://www.w3.org/2000/svg" width="263" height="81" fill="none" viewBox="0 0 263 81"><path fill="#085C99" d="M262.991 47.236H97.338v.581H262.99zM97.319 42.392c2.15-.032 2.567-.384 3.466-2.877l5.808-15.856-.257-.8h3.594l6.258 16.656c.931 2.493 1.252 2.877 3.273 2.877v.863h-9.531v-.863c2.535 0 3.242-.256 3.242-1.183 0-.32-.129-.863-.45-1.694l-1.54-3.964h-7.349l-1.572 4.251c-.225.608-.321 1.023-.321 1.343 0 .927.642 1.343 3.209 1.247v.863h-7.83zm13.254-8.44-3.081-8.088-3.049 8.088zM123.722 27.048c0-2.334-.609-2.846-3.048-2.814v-.863c.931 0 3.69-.128 5.038-.192 1.733-.064 3.369-.064 4.589-.064 4.846 0 8.344.864 10.302 2.813 1.989 1.982 2.759 4.412 2.759 6.81 0 4.7-3.305 10.517-12.708 10.517h-9.98v-.863c2.728 0 3.048-.448 3.048-2.59zm3.562 13.01c0 2.014.289 2.302 2.375 2.302 3.851 0 5.841-.83 7.317-2.301 1.957-1.95 2.503-4.636 2.503-6.873 0-2.302-.513-4.891-2.471-6.842-1.605-1.598-3.626-2.333-7.381-2.333-.546 0-1.541 0-2.343.064zM145.1 43.255v-.863c2.599 0 3.241-.416 3.241-2.206V26.408c0-2.11-1.059-2.174-3.241-2.174v-.863h16.398l.289 4.795h-.866l-.161-.671c-.641-2.622-1.155-2.686-3.209-2.686h-5.648v7.449h4.974c1.862 0 2.215-.224 2.407-2.43h.867v6.426h-.867c-.225-2.27-.642-2.557-2.407-2.557h-4.974v5.818c0 1.982.257 2.302 1.893 2.302h3.563c3.241 0 3.883-.448 4.749-3.58h.867l-.482 5.018zM166.676 38.012h.963c.802 2.941 2.792 4.604 5.551 4.604 2.343 0 3.98-1.375 3.98-3.293 0-4.476-10.109-6.234-10.109-11.796 0-2.75 2.439-4.668 5.873-4.668 1.059 0 1.829.128 2.471.256s1.155.256 1.701.256c.417 0 .642-.096.899-.383h.802l.706 4.955h-.963c-.962-2.526-2.952-4.06-5.231-4.06-2.053 0-3.144 1.214-3.144 2.621 0 4.284 10.14 5.562 10.14 11.732 0 3.293-2.792 5.53-6.899 5.53-2.407 0-3.402-.575-4.301-.575-.384 0-.641.096-.866.352h-.77zM183.807 38.012h.962c.803 2.941 2.792 4.604 5.552 4.604 2.343 0 3.98-1.375 3.98-3.293 0-4.476-10.109-6.234-10.109-11.796 0-2.75 2.439-4.668 5.873-4.668 1.058 0 1.829.128 2.471.256.641.128 1.155.256 1.701.256.417 0 .642-.096.898-.383h.803l.706 4.955h-.963c-.963-2.526-2.952-4.06-5.231-4.06-2.054 0-3.145 1.214-3.145 2.621 0 4.284 10.141 5.562 10.141 11.732 0 3.293-2.792 5.53-6.9 5.53-2.407 0-3.402-.575-4.3-.575-.385 0-.642.096-.867.352h-.77zM199.789 23.371h8.953v.863c-2.15 0-2.759.48-2.759 2.75v12.435c0 2.398.449 3.037 2.759 2.973v.863h-8.953v-.863c2.535.064 2.631-.927 2.631-2.75v-13.01c0-1.726-.417-2.43-2.631-2.398zM209.889 23.371h9.114v.863c-2.375 0-2.824.512-2.824 2.75v8.599c0 4.252 2.855 6.202 6.867 6.202 3.562 0 6.9-1.535 6.9-6.266v-8.535c0-2.494-.482-2.75-3.081-2.75v-.863h7.766v.863c-2.439 0-2.92.512-2.92 2.75v8.887c0 5.019-3.883 7.896-9.724 7.896-6.097 0-9.371-2.91-9.371-8.12v-8.983c0-1.95-.513-2.43-2.727-2.43zM234.408 42.392c1.99 0 2.568-.352 2.76-3.133l.77-11.764c.193-2.845-.16-3.26-2.022-3.26v-.864h5.937l6.932 14.801 6.546-14.8h5.937v.862c-1.797 0-2.182.384-2.053 1.854l1.155 14.546c.128 1.63.738 1.758 2.631 1.758v.863h-9.114v-.863c2.632 0 3.081-.64 2.824-4.028l-.866-11.796h-.064l-7.413 16.687h-1.092l-7.541-16.272h-.064l-.77 11.828c-.225 3.42.513 3.42 2.631 3.58v.864h-7.124z"/><path fill="#EC9123" d="M99.789 55.344v2.135q.036.777.12.875.084.1.747.146l.1.005v.481H97.33v-.48l.1-.006q.531-.036.636-.18.105-.143.105-.84v-4.732q0-.699-.103-.839-.102-.14-.638-.182l-.1-.005v-.482h5.695v1.466h-.777l-.005-.095a6 6 0 0 1-.016-.347q0-.322-.135-.41-.135-.09-.622-.09h-1.681v3.119h1.093q.633 0 .726-.031.093-.03.093-.237l.011-.242.01-.098h.546v1.675h-.546l-.011-.093a4 4 0 0 1-.01-.207q0-.203-.139-.255-.14-.051-.68-.052zM117.934 59.176q-1.833 0-2.888-1.09-1.056-1.09-1.056-2.972c0-1.255.352-2.25 1.056-2.974q1.055-1.087 2.888-1.087c1.221 0 2.179.362 2.882 1.087q1.056 1.087 1.056 2.974c0 1.259-.352 2.246-1.056 2.972q-1.055 1.09-2.882 1.09m-.003-.524q1.122 0 1.68-.889t.558-2.667q0-1.762-.558-2.641t-1.68-.879c-.748 0-1.304.293-1.677.879q-.561.879-.561 2.64 0 1.779.561 2.668.56.89 1.677.89M132.344 51.24h3.3v.482l-.096.005q-.538.042-.642.182t-.103.839v3.351q0 1.39.396 1.97.396.583 1.34.583 1.006 0 1.464-.617.457-.616.457-1.977v-3.31q0-.699-.103-.839-.102-.14-.643-.182l-.095-.005v-.482h2.459v.482l-.097.005q-.54.042-.642.182t-.102.839v3.184q0 1.668-.706 2.453-.707.79-2.201.79-3.146 0-3.146-3.139V52.79q0-.72-.105-.873-.105-.15-.635-.183l-.1-.011zM156.567 59.112l-4.288-5.894v4.261q0 .698.105.841.104.144.641.18l.094.005v.481h-2.459v-.48l.1-.006q.53-.036.636-.18.105-.143.105-.84v-4.732q0-.699-.103-.839-.102-.14-.638-.182l-.1-.005v-.482h1.957l4.264 5.86v-4.352q0-.699-.102-.839t-.639-.182l-.1-.005v-.482h2.46v.482l-.096.005q-.534.042-.639.182-.106.14-.106.839v6.364zM169.361 58.988v-.481l.1-.006q.531-.036.636-.18.105-.142.105-.84v-4.732q0-.698-.103-.838-.102-.141-.638-.183l-.1-.005v-.481h3.651l.413-.006q1.82 0 2.8.967.976.966.975 2.758 0 1.839-.993 2.933-.993 1.095-2.663 1.094zm2.459-7.223v5.711q0 .639.195.803.194.165.947.165 1.27 0 1.904-.871.632-.87.632-2.613c0-1.161-.234-1.979-.703-2.465q-.703-.73-2.383-.73zM189.414 56.621l-.39.846q-.285.62-.285.844 0 .174.331.173.048.007.2.016l.1.006v.481h-2.087v-.481l.1-.006q.42-.025.528-.136t.47-.9l2.894-6.286h.568l2.906 6.29q.383.785.491.89t.549.142l.069.005v.482h-3.251v-.482l.1-.005q.662-.042.673-.205.01-.157-.3-.834l-.394-.84zm.24-.523h2.787l-1.406-2.997zM207.926 51.758h-1.261q-.49 0-.628.135-.14.135-.145.827l-.005.147h-.778v-1.633h7.251v1.633h-.778l-.005-.147q-.005-.693-.144-.827-.14-.135-.628-.135h-1.261v5.71q.036.78.12.88t.752.146l.094.005v.482h-3.551v-.482l.093-.005q.638-.04.756-.18.117-.137.117-.84zM226.27 58.981h-3.299V58.5l.1-.006q.53-.036.635-.18.105-.142.105-.84v-4.732q0-.698-.102-.838t-.638-.183l-.1-.005v-.482h3.299v.482l-.094.005q-.542.043-.644.183t-.103.838v4.732q0 .697.105.84t.641.18l.095.006zM240.934 59.176q-1.833 0-2.888-1.09-1.056-1.09-1.056-2.972c0-1.255.352-2.25 1.056-2.974q1.055-1.087 2.888-1.087c1.221 0 2.178.362 2.882 1.087q1.056 1.087 1.056 2.974c0 1.259-.352 2.246-1.056 2.972q-1.056 1.09-2.882 1.09m-.003-.524q1.121 0 1.68-.889.557-.889.558-2.667 0-1.762-.558-2.641-.559-.879-1.68-.879c-.748 0-1.304.293-1.677.879q-.562.879-.561 2.64 0 1.779.561 2.668.56.89 1.677.89M261.06 59.112l-4.289-5.894v4.261q0 .698.105.841t.641.18l.094.005v.481h-2.459v-.48l.1-.006q.531-.036.636-.18.105-.143.105-.84v-4.732q0-.699-.103-.839-.102-.14-.638-.182l-.1-.005v-.482h1.958l4.263 5.86v-4.352q0-.699-.102-.839t-.639-.182l-.099-.005v-.482h2.458v.482l-.095.005q-.534.042-.639.182-.106.14-.106.839v6.364z"/><path fill="url(#a)" d="M42.847 0h-4.423v80.96h4.423z"/><path fill="url(#b)" d="m32.255 80.151-4.273-1.139L49.017.81 53.29 1.95z"/><path fill="url(#c)" d="M59.046 4.324 18.394 74.43l3.83 2.203 40.65-70.105z"/><path fill="url(#d)" d="M67.801 10.296 10.344 67.553l3.128 3.114 57.457-57.256z"/><path fill="url(#e)" d="M74.722 18.33 4.34 58.816l2.212 3.816 70.382-40.484z"/><path fill="url(#f)" d="M79.314 27.872.813 48.834l1.145 4.256 78.5-20.963z"/><path fill="url(#g)" d="M.001 42.683 0 38.277h81.274v4.403z"/><path fill="url(#h)" d="M1.957 27.88.813 32.134 79.318 53.08l1.144-4.256z"/><path fill="url(#i)" d="m6.547 18.342-2.211 3.816L74.73 62.62l2.21-3.816z"/><path fill="url(#j)" d="m13.463 10.302-3.127 3.116 57.477 57.239 3.127-3.116z"/><path fill="url(#k)" d="m22.227 4.325-3.83 2.204L59.05 76.634l3.83-2.204z"/><path fill="url(#l)" d="M27.984 1.95 32.257.81 53.29 79.012l-4.271 1.14z"/><path fill="url(#m)" d="M58.307 40.51c0 9.8-7.976 17.746-17.814 17.746S22.678 50.31 22.678 40.51s7.975-17.744 17.815-17.744S58.307 30.71 58.307 40.51"/><path fill="url(#n)" d="M4.904 47.736.81 48.83l1.145 4.256 20.038-5.349z"/><path fill="url(#o)" d="M76.367 47.736H59.279l20.036 5.348 1.145-4.255z"/><path fill="url(#p)" d="M23.596 47.736 4.338 58.813l2.212 3.815 19.77-11.37q.079.104.162.207L10.337 67.547l3.128 3.115 16.158-16.096q.1.08.203.16l-11.423 19.71 3.83 2.204L33.67 56.906q.116.046.233.092l-5.922 22.015 4.273 1.139 5.93-22.049q.12.017.24.03v22.829h4.422V58.097q.117-.014.233-.029l5.94 22.084 4.272-1.139-5.95-22.118.205-.087L59.041 76.64l3.83-2.204L51.357 54.57q.082-.063.165-.13l16.285 16.223 3.128-3.115L54.63 51.304q.063-.08.126-.16l19.97 11.485 2.21-3.816-19.259-11.076H23.597"/><path fill="#085C99" d="M80.848 47.154H.528v.581h80.32z"/><defs><radialGradient id="a" cx="0" cy="0" r="1" gradientTransform="matrix(14.4142 0 0 28.793 40.47 40.383)" gradientUnits="userSpaceOnUse"><stop offset=".051" stop-color="#F3715C"/><stop offset=".322" stop-color="#F3745A"/><stop offset=".535" stop-color="#F47D55"/><stop offset=".727" stop-color="#F68E4C"/><stop offset=".907" stop-color="#F9A540"/><stop offset="1" stop-color="#FCB538"/></radialGradient><radialGradient id="b" cx="0" cy="0" r="1" gradientTransform="rotate(14.943 -132.18 176.12)scale(14.4119 28.8031)" gradientUnits="userSpaceOnUse"><stop offset=".051" stop-color="#F3715C"/><stop offset=".322" stop-color="#F3745A"/><stop offset=".535" stop-color="#F47D55"/><stop offset=".727" stop-color="#F68E4C"/><stop offset=".907" stop-color="#F9A540"/><stop offset="1" stop-color="#FCB538"/></radialGradient><radialGradient id="c" cx="0" cy="0" r="1" gradientTransform="rotate(29.901 -55.13 95.146)scale(14.4192 28.8583)" gradientUnits="userSpaceOnUse"><stop offset=".051" stop-color="#F3715C"/><stop offset=".322" stop-color="#F3745A"/><stop offset=".535" stop-color="#F47D55"/><stop offset=".727" stop-color="#F68E4C"/><stop offset=".907" stop-color="#F9A540"/><stop offset="1" stop-color="#FCB538"/></radialGradient><radialGradient id="d" cx="0" cy="0" r="1" gradientTransform="rotate(44.89 -28.664 70.071)scale(14.3982 28.8502)" gradientUnits="userSpaceOnUse"><stop offset=".051" stop-color="#F3715C"/><stop offset=".322" stop-color="#F3745A"/><stop offset=".535" stop-color="#F47D55"/><stop offset=".727" stop-color="#F68E4C"/><stop offset=".907" stop-color="#F9A540"/><stop offset="1" stop-color="#FCB538"/></radialGradient><radialGradient id="e" cx="0" cy="0" r="1" gradientTransform="rotate(59.909 -14.67 54.32)scale(14.3718 28.8744)" gradientUnits="userSpaceOnUse"><stop offset=".051" stop-color="#F3715C"/><stop offset=".322" stop-color="#F3745A"/><stop offset=".535" stop-color="#F47D55"/><stop offset=".727" stop-color="#F68E4C"/><stop offset=".907" stop-color="#F9A540"/><stop offset="1" stop-color="#FCB538"/></radialGradient><radialGradient id="f" cx="0" cy="0" r="1" gradientTransform="matrix(3.73043 13.87062 -27.90666 7.50535 40.837 40.395)" gradientUnits="userSpaceOnUse"><stop offset=".051" stop-color="#F3715C"/><stop offset=".322" stop-color="#F3745A"/><stop offset=".535" stop-color="#F47D55"/><stop offset=".727" stop-color="#F68E4C"/><stop offset=".907" stop-color="#F9A540"/><stop offset="1" stop-color="#FCB538"/></radialGradient><radialGradient id="g" cx="0" cy="0" r="1" gradientTransform="matrix(0 14.3593 -28.9049 0 40.735 40.312)" gradientUnits="userSpaceOnUse"><stop offset=".051" stop-color="#F3715C"/><stop offset=".322" stop-color="#F3745A"/><stop offset=".535" stop-color="#F47D55"/><stop offset=".727" stop-color="#F68E4C"/><stop offset=".907" stop-color="#F9A540"/><stop offset="1" stop-color="#FCB538"/></radialGradient><radialGradient id="h" cx="0" cy="0" r="1" gradientTransform="rotate(105.053 4.905 36.133)scale(14.3612 28.8938)" gradientUnits="userSpaceOnUse"><stop offset=".051" stop-color="#F3715C"/><stop offset=".322" stop-color="#F3745A"/><stop offset=".535" stop-color="#F47D55"/><stop offset=".727" stop-color="#F68E4C"/><stop offset=".907" stop-color="#F9A540"/><stop offset="1" stop-color="#FCB538"/></radialGradient><radialGradient id="i" cx="0" cy="0" r="1" gradientTransform="matrix(-7.21667 12.45292 -25.019 -14.49893 40.973 39.937)" gradientUnits="userSpaceOnUse"><stop offset=".051" stop-color="#F3715C"/><stop offset=".322" stop-color="#F3745A"/><stop offset=".535" stop-color="#F47D55"/><stop offset=".727" stop-color="#F68E4C"/><stop offset=".907" stop-color="#F9A540"/><stop offset="1" stop-color="#FCB538"/></radialGradient><radialGradient id="j" cx="0" cy="0" r="1" gradientTransform="rotate(135.11 11.772 28.821)scale(14.3969 28.8475)" gradientUnits="userSpaceOnUse"><stop offset=".051" stop-color="#F3715C"/><stop offset=".322" stop-color="#F3745A"/><stop offset=".535" stop-color="#F47D55"/><stop offset=".727" stop-color="#F68E4C"/><stop offset=".907" stop-color="#F9A540"/><stop offset="1" stop-color="#FCB538"/></radialGradient><radialGradient id="k" cx="0" cy="0" r="1" gradientTransform="matrix(-12.48497 7.17976 -14.36938 -24.9871 41.34 39.535)" gradientUnits="userSpaceOnUse"><stop offset=".051" stop-color="#F3715C"/><stop offset=".322" stop-color="#F3745A"/><stop offset=".535" stop-color="#F47D55"/><stop offset=".727" stop-color="#F68E4C"/><stop offset=".907" stop-color="#F9A540"/><stop offset="1" stop-color="#FCB538"/></radialGradient><radialGradient id="l" cx="0" cy="0" r="1" gradientTransform="rotate(165.057 17.695 23.006)scale(14.4101 28.7995)" gradientUnits="userSpaceOnUse"><stop offset=".051" stop-color="#F3715C"/><stop offset=".322" stop-color="#F3745A"/><stop offset=".535" stop-color="#F47D55"/><stop offset=".727" stop-color="#F68E4C"/><stop offset=".907" stop-color="#F9A540"/><stop offset="1" stop-color="#FCB538"/></radialGradient><radialGradient id="m" cx="0" cy="0" r="1" gradientTransform="matrix(17.808 0 0 17.7396 40.31 40.338)" gradientUnits="userSpaceOnUse"><stop stop-color="#ED174E"/><stop offset=".264" stop-color="#ED194D"/><stop offset=".42" stop-color="#EE214D"/><stop offset=".548" stop-color="#EF2F4D"/><stop offset=".66" stop-color="#F1444D"/><stop offset=".762" stop-color="#F45E4D"/><stop offset=".857" stop-color="#F77E4D"/><stop offset=".945" stop-color="#FBA34D"/><stop offset="1" stop-color="#FEBF4D"/></radialGradient><radialGradient id="n" cx="0" cy="0" r="1" gradientTransform="matrix(29.1734 0 0 29.0614 40.4 64.46)" gradientUnits="userSpaceOnUse"><stop stop-color="#88A9CE"/><stop offset=".342" stop-color="#5B8DBB"/><stop offset="1" stop-color="#085C99"/></radialGradient><radialGradient id="o" cx="0" cy="0" r="1" gradientTransform="matrix(29.1734 0 0 29.0614 40.4 64.46)" gradientUnits="userSpaceOnUse"><stop stop-color="#88A9CE"/><stop offset=".342" stop-color="#5B8DBB"/><stop offset="1" stop-color="#085C99"/></radialGradient><radialGradient id="p" cx="0" cy="0" r="1" gradientTransform="matrix(29.1734 0 0 29.0614 40.4 64.46)" gradientUnits="userSpaceOnUse"><stop stop-color="#88A9CE"/><stop offset=".342" stop-color="#5B8DBB"/><stop offset="1" stop-color="#085C99"/></radialGradient></defs></svg>