<?xml version="1.0" encoding="UTF-8"?> <svg xmlns="http://www.w3.org/2000/svg" id="a" viewBox="0 0 781.37 137.7"><defs><style>.b{fill:#006c85}.c{stroke:#000;stroke-miterlimit:10;stroke-width:.75px}</style></defs><path class="b" d="M154.07 10.07c-3 1.7-5.9 4.1-8.8 6.3-6.9 6-13.3 13.4-15.3 21.3v57.2s0 2-1.2 4.4c-1.4 2.8-11.8 3.6-11.8 3.6l.1 6.5h49.2l-.1-6.6s-10.8-.4-13-3.6c-.4-.8-.8-1.1-1-2.8v-77.1c.2-2.1.1-5 2-5.9 1.2-.6.3-2.3-.1-3.3Z"></path><path class="b" d="M180.27 7.97c-3.3 2.9-6 6.5-8.2 10l-1.9-1.4c2.1-2.7 5.1-5.4 4.1-9.2-2.2-3.5-7-2.8-10.6-2.7-11.1 2-20.1 9.4-28 18.3-8.7 11.1-13.5 23.8-18.2 36.6 3.1 1.9 6.7 3.6 9.3 6.3-2.4 1.4-7.8 4.3-7.8 4.3l-1.3-1.9 1.3-1.1c-1.2-1-2.5-1.6-3.6-2.3-11.2 25.9-25.7 57.2-55.2 68.9-15.9 6.9-37.4 4.6-51-5.9-6.7-5.8-10.2-13.5-8.9-22.3 3.3-15.4 18.7-27.2 31.7-34.7l.1-.5v-56.9c-.4-2.2-1.1-4.5-3.4-5.5-2.6-.9-6-.5-8.8-.3l-.1-7.2h36.7l26.5 55c4.6-.5 9.4-.5 14.3-.4 9.6-21.8 28.7-47 53.1-53 8.4-2 18.9-3.9 26.3 1.2 1.7 1.3 2.9 3 3.6 4.7Zm-137.4 10v46.9c5.7-2.4 11.6-4.3 17.7-5.8l-17.7-41.1Zm36.2 78.9-.5-.5-16.2-33.3c-6.5 1.8-13 3.4-18.9 6.7v26.4c.2.9.3 2 1.5 3.1 3 2.8 8 3.6 11.5 3.6-.1 2.5.1 7.2.1 7.2h-36.2l-.1-7s7.9 0 10.9-3.7c1-1.2.8-2.2.9-3.1 0-7.6.1-12.8 0-20.8-2.5 1.9-2.9 2.4-5.4 4.5-11.1 9.3-20.4 21.6-16.1 36.4 3.2 9 12.6 14.6 21.5 15.6 16.7 2.3 29.3-7.6 39.6-19.9 13.1-15.3 17.6-34.3 25.2-51.9-3.3-.3-6.8-.4-10.2-.3l-.3.1c1.4 3.5 3.7 6.6 4.6 10.2l-11.9 26.7Z"></path><path class="c" d="M227.77 29.67c0 .6-.3.9-.7.9-.6 0-.7-.7-1-2.5-1.1-6.5-6-12.6-13.1-12.6s-12.6 6.7-12.6 19c0 14.5 6.9 19 12.2 19 7.9 0 12.8-5.6 13.9-12.7.1-.9.3-1.3.7-1.3s.7.3.7.9v13.6c0 .6-.3.9-.8.9-1.2 0-.7-2.7-3-2.7-2.1 0-4.8 2.7-12 2.7-10.7 0-18.1-9.4-18.1-20.4s10.1-20.4 18.8-20.4c6.4 0 9.7 3.2 11.8 3.2s.9-2.9 2.5-2.9c.4 0 .7.3.7.9v14.4ZM244.27 33.87v15.1c0 5 5 2.6 5 4.4 0 .3-.2.7-.7.7-1.4 0-2.8-.1-7.1-.1s-5.7.1-7.1.1c-.5 0-.7-.3-.7-.7 0-1.8 5 .6 5-4.4v-29c0-5-5-2.6-5-4.4 0-.3.2-.7.7-.7 1.4 0 2.8.1 7.1.1s5.7-.1 7.1-.1c.5 0 .7.3.7.7 0 1.8-5-.6-5 4.4v12.9h16.6v-12.9c0-5-5-2.6-5-4.4 0-.3.2-.7.7-.7 1.4 0 2.8.1 7.1.1s5.7-.1 7.1-.1c.5 0 .7.3.7.7 0 1.8-5-.6-5 4.4v29c0 5 5 2.6 5 4.4 0 .3-.2.7-.7.7-1.4 0-2.8-.1-7.1-.1s-5.7.1-7.1.1c-.5 0-.7-.3-.7-.7 0-1.8 5 .6 5-4.4v-15.1h-16.6ZM284.27 39.27l-1 3.3c-.6 1.8-.9 3.7-.9 5 0 2.4.9 3.5 2.4 4.5 1.3.8 2.5.5 2.5 1.3 0 .5-.2.7-1.1.7-.7 0-2.4-.1-6.3-.1-3.6 0-4.8.1-6.6.1-.6 0-.9-.3-.9-.6 0-1.1 2.1-.1 4.6-2.8 1.8-1.9 3.5-5.2 5-9.4l7.4-20.1c-.7-.9-1.7-1.3-1.7-1.6 0-.2 1.5-1.2 2.6-3.2 1.4-2.5 1-3.2 1.5-3.2.4 0 .4.5.9 1.7l14.2 34.8c1.7 4 4.6 2.4 4.6 3.8 0 .5-.2.7-.9.7-.6 0-2.2-.1-7.3-.1-3.6 0-4.8.1-5.5.1s-.9-.3-.9-.7c0-1.4 4 .1 4-3 0-1.1-.3-2.1-.9-3.4l-3.1-7.6h-12.6v-.2Zm6-17.1-5.6 16.1h12.1l-6.5-16.1ZM324.77 48.97c0 5 5 2.6 5 4.4 0 .3-.2.7-.7.7-1.4 0-2.8-.1-7.1-.1s-5.7.1-7.1.1c-.5 0-.7-.3-.7-.7 0-1.8 5 .6 5-4.4v-29c0-5-5-2.6-5-4.4 0-.3.2-.7.7-.7 1.4 0 2.8.1 7.1.1 2.8 0 4.9-.1 7.3-.1 10.2 0 14.9 4.7 14.9 10.2 0 4-3.3 7.7-7.6 8.7-2.1.5-4.4.6-6.5.7v.1c6 .5 8.4 1.8 10.6 6l4.2 8.1c2.7 5.3 6.6 3.3 6.6 4.6 0 .5-.1.7-.7.7-1.5 0-3.8-.1-5.9-.1h-3.3l-7.5-14.5c-1.8-3.4-4.1-4.4-7.9-4.4h-1.5v14h.1Zm0-15h4.1c6.2 0 9.7-2.9 9.7-9.1 0-5.6-3.7-8.6-9.6-8.6h-4.1v17.7h-.1ZM362.37 48.97c0 2.6.9 3.7 4.4 3.7 6.7 0 12.3-4.7 14.7-10.3 1.2-2.8 1-3.6 1.7-3.6.3 0 .5.2.5.5s-.2 1.4-.5 2.5l-3 12.2c-6.3-.1-13-.1-20.5-.1-4.3 0-5.7.1-7.1.1-.5 0-.7-.3-.7-.7 0-1.8 5 .6 5-4.4v-29c0-5-5-2.6-5-4.4 0-.3.2-.7.7-.7 1.4 0 2.8.1 7.1.1s5.7-.1 7.1-.1c.5 0 .7.3.7.7 0 1.8-5-.6-5 4.4v29.1h-.1ZM391.97 19.97c0-5-5-2.6-5-4.4 0-.3.2-.7.7-.7 1.4 0 2.8.1 7.1.1 10.6 0 13-.1 19.2-.1l3.6 10.8c.3 1 .4 1.3.4 1.5 0 .3-.2.5-.6.5s-.6-.4-1-1.4c-3.6-9.4-9.2-10.1-18.9-10.1v16.7c5.5 0 9.5-1.6 9.5-7.6 0-.8.1-1.1.6-1.1s.6.3.6 1.1v16.9c0 .8-.1 1.1-.6 1.1s-.6-.3-.6-1.1c0-6.3-4-8.2-9.5-8.2v15.1c0 2.6.9 3.7 4.4 3.7 7.5 0 12.9-4.5 15.4-10.3 1.2-2.8 1-3.6 1.7-3.6.3 0 .5.2.5.5s-.2 1.4-.5 2.5l-3 12.2c-7-.1-13.7-.1-21.2-.1-4.3 0-5.7.1-7.1.1-.5 0-.7-.3-.7-.7 0-1.8 5 .6 5-4.4v-29ZM424.77 38.57c0-.9 0-1.5.7-1.5 1 0 .9 1.1 1.5 4.4 2 9.5 6.7 12 10.9 12 5.2 0 9.1-3 9.1-8 0-13.4-21.9-6.9-21.9-21.5 0-5.8 5.6-9.9 11.4-9.9 5.3 0 8.5 2.2 9.6 2.2 1.7 0 .9-2 2.2-2 .5 0 .7.4.8 1 1 11.5 1 12.2 1 12.7s-.1 1-.7 1-.7-.4-1.4-2.8c-2.4-7.6-5.9-11.1-11.4-11.1-3.8 0-6.7 3-6.7 6.6 0 10.8 21.9 6.7 21.9 20.9 0 8.7-8.3 12.2-13.5 12.2s-9-2.4-10.2-2.4c-1.6 0-1.2 2.1-2.6 2.1-.4 0-.8-.5-.8-1.3v-14.6h.1ZM473.67 38.57c0-.9 0-1.5.7-1.5 1 0 .9 1.1 1.5 4.4 2 9.5 6.7 12 10.9 12 5.2 0 9.1-3 9.1-8 0-13.4-21.9-6.9-21.9-21.5 0-5.8 5.6-9.9 11.4-9.9 5.3 0 8.5 2.2 9.6 2.2 1.7 0 .9-2 2.2-2 .5 0 .7.4.8 1 1 11.5 1 12.2 1 12.7s-.1 1-.7 1-.7-.4-1.4-2.8c-2.3-7.6-5.9-11.1-11.4-11.1-3.8 0-6.7 3-6.7 6.6 0 10.8 21.9 6.7 21.9 20.9 0 8.7-8.3 12.2-13.5 12.2s-8.9-2.4-10.2-2.4c-1.6 0-1.2 2.1-2.6 2.1-.4 0-.8-.5-.8-1.3v-14.6h.1ZM524.17 48.97c0 5 6 2.6 6 4.4 0 .3-.1.7-.7.7-2.3 0-3.7-.1-8-.1s-5.7.1-8 .1c-.6 0-.7-.3-.7-.7 0-1.8 6 .6 6-4.4v-32.9c-5 .6-9.7 4.5-12 9.1-1.1 2.2-1.1 2.8-1.7 2.8-.2 0-.4-.2-.4-.5s.2-1.1.5-2.4l2.8-10.2c.2-.5.3-.7.7-.7.3 0 .5.2.7.5.2.2.6.5 1.4.5h21.3c.9 0 1.2-.2 1.4-.5.2-.2.3-.5.7-.5s.5.2.7.7l2.8 10.2c.3 1.2.5 2 .5 2.4 0 .3-.2.5-.4.5-.5 0-.5-.5-1.7-2.8-2.4-4.6-7.1-8.5-12-9.1v32.9h.1ZM547.07 19.97c0-5-5-2.6-5-4.4 0-.3.2-.7.7-.7 1.4 0 2.8.1 7.1.1 10.6 0 13-.1 19.2-.1l3.6 10.8c.3 1 .4 1.3.4 1.5 0 .3-.2.5-.6.5s-.6-.4-1-1.4c-3.6-9.4-9.2-10.1-18.9-10.1v16.7c5.4 0 9.5-1.6 9.5-7.6 0-.8.1-1.1.6-1.1s.6.3.6 1.1v16.9c0 .8-.1 1.1-.6 1.1s-.6-.3-.6-1.1c0-6.3-4-8.2-9.5-8.2v15.1c0 2.6.9 3.7 4.4 3.7 7.5 0 12.9-4.5 15.4-10.3 1.2-2.8 1-3.6 1.7-3.6.3 0 .5.2.5.5s-.2 1.4-.5 2.5l-3 12.2c-7-.1-13.7-.1-21.2-.1-4.3 0-5.7.1-7.1.1-.5 0-.7-.3-.7-.7 0-1.8 5 .6 5-4.4v-29ZM613.17 46.57h.1l6.1-19.6c.5-1.4.9-4.2.9-6 0-5.7-4.5-4.2-4.5-5.4 0-.6.4-.7 1.5-.7.9 0 2.4.1 4.6.1 2.8 0 4.8-.1 5.8-.1 1.3 0 1.7.1 1.7.7 0 1.3-4.5-.6-7.4 8l-9.5 29c-.4 1.2-.7 2.2-1.3 2.2s-.9-1-1.3-2.2l-7.9-23.6h-.1l-7.1 23.6c-.3 1.2-.6 2.2-1.3 2.2-.6 0-.9-1-1.3-2.2l-11.2-32.2c-2-5.5-5.4-3.7-5.4-4.9 0-.3.2-.6 1-.6.7 0 2 .1 6.1.1 2.7 0 5.6-.1 6.5-.1.8 0 1 .2 1 .6 0 1-4 .4-4 3.1 0 1 .5 2.3 1 3.5l8.5 23.9h.1l5.5-19-2.7-7.8c-1.3-3.6-4.6-2.6-4.6-3.7 0-.6.4-.7 1.2-.7 1.8 0 3.9.1 5.6.1 2.4 0 5.6-.1 6.6-.1.7 0 .9.2.9.6 0 1.3-3.7-.1-3.7 2.8 0 2.2.6 3.8 1.1 5.2l7.5 23.2ZM632.77 39.27l-1 3.3c-.6 1.8-.9 3.7-.9 5 0 2.4.9 3.5 2.4 4.5 1.3.8 2.5.5 2.5 1.3 0 .5-.2.7-1.1.7-.7 0-2.4-.1-6.3-.1-3.6 0-4.8.1-6.6.1-.6 0-.9-.3-.9-.6 0-1.1 2.1-.1 4.6-2.8 1.8-1.9 3.5-5.2 5-9.4l7.4-20.1c-.7-.9-1.7-1.3-1.7-1.6 0-.2 1.5-1.2 2.6-3.2 1.4-2.5 1-3.2 1.5-3.2.4 0 .4.5.9 1.7l14.2 34.8c1.7 4 4.6 2.4 4.6 3.8 0 .5-.2.7-.9.7-.6 0-2.2-.1-7.3-.1-3.6 0-4.8.1-5.5.1s-.9-.3-.9-.7c0-1.4 4 .1 4-3 0-1.1-.3-2.1-.9-3.4l-3.1-7.6h-12.6v-.2Zm6-17.1-5.6 16.1h12.1l-6.5-16.1ZM673.17 48.97c0 5 5 2.6 5 4.4 0 .3-.2.7-.7.7-1.4 0-2.8-.1-7.1-.1s-5.7.1-7.1.1c-.5 0-.7-.3-.7-.7 0-1.8 5 .6 5-4.4v-29c0-5-5-2.6-5-4.4 0-.3.2-.7.7-.7 1.4 0 2.8.1 7.1.1 2.8 0 4.9-.1 7.3-.1 10.2 0 14.9 4.7 14.9 10.2 0 4-3.3 7.7-7.6 8.7-2.1.5-4.4.6-6.5.7v.1c6 .5 8.4 1.8 10.6 6l4.2 8.1c2.7 5.3 6.6 3.3 6.6 4.6 0 .5-.1.7-.7.7-1.5 0-3.8-.1-5.9-.1h-3.2l-7.5-14.5c-1.8-3.4-4.1-4.4-7.9-4.4h-1.5v14Zm0-15h4.1c6.2 0 9.7-2.9 9.7-9.1 0-5.6-3.7-8.6-9.6-8.6h-4.1v17.7h-.1ZM718.57 48.97c0 5 6 2.6 6 4.4 0 .3-.1.7-.7.7-2.3 0-3.7-.1-8-.1s-5.7.1-8 .1c-.6 0-.7-.3-.7-.7 0-1.8 6 .6 6-4.4v-32.9c-5 .6-9.7 4.5-12 9.1-1.1 2.2-1.1 2.8-1.7 2.8-.2 0-.4-.2-.4-.5s.2-1.1.5-2.4l2.8-10.2c.2-.5.3-.7.7-.7.3 0 .5.2.7.5.2.2.6.5 1.4.5h21.5c.9 0 1.2-.2 1.4-.5.2-.2.3-.5.7-.5s.5.2.7.7l2.8 10.2c.3 1.2.5 2 .5 2.4 0 .3-.2.5-.4.5-.5 0-.5-.5-1.7-2.8-2.4-4.6-7.1-8.5-12-9.1v32.9h-.1Z"></path><g><path class="c" d="m217.57 101.47 12.2-32.1h2.3c4.5 0 5.9-.1 7.3-.1.5 0 .8.4.8.7 0 1.8-5.2-.7-5.2 4.5v30.1c0 5.2 5.2 2.7 5.2 4.5 0 .4-.2.7-.8.7-1.4 0-2.9-.1-7.3-.1s-5.9.1-7.3.1c-.5 0-.8-.4-.8-.7 0-1.8 5.2.7 5.2-4.5v-29.7h-.2l-12.6 33.6c-.3.8-.4 1.3-.9 1.3s-.6-.5-.9-1.3l-12.1-33.1h-.1v24.9c0 4.6 2.1 7.2 5.3 8 .8.2 1.3.2 1.3.8 0 .4-.1.6-.7.6-.8 0-4.2-.1-6.8-.1s-6.1.1-6.8.1c-.5 0-.7-.2-.7-.6 0-.7.5-.7 1.3-.8 3.2-.8 5.3-3.4 5.3-8v-25.9c0-5.2-5.2-2.7-5.2-4.5 0-.4.2-.7.8-.7 1.4 0 2.9.1 7.3.1h2.1l12 32.2ZM244.27 89.47c0-13.1 10.8-21.1 20.4-21.1s20.4 8 20.4 21.1-10.8 21.1-20.4 21.1-20.4-8-20.4-21.1Zm20.3 19.7c6.7 0 13.8-4.6 13.8-19.7s-7.1-19.7-13.8-19.7-13.8 4.6-13.8 19.7 7.1 19.7 13.8 19.7ZM309.77 104.47c0 5.2 6.2 2.7 6.2 4.5 0 .4-.1.7-.8.7-2.4 0-3.8-.1-8.3-.1s-5.9.1-8.3.1c-.6 0-.8-.4-.8-.7 0-1.8 6.2.7 6.2-4.5v-34.1c-5.2.6-10 4.6-12.5 9.4-1.2 2.3-1.2 2.9-1.7 2.9-.2 0-.4-.2-.4-.5 0-.4.2-1.2.5-2.4l2.9-10.6c.2-.5.3-.8.7-.8s.5.2.7.5c.2.2.6.5 1.5.5h22.4c.9 0 1.2-.2 1.5-.5.2-.2.4-.5.7-.5.4 0 .5.2.7.8l2.9 10.6c.4 1.2.5 2.1.5 2.4s-.2.5-.4.5c-.5 0-.5-.5-1.7-2.9-2.4-4.8-7.3-8.8-12.5-9.4v34.1ZM348.27 104.47c0 5.2 6.2 2.7 6.2 4.5 0 .4-.1.7-.8.7-2.4 0-3.8-.1-8.3-.1s-5.9.1-8.3.1c-.6 0-.8-.4-.8-.7 0-1.8 6.2.7 6.2-4.5v-34.1c-5.2.6-10 4.6-12.5 9.4-1.2 2.3-1.2 2.9-1.7 2.9-.2 0-.4-.2-.4-.5 0-.4.2-1.2.5-2.4l2.9-10.6c.2-.5.3-.8.7-.8s.5.2.7.5c.2.2.6.5 1.5.5h22.2c.9 0 1.2-.2 1.5-.5.2-.2.4-.5.7-.5.4 0 .5.2.7.8l2.9 10.6c.4 1.2.5 2.1.5 2.4s-.2.5-.4.5c-.5 0-.5-.5-1.7-2.9-2.4-4.8-7.3-8.8-12.5-9.4v34.1h.2ZM394.27 87.77c5.6 0 9.8-1.7 9.8-7.9 0-.8.1-1.2.6-1.2s.6.4.6 1.2v17.5c0 .8-.1 1.2-.6 1.2s-.6-.4-.6-1.2c0-6.5-4.2-8.5-9.8-8.5v15.7c0 5.2 5.2 2.7 5.2 4.5 0 .4-.2.7-.8.7-1.4 0-2.9-.1-7.3-.1s-5.9.1-7.3.1c-.5 0-.8-.4-.8-.7 0-1.8 5.2.7 5.2-4.5v-30.1c0-5.2-5.2-2.7-5.2-4.5 0-.4.2-.7.8-.7 1.4 0 2.9.1 7.3.1 11 0 13.4-.1 19.2-.1l3.7 11.2c.3 1 .4 1.3.4 1.6s-.2.5-.6.5-.6-.4-1-1.5c-3.7-9.7-9.6-10.5-18.8-10.5v17.2ZM418.07 89.47c0-13.1 10.8-21.1 20.4-21.1s20.4 8 20.4 21.1-10.8 21.1-20.4 21.1-20.4-8-20.4-21.1Zm20.3 19.7c6.7 0 13.8-4.6 13.8-19.7s-7.1-19.7-13.8-19.7-13.8 4.6-13.8 19.7 7.1 19.7 13.8 19.7ZM472.97 97.57c0 6.8 3.7 11.2 10 11.2 5.9.1 11.2-3.4 11.2-10.7v-17.8c0-11.2-6.8-8.3-6.8-10.3 0-.5.4-.7 1.1-.7 1.1 0 2.9.1 6.7.1s5.6-.1 6.7-.1c.7 0 1.1.2 1.1.7 0 2-6.8-.8-6.8 10.3v17.2c0 7-4 13.1-13.5 13.1s-14.8-5.2-14.8-12v-24.1c0-5.2-5.2-2.7-5.2-4.5 0-.4.2-.7.8-.7 1.4 0 2.9.1 7 .1 4.5 0 5.9-.1 7.3-.1.5 0 .8.4.8.7 0 1.8-5.2-.7-5.2 4.5l-.4 23.1Z"></path><path class="c" d="M533.97 100.17h.1v-20.3c0-5.9-1.8-8.7-5.6-9.3-.9-.1-1.3-.2-1.3-.8 0-.4.2-.7.7-.7s1.3.1 7 .1 6.5-.1 7-.1.7.2.7.7-.4.7-1.3.8c-3.8.5-5.6 3.4-5.6 9.3v29.9c0 .7-.1.9-.5.9-.3 0-.6-.6-1.4-1.8l-22.7-31.6h-.2v21.8c0 5.9 1.8 8.7 5.6 9.3.9.1 1.3.2 1.3.8 0 .4-.2.7-.7.7s-1.3-.1-7-.1-6.5.1-7 .1-.7-.2-.7-.7.4-.7 1.3-.8c3.8-.5 5.6-3.4 5.6-9.3v-23.8l-2.1-2.6c-2-2.5-4.6-1.5-4.6-2.6 0-.5.2-.8 1.5-.8 1.2 0 3.6.1 5.8.1h2.3l21.8 30.8ZM550.27 74.47c0-5.2-5.2-2.7-5.2-4.5 0-.4.2-.7.8-.7 1.4 0 2.9.1 7.3.1 1.7 0 4.6-.1 6.4-.1 15.6 0 22.5 9.6 22.5 20.8s-7 19.7-19.7 19.7c-3.4 0-5.4-.1-9.1-.1-4.5 0-5.9.1-7.3.1-.5 0-.8-.4-.8-.7 0-1.8 5.2.7 5.2-4.5v-30.1h-.1Zm5.7 26.8c0 5.1 1.3 7 7.2 7 9.9 0 12.8-9.1 12.8-17.2 0-12.8-4.9-20.4-16.2-20.4h-3.9v30.6h.1ZM594.47 94.37l-1 3.4c-.6 1.9-.9 3.8-.9 5.2 0 2.4.9 3.6 2.4 4.6 1.3.8 2.6.5 2.6 1.3 0 .5-.2.8-1.2.8-.8 0-2.4-.1-6.5-.1-3.7 0-5 .1-6.8.1-.7 0-.9-.4-.9-.7 0-1.2 2.2-.1 4.8-2.9 1.8-2 3.6-5.4 5.2-9.7l7.7-20.8c-.8-.9-1.7-1.4-1.7-1.7 0-.2 1.5-1.2 2.7-3.3 1.4-2.6 1.1-3.3 1.6-3.3.4 0 .4.5.9 1.7l14.7 36.1c1.7 4.2 4.8 2.5 4.8 3.9 0 .5-.2.7-1 .7-.7 0-2.3-.1-7.5-.1-3.7 0-5 .1-5.7.1s-.9-.4-.9-.7c0-1.5 4.2.1 4.2-3.1 0-1.2-.3-2.1-.9-3.6l-3.2-7.9h-13.4Zm6.2-17.7-5.8 16.6h12.5l-6.7-16.6ZM642.27 104.47c0 5.2 6.2 2.7 6.2 4.5 0 .4-.1.7-.8.7-2.4 0-3.8-.1-8.3-.1s-5.9.1-8.3.1c-.6 0-.8-.4-.8-.7 0-1.8 6.2.7 6.2-4.5v-34.1c-5.2.6-10 4.6-12.5 9.4-1.2 2.3-1.2 2.9-1.7 2.9-.2 0-.4-.2-.4-.5 0-.4.2-1.2.5-2.4l2.9-10.6c.2-.5.3-.8.7-.8s.5.2.7.5c.2.2.6.5 1.5.5h22.2c.9 0 1.2-.2 1.5-.5.2-.2.4-.5.7-.5.4 0 .5.2.7.8l2.9 10.6c.4 1.2.5 2.1.5 2.4s-.2.5-.4.5c-.5 0-.5-.5-1.7-2.9-2.4-4.8-7.3-8.8-12.5-9.4l.2 34.1ZM671.97 104.47c0 5.2 5.2 2.7 5.2 4.5 0 .4-.2.7-.8.7-1.4 0-2.9-.1-7.3-.1s-5.9.1-7.3.1c-.5 0-.8-.4-.8-.7 0-1.8 5.2.7 5.2-4.5v-30.1c0-5.2-5.2-2.7-5.2-4.5 0-.4.2-.7.8-.7 1.4 0 2.9.1 7.3.1s5.9-.1 7.3-.1c.5 0 .8.4.8.7 0 1.8-5.2-.7-5.2 4.5v30.1ZM682.27 89.47c0-13.1 10.8-21.1 20.4-21.1s20.4 8 20.4 21.1-10.8 21.1-20.4 21.1-20.4-8-20.4-21.1Zm20.4 19.7c6.7 0 13.8-4.6 13.8-19.7s-7.1-19.7-13.8-19.7-13.8 4.6-13.8 19.7 7.1 19.7 13.8 19.7ZM757.57 100.17h.1v-20.3c0-5.9-1.8-8.7-5.6-9.3-.9-.1-1.3-.2-1.3-.8 0-.4.2-.7.7-.7s1.3.1 7 .1 6.5-.1 7-.1.7.2.7.7-.4.7-1.3.8c-3.8.5-5.6 3.4-5.6 9.3v29.9c0 .7-.1.9-.5.9-.3 0-.6-.6-1.4-1.8l-22.7-31.7h-.2v21.8c0 5.9 1.8 8.7 5.6 9.3.9.1 1.3.2 1.3.8 0 .4-.2.7-.7.7s-1.3-.1-7-.1-6.5.1-7 .1-.7-.2-.7-.7.4-.7 1.3-.8c3.8-.5 5.6-3.4 5.6-9.3v-23.8l-2.1-2.6c-2-2.5-4.6-1.5-4.6-2.6 0-.5.2-.8 1.5-.8 1.2 0 3.6.1 5.8.1h2.3l21.8 30.9Z"></path></g><path d="M768.37 76.17c0-3.6 2.8-6.2 6.5-6.2s6.5 2.6 6.5 6.2-2.8 6.2-6.5 6.2-6.5-2.7-6.5-6.2Zm11.9 0c0-3.1-2.3-5.1-5.3-5.1s-5.3 2.1-5.3 5.1 2.3 5.2 5.4 5.2c2.9-.1 5.2-2.3 5.2-5.2Zm-7.9-2.9c0-.4-.2-.5-.8-.5-.1 0-.2-.1-.2-.1 0-.1.1-.2.4-.2h.4c.1 0 .7.1.9.1.6 0 .9-.1 1.5-.1 1.2 0 3 .2 3 1.9 0 .7-.2 1.3-1.3 2.1l1.2 1.5c.9 1.1 1.2 1.2 1.3 1.2s.2.1.2.1c0 .1-.1.2-.5.2-.9 0-1.4.1-2.5-1.3l-1-1.3h-1.3v.6c0 1.4.1 1.5.1 1.6.1.1.5.1.7.1.1 0 .2 0 .2.1s-.1.2-.3.2h-.3c-.1 0-.8-.1-1.1-.1-.2 0-.9.1-1.1.1h-.4c-.1 0-.3 0-.3-.1s.1-.2.3-.2c.6 0 .73-.07.83-.47 0-.4.07-5.13.07-5.43Zm1.4 2.7c.2.1.6.2 1.1.2.2 0 .5-.1.7-.2.4-.2.6-.6.6-1.3 0-1-.6-1.7-1.8-1.7-.1 0-.5 0-.6.1v2.9Z"></path></svg> 