<svg width="160" height="102" viewBox="0 0 160 102" fill="none" xmlns="http://www.w3.org/2000/svg">
<g clip-path="url(#clip0_639_23583)">
<path d="M26.7983 89.2254C26.4043 86.8671 24.4338 84.9017 21.8722 84.9017C19.5077 84.9017 17.1432 86.8671 16.7491 89.2254H26.7983ZM16.9461 91.7804C16.9461 94.9249 19.1136 97.2832 22.4634 97.2832C24.8279 97.2832 26.4042 95.9075 27.5865 93.9422L29.951 95.3179C28.3747 98.2659 25.6161 100.035 22.2663 100.035C17.3402 100.035 14.1875 96.3006 14.1875 91.5838C14.1875 86.6705 16.9461 82.7399 22.2663 82.7399C27.5865 82.7399 30.3451 87.0636 30.1481 91.9769H16.9461V91.7804Z" fill="black"/>
<path d="M33.6947 90.9942C33.6947 94.1387 35.6651 97.2832 39.2119 97.2832C42.7587 97.2832 44.7291 94.3353 44.7291 90.9942C44.7291 87.6532 42.5617 85.0983 39.2119 85.0983C35.8621 84.9017 33.6947 87.8497 33.6947 90.9942ZM47.2907 99.4451H44.5321V97.0867C43.1528 98.8555 41.1823 99.8381 38.8178 99.8381C33.8917 99.8381 30.936 95.711 30.936 91.1908C30.936 86.474 33.8917 82.5434 38.8178 82.5434C40.9853 82.5434 43.1528 83.526 44.5321 85.2948V82.9364H47.2907V99.4451Z" fill="black"/>
<path d="M53.9906 84.9017C55.1728 83.3295 56.7492 82.3468 58.7196 82.3468C63.2516 82.3468 64.4339 85.6879 64.4339 89.422V99.2485H61.6753V90.0116C61.6753 87.2601 61.4782 84.9017 58.1285 84.9017C54.1876 84.9017 53.9906 88.4393 53.9906 91.3873V99.2485H51.2319V82.7399H53.9906V84.9017Z" fill="black"/>
<path d="M88.867 90.9942C88.867 94.1387 90.8375 97.2832 94.3843 97.2832C97.9311 97.2832 99.9015 94.3353 99.9015 90.9942C99.9015 87.6532 97.734 85.0983 94.3843 85.0983C90.8375 84.9017 88.867 87.8497 88.867 90.9942ZM102.463 99.4451H99.7045V97.0867C98.3251 98.8555 96.3547 99.8381 93.9902 99.8381C89.0641 99.8381 86.1084 95.711 86.1084 91.1908C86.1084 86.474 89.0641 82.5434 93.9902 82.5434C96.1577 82.5434 98.3251 83.526 99.7045 85.2948V82.9364H102.463V99.4451Z" fill="black"/>
<path d="M108.769 91.9769C108.769 94.7283 109.163 97.0867 112.513 97.0867C115.862 97.0867 116.257 94.7283 116.257 91.9769V82.7399H119.015V92.3699C119.015 96.6936 117.439 99.8382 112.513 99.8382C107.587 99.8382 106.01 96.6936 106.01 92.3699V82.9364H108.769V91.9769Z" fill="black"/>
<path d="M125.517 84.7052C126.503 83.3295 127.488 82.5434 129.261 82.5434C130.246 82.5434 131.035 82.9364 131.823 83.3295L130.444 85.8844C129.852 85.4913 129.458 85.0983 128.67 85.0983C125.517 85.0983 125.517 89.0289 125.517 91.1908V99.4451H122.759V82.9364H125.517V84.7052Z" fill="black"/>
<path d="M139.113 73.3064L143.251 79.0058L141.478 79.9884L136.158 74.4855L139.113 73.3064ZM144.631 89.2254C144.237 86.867 142.266 84.9017 139.705 84.9017C137.34 84.9017 134.975 86.867 134.581 89.2254H144.631ZM134.581 91.7803C134.581 94.9249 136.749 97.2832 140.099 97.2832C142.463 97.2832 144.039 95.9075 145.222 93.9422L147.586 95.3179C146.01 98.2659 143.251 100.035 139.902 100.035C134.975 100.035 131.823 96.3006 131.823 91.5838C131.823 86.6705 134.581 82.7399 139.902 82.7399C145.222 82.7399 147.98 87.0636 147.783 91.9769H134.581V91.7803Z" fill="black"/>
<path d="M156.651 86.6705C156.257 85.8844 155.468 84.9017 154.483 84.9017C153.498 84.9017 152.513 85.6879 152.513 86.6705C152.513 88.2428 154.483 88.8324 156.257 89.6185C158.227 90.4046 160 91.5838 160 94.3353C160 97.4798 157.439 99.6416 154.483 99.6416C151.724 99.6416 149.557 98.0694 148.572 95.5144L151.133 94.5318C151.922 96.104 152.71 97.0867 154.483 97.0867C156.059 97.0867 157.242 96.104 157.242 94.5318C157.242 90.7977 149.754 92.1734 149.754 86.867C149.754 84.1156 151.922 82.1503 154.68 82.1503C156.651 82.1503 158.424 83.526 159.015 85.2948L156.651 86.6705Z" fill="black"/>
<mask id="mask0_639_23583" style="mask-type:luminance" maskUnits="userSpaceOnUse" x="0" y="0" width="161" height="102">
<path d="M160.197 0H0.197266V102H160.197V0Z" fill="white"/>
</mask>
<g mask="url(#mask0_639_23583)">
<path d="M83.3499 72.7168V93.7457C83.3499 95.9075 83.3499 98.0694 81.9706 99.8381C80.7883 101.214 79.2119 102 77.4385 102C75.6651 102 74.0888 101.214 72.7095 100.035L74.2858 97.6763C75.271 98.4624 76.0592 99.2486 77.4385 99.2486C80.3942 99.2486 80.3942 95.711 80.3942 93.7457V74.8786" fill="black"/>
</g>
<mask id="mask1_639_23583" style="mask-type:luminance" maskUnits="userSpaceOnUse" x="0" y="0" width="161" height="102">
<path d="M160.197 0H0.197266V102H160.197V0Z" fill="white"/>
</mask>
<g mask="url(#mask1_639_23583)">
<path d="M10.6404 72.7168V93.7457C10.6404 95.9075 10.6404 98.0694 9.26108 99.8381C8.07882 101.214 6.50246 102 4.72906 102C2.95567 102 1.37931 101.214 0 100.035L1.57635 97.6763C2.56158 98.4624 3.34975 99.2486 4.72906 99.2486C7.68473 99.2486 7.68473 95.9075 7.68473 93.7457V74.8786" fill="black"/>
</g>
<path d="M95.3697 61.3179C91.4288 55.0289 80.3943 56.4046 84.5322 65.2486C88.079 72.7168 98.3253 67.6069 95.3697 61.3179Z" fill="black"/>
<mask id="mask2_639_23583" style="mask-type:luminance" maskUnits="userSpaceOnUse" x="0" y="0" width="161" height="102">
<path d="M160.197 0H0.197266V102H160.197V0Z" fill="white"/>
</mask>
<g mask="url(#mask2_639_23583)">
<path d="M112.71 25.1561C113.892 25.3527 114.483 25.5492 115.271 25.9423C115.271 25.9423 115.271 25.7457 115.468 25.7457C119.409 18.474 116.257 6.68214 109.163 2.35844C107.39 1.17925 105.616 0.589655 103.646 0.393123C99.7048 -0.393004 96.7491 0.196591 93.5964 0.982718C88.2762 2.16191 83.9413 6.87867 84.1383 12.5781C84.1383 20.2428 89.6555 28.8902 95.961 32.8209C97.1432 33.607 98.3255 34.0001 99.5078 34.3931C100.69 28.4972 106.01 24.5665 112.71 25.1561Z" fill="#F7A51D"/>
</g>
<path d="M102.857 45.9884C102.266 46.3815 101.478 46.9711 100.887 47.7572C98.9164 50.1156 95.9607 54.2428 98.1282 56.7977C99.9016 58.5665 102.857 59.5491 105.419 59.1561C105.813 59.1561 105.813 59.1561 106.207 59.1561C112.512 58.9595 113.498 53.8497 111.724 49.9191C108.572 50.1156 105.419 48.9364 102.857 45.9884Z" fill="#485AA5"/>
<path d="M120.986 35.5723C120.394 31.2486 118.621 27.711 115.468 26.1387C112.119 32.0347 106.01 36.1619 99.7048 34.5896C99.1136 37.341 99.5077 40.289 101.084 43.4335C101.675 44.4162 102.266 45.3988 102.857 46.185C106.404 44.0231 109.951 46.578 111.527 50.1156C117.045 49.133 121.971 43.6301 120.986 35.5723Z" fill="#8999CC"/>
<path d="M115.271 25.9422C114.483 25.5491 113.892 25.3526 112.71 25.1561C106.01 24.3699 100.69 28.4971 99.5078 34.3931C105.813 35.9653 111.922 31.8381 115.271 25.9422Z" fill="#DC3915"/>
<path d="M102.857 45.9884C105.419 49.1329 108.572 50.1156 111.527 49.9191C109.951 46.3815 106.404 43.6301 102.857 45.9884Z" fill="#312A74"/>
<path d="M7.88219 54.4393V59.5491H12.4142V60.3353H7.88219V67.4104H6.89697V53.6532H12.6113V54.4393H7.88219Z" fill="black"/>
<path d="M23.0545 63.2832C23.0545 65.8382 21.0841 67.8035 18.5225 67.8035C16.1579 67.8035 14.1875 65.8382 14.1875 63.4798C14.1875 61.1214 16.1579 58.9595 18.5225 58.9595C21.0841 58.763 23.0545 60.7283 23.0545 63.2832ZM14.9757 63.2832C14.9757 65.2486 16.552 66.8208 18.5225 66.8208C20.69 66.8208 22.2663 65.2486 22.2663 63.2832C22.2663 61.1214 20.69 59.5491 18.5225 59.5491C16.552 59.5491 14.9757 61.3179 14.9757 63.2832Z" fill="black"/>
<path d="M25.8131 60.3353C26.4042 59.3526 27.1924 58.763 28.3747 58.763C30.5421 58.763 31.1333 60.1387 31.1333 62.3006V67.4104H30.3451V62.3006C30.3451 60.7283 30.1481 59.5491 28.3747 59.5491C26.2072 59.5491 25.8131 61.5145 25.8131 63.2832V67.4104H25.0249V58.9595H25.8131V60.3353Z" fill="black"/>
<path d="M40.7885 66.0347C40.1973 67.2139 38.818 67.8035 37.4387 67.8035C34.8771 67.8035 33.3008 65.8382 33.3008 63.2832C33.3008 60.7283 34.8771 58.9595 37.4387 58.9595C38.818 58.9595 40.0003 59.5491 40.7885 60.5318V52.474H41.5766V67.6069H40.7885V66.0347ZM40.7885 63.0867C40.7885 61.1214 39.4092 59.5491 37.4387 59.5491C35.4683 59.5491 34.089 61.3179 34.089 63.0867C34.089 65.052 35.4683 66.8208 37.4387 66.8208C39.6062 66.8208 40.7885 65.052 40.7885 63.0867Z" fill="black"/>
<path d="M51.823 67.4104H51.0348V65.8381C50.4436 67.0173 49.0643 67.6069 47.8821 67.6069C45.3205 67.6069 43.7441 65.6416 43.7441 63.0867C43.7441 60.5318 45.3205 58.763 47.8821 58.763C49.2614 58.763 50.4436 59.3526 51.2318 60.3353V58.9595H52.02V67.4104M44.3353 63.0867C44.3353 65.052 45.7146 66.8208 47.685 66.8208C49.8525 66.8208 51.0348 65.052 51.0348 63.0867C51.0348 61.1214 49.6555 59.5491 47.685 59.5491C45.7146 59.5491 44.3353 61.3179 44.3353 63.0867Z" fill="black"/>
<path d="M55.5669 67.4104H54.7787V59.7457H53.7935V58.9595H54.7787V56.0116H55.5669V58.9595H57.1432V59.7457H55.5669V67.4104Z" fill="black"/>
<path d="M60.0988 56.2081C60.0988 56.6012 59.7047 56.9942 59.3106 56.9942C58.9165 56.9942 58.5225 56.6012 58.5225 56.2081C58.5225 55.815 58.9165 55.422 59.3106 55.422C59.7047 55.422 60.0988 55.815 60.0988 56.2081ZM59.7047 67.4104H58.9165V58.9595H59.7047V67.4104Z" fill="black"/>
<path d="M70.9363 63.2832C70.9363 65.8382 68.9659 67.8035 66.4043 67.8035C64.0398 67.8035 62.0693 65.8382 62.0693 63.4798C62.0693 61.1214 64.0398 58.9595 66.4043 58.9595C68.9659 58.763 70.9363 60.7283 70.9363 63.2832ZM62.8575 63.2832C62.8575 65.2486 64.4339 66.8208 66.4043 66.8208C68.5718 66.8208 70.1482 65.2486 70.1482 63.2832C70.1482 61.1214 68.5718 59.5491 66.4043 59.5491C64.4339 59.5491 62.8575 61.3179 62.8575 63.2832Z" fill="black"/>
<path d="M73.6949 60.3353C74.2861 59.3526 75.0742 58.763 76.2565 58.763C78.424 58.763 79.0151 60.1387 79.0151 62.3006V67.4104H78.2269V62.3006C78.2269 60.7283 78.0299 59.5491 76.2565 59.5491C74.089 59.5491 73.6949 61.5145 73.6949 63.2832V67.4104H72.9067V58.9595H73.6949V60.3353Z" fill="black"/>
</g>
<defs>
<clipPath id="clip0_639_23583">
<rect width="160" height="102" fill="white"/>
</clipPath>
</defs>
</svg>
