<svg version="1.1" id="Layer_1" xmlns="http://www.w3.org/2000/svg" xmlns:xlink="http://www.w3.org/1999/xlink" x="0px" y="0px" viewBox="0 0 340.3 138.9" style="enable-background:new 0 0 340.3 138.9;" xml:space="preserve" width="340.3"  height="138.9" >
<g id="slogan">
	<path id="Path_44" class="st0" d="M0.6,122.6l0,2.1v11.7l0,2.1h3.9l0-2.1v-11.7l0-2.1L0.6,122.6z" fill="#820C16"></path>
	<path id="Path_45" class="st0" d="M9.3,122.6h6.2c4.3,0,8.2,2.2,8.2,8c0,6-4,7.9-8.2,7.9H9.3l0-2.1v-11.7L9.3,122.6z M13.1,135.7h2
		c2.9,0,4.7-1.3,4.7-5.1c0-3.8-1.8-5.3-4.7-5.3h-2V135.7z" fill="#820C16"></path>
	<path id="Path_46" class="st0" d="M37.8,131.9h-6.4v3.7h7.9v2.9H27.6l0-2.1v-11.7l0-2.1h11.6v2.9h-7.8v3.6h6.4L37.8,131.9z" fill="#820C16"></path>
	<path id="Path_47" class="st0" d="M44.9,138.5h-3.5l5.7-15.9h4.1l5.6,15.9h-4.1l-1.1-3.6h-5.5L44.9,138.5z M47,132.2h3.8l-1.8-6h0
		L47,132.2z" fill="#820C16"></path>
	<path id="Path_48" class="st0" d="M70.3,127c-1.2-1.3-2.9-2-4.6-2c-1.7,0-2.9,0.6-2.9,1.7c0,1.5,2.2,1.6,4.1,2
		c3,0.5,5.9,1.6,5.9,4.8c0,3-2.5,5.3-6.9,5.3c-2.8,0.1-5.4-1-7.4-2.9l2.1-2.2c1.4,1.4,3.3,2.3,5.3,2.2c1.8,0,3.1-0.6,3.1-1.8
		c0-1.7-2.3-1.8-4.4-2.2c-3-0.5-5.6-1.6-5.6-4.6c0-3,2.4-5.2,6.5-5.2c2.5,0,5,0.9,6.9,2.6L70.3,127z" fill="#820C16"></path>
	<path id="Path_49" class="st0" d="M95.9,122.6l0,2.1v11.7l0,2.1h11v-2.9h-7.2v-10.9l0-2.1L95.9,122.6z" fill="#820C16"></path>
	<path id="Path_50" class="st0" d="M110.3,122.6l0,2.1v11.7l0,2.1H122v-2.9h-7.9v-3.7h6.4V129h-6.4v-3.6h7.8v-2.9H110.3z" fill="#820C16"></path>
	<path id="Path_51" class="st0" d="M131.7,126.2L131.7,126.2l1.8,6h-3.8L131.7,126.2z M129.8,122.6l-5.7,15.9h3.5l1.2-3.6h5.5
		l1.1,3.6h4.1l-5.6-15.9H129.8z" fill="#820C16"></path>
	<path id="Path_52" class="st0" d="M142.5,122.6h6.2c4.3,0,8.2,2.2,8.2,8c0,6-4,7.9-8.2,7.9h-6.2l0-2.1v-11.7L142.5,122.6z
		 M146.4,135.7h2c2.9,0,4.7-1.3,4.7-5.1c0-3.8-1.8-5.3-4.7-5.3h-2V135.7z" fill="#820C16"></path>
	<path id="Path_53" class="st0" d="M171.1,131.9h-6.4v3.7h7.9v2.9h-11.7l0-2.1v-11.7l0-2.1h11.6v2.9h-7.8v3.6h6.4L171.1,131.9z" fill="#820C16"></path>
	<path id="Path_54" class="st0" d="M185.6,138.5l-2.6-6.2h-2.8v4.1l0,2.1h-3.9l0-2.1v-11.7l0-2.1h7.3c2.7,0,6,0.8,6,4.8
		c0.1,2-1.2,3.8-3.1,4.4l3.4,6.6v0L185.6,138.5z M180.1,129.5h2.8c1.4,0,2.8-0.4,2.8-2.1c0-1.8-1.4-2.1-2.9-2.1h-2.7L180.1,129.5z" fill="#820C16"></path>
	<path id="Path_55" class="st0" d="M204.4,127c-1.2-1.3-2.9-2-4.6-2c-1.7,0-2.9,0.6-2.9,1.7c0,1.5,2.2,1.6,4.1,2
		c3,0.5,5.9,1.6,5.9,4.8c0,3-2.5,5.3-6.9,5.3c-2.8,0.1-5.4-1-7.4-2.9l2.1-2.2c1.4,1.4,3.3,2.3,5.3,2.2c1.8,0,3.1-0.6,3.1-1.8
		c0-1.7-2.3-1.8-4.4-2.2c-3-0.5-5.6-1.6-5.6-4.6c0-3,2.4-5.2,6.5-5.2c2.5,0,5,0.9,6.9,2.6L204.4,127z" fill="#820C16"></path>
	<path id="Path_56" class="st0" d="M220.7,138.5l0-2.1v-4.6h-6.3v4.6l0,2.1h-3.9l0-2.1v-11.7l0-2.1h3.9l0,2.1v4.3h6.3v-4.3l0-2.1
		h3.9l0,2.1v11.7l0,2.1H220.7z" fill="#820C16"></path>
	<path id="Path_57" class="st0" d="M229.4,138.5l0-2.1v-11.7l0-2.1h3.9l0,2.1v11.7l0,2.1H229.4z" fill="#820C16"></path>
	<path id="Path_58" class="st0" d="M241.9,132.5v3.8l0,2.1h-3.9l0-2.1v-11.7l0-2.1h7.3c2.8,0,6.1,0.8,6.1,4.9c0,4-2.9,5-5.7,5
		L241.9,132.5z M241.9,129.7h2.9c1.6,0,2.8-0.3,2.8-2.2c0-2-1.3-2.2-2.8-2.2h-2.9V129.7z" fill="#820C16"></path>
	<path id="Path_59" class="st0" d="M284.3,122.6l0,2.1v4.3H278v-4.3l0-2.1h-3.9l0,2.1v11.7l0,2.1h3.9l0-2.1v-4.6h6.3v4.6l0,2.1h3.9
		l0-2.1v-11.7l0-2.1L284.3,122.6z" fill="#820C16"></path>
	<path id="Path_60" class="st0" d="M292,130.5c0.2-4.4,4-7.8,8.4-7.5c4.4,0.2,7.8,4,7.5,8.4c-0.2,4.2-3.7,7.5-8,7.5
		c-4.3,0.1-7.9-3.4-8-7.7C291.9,130.9,291.9,130.7,292,130.5 M303.6,130.5c0-3.8-1.5-5.6-3.7-5.6s-3.7,1.7-3.7,5.6
		c0,3.8,1.5,5.6,3.7,5.6S303.6,134.4,303.6,130.5" fill="#820C16"></path>
	<path id="Path_61" class="st0" d="M315.5,132.5v3.8l0,2.1h-3.9l0-2.1v-11.7l0-2.1h7.3c2.8,0,6.1,0.8,6.1,4.9c0,4-2.9,5-5.7,5H315.5
		z M315.5,129.7h2.9c1.6,0,2.8-0.3,2.8-2.2c0-2-1.3-2.2-2.8-2.2h-2.9L315.5,129.7z" fill="#820C16"></path>
	<path id="Path_62" class="st0" d="M338.8,131.9h-6.4v3.7h7.9v2.9h-11.7l0-2.1v-11.7l0-2.1h11.6v2.9h-7.8v3.6h6.4L338.8,131.9z" fill="#820C16"></path>
</g>
<g id="name">
	<path id="Path_41" class="st1" d="M62.1,50.7c-4.7,0.9-5.2,1.3-5.2,7.6v7.5c-0.1,2.9,0.1,5.9,0.6,8.8c-6.9,1.9-14.1,3-21.3,3.4
		c-21.6,0-35.5-12.3-35.5-31.1c0-21.3,17.3-32.4,37-32.4c6.1,0.2,12.2,1.1,18.2,2.6c0.3,3.2,0.7,8.1,1.5,15.4l-3.5,0.7
		c-2.2-10.4-9.2-14.8-18-14.8c-11.2,0-20.9,10.1-20.9,26.9C14.8,59.3,21.7,74,37,74c1.8,0.1,3.6-0.3,5.2-1.1
		c1.4-0.8,2.1-2.3,2.1-5.2v-8.9c0-6.5-0.5-7.3-10.3-8.1v-3.3h28L62.1,50.7z" fill="#0F204C"></path>
	<rect id="Rectangle_90" x="97" y="0.3" class="st1" width="6" height="93.3" fill="#0F204C"></rect>
	<path id="Path_42" class="st1" d="M188.4,76.5v-3.3c7-0.7,7.5-1.4,7.5-10l-0.2-35.9h-0.5l-20.6,48.5H172l-19-47.6h-0.4l-1.1,24.3
		c-0.4,5-0.4,10,0,15c0.4,4.2,2.1,5,8.4,5.6v3.3h-22.5v-3.3c5.3-0.5,7-2,7.7-5.4c1-5.8,1.6-11.7,2-17.6l1.5-18.5
		c0.7-10.5,0.1-11.8-7.9-12.6v-3.3h19.3l17.9,40.9l18.3-40.9h18.8v3.3c-7.5,0.7-7.8,1.5-7.7,9.2l0.8,34.9c0.2,8.6,0.7,9.2,7.9,10
		v3.3L188.4,76.5z" fill="#0F204C"></path>
	<path id="Path_43" class="st1" d="M337,30.6c-0.6-2.9-1.9-5.7-3.8-8c-2-2.1-4.6-2.7-10-2.7h-4.8c-3.4,0-3.7,0.2-3.7,3.3v20.6h7.9
		c8.5,0,9.5-0.8,10.6-6.8h3.5v18.6H333c-1.1-6.3-2-7.1-10.6-7.1h-7.9v14.7c0,8.8,0.8,9.3,9.1,10v3.3h-29.8v-3.3
		c7-0.7,7.9-1.2,7.9-10V28.8c0-8.4-0.9-9-7.9-9.7v-3.3h45.4c0.1,1.6,0.6,8.8,1.1,14.3L337,30.6z" fill="#0F204C"></path>
	<rect id="Rectangle_91" x="251.4" y="0.2" class="st1" width="6" height="93.3" fill="#0F204C"></rect>
</g>
</svg>