<?xml version="1.0" encoding="UTF-8"?>
<svg xmlns="http://www.w3.org/2000/svg" width="158" height="41" viewBox="0 0 158 41" fill="none">
  <path d="M89.2365 30.5068V38.5928H91.4488C92.6668 38.5928 93.6611 38.2264 94.4317 37.4935C95.2023 36.7606 95.6 35.7835 95.6 34.5376C95.6 33.2917 95.2023 32.3146 94.4317 31.5817C93.6611 30.8488 92.642 30.4824 91.4488 30.4824H89.2365V30.5068ZM95.3763 38.2997C94.4068 39.228 93.1143 39.6921 91.4985 39.6921H87.9937V29.3586H91.4985C93.0894 29.3586 94.382 29.8228 95.3763 30.7511C96.3457 31.6794 96.8429 32.9497 96.8429 34.5132C96.8429 36.1255 96.3706 37.3714 95.3763 38.2997Z" fill="white"></path>
  <path d="M64.2555 38.7153C63.5098 37.8847 63.137 36.7854 63.137 35.393V29.3834H64.355V35.393C64.355 36.419 64.6035 37.2496 65.1255 37.8847C65.6476 38.5199 66.3684 38.813 67.3378 38.813C68.3073 38.813 69.053 38.4954 69.5502 37.8847C70.0722 37.2496 70.3207 36.419 70.3207 35.393V29.3834H71.5387V35.393C71.5387 36.761 71.1659 37.8847 70.4202 38.7153C69.6744 39.5459 68.6304 39.9612 67.313 39.9612C66.0204 39.9612 65.0013 39.5459 64.2555 38.7153Z" fill="white"></path>
  <path d="M141.96 22.1771C142.482 21.6152 142.756 20.9068 142.756 20.0274C142.756 19.1479 142.482 18.415 141.96 17.8776C141.438 17.3157 140.767 17.047 139.972 17.047C139.201 17.047 138.53 17.3157 138.008 17.8776C137.486 18.4395 137.213 19.1479 137.213 20.0274C137.213 20.9068 137.486 21.6397 138.008 22.1771C138.53 22.739 139.176 23.0077 139.972 23.0077C140.767 23.0077 141.438 22.7145 141.96 22.1771ZM136.119 23.8383C135.1 22.7878 134.603 21.5175 134.603 20.0029C134.603 18.4883 135.1 17.218 136.119 16.192C137.138 15.1415 138.406 14.6285 139.972 14.6285C141.538 14.6285 142.855 15.1415 143.849 16.192C144.869 17.2424 145.366 18.5128 145.366 20.0029C145.366 21.5175 144.869 22.7878 143.849 23.8383C142.83 24.8887 141.538 25.4017 139.972 25.4017C138.406 25.4262 137.113 24.8887 136.119 23.8383Z" fill="white"></path>
  <path d="M91.0284 22.1771C91.5504 21.6152 91.8238 20.9068 91.8238 20.0274C91.8238 19.1479 91.5504 18.415 91.0284 17.8776C90.5064 17.3402 89.8353 17.047 89.0398 17.047C88.2693 17.047 87.5981 17.3157 87.0761 17.8776C86.5541 18.4395 86.2807 19.1479 86.2807 20.0274C86.2807 20.9068 86.5541 21.6397 87.0761 22.1771C87.5981 22.739 88.2444 23.0077 89.0398 23.0077C89.8353 23.0077 90.5064 22.7145 91.0284 22.1771ZM85.187 23.8383C84.1678 22.7878 83.6707 21.5175 83.6707 20.0029C83.6707 18.4883 84.1678 17.218 85.187 16.192C86.2061 15.1415 87.4738 14.6285 89.0398 14.6285C90.6058 14.6285 91.9233 15.1415 92.9176 16.192C93.9367 17.2424 94.4339 18.5128 94.4339 20.0029C94.4339 21.5175 93.9367 22.7878 92.9176 23.8383C91.8984 24.8887 90.6058 25.4017 89.0398 25.4017C87.4987 25.4262 86.2061 24.8887 85.187 23.8383Z" fill="white"></path>
  <path d="M81.8563 8.52162C82.5771 7.71547 82.95 6.71388 82.95 5.51685C82.95 4.31983 82.5771 3.29381 81.8563 2.48766C81.1354 1.65707 80.166 1.26621 78.9728 1.26621C77.8045 1.26621 76.8351 1.6815 76.1391 2.48766C75.4182 3.31824 75.0702 4.31983 75.0702 5.51685C75.0702 6.71388 75.4182 7.71547 76.1391 8.52162C76.8599 9.32778 77.8045 9.74308 78.9728 9.74308C80.166 9.74308 81.1354 9.32778 81.8563 8.52162ZM75.2442 9.35221C74.2748 8.32619 73.8025 7.03145 73.8025 5.51685C73.8025 3.97783 74.2748 2.68309 75.2194 1.65707C76.1639 0.63105 77.4317 0.118042 78.9728 0.118042C80.5388 0.118042 81.8065 0.63105 82.7511 1.65707C83.6957 2.68309 84.168 3.97783 84.168 5.54128C84.168 7.08031 83.6957 8.35062 82.7511 9.37664C81.8065 10.4027 80.5388 10.9157 78.9728 10.9157C77.4317 10.8912 76.1888 10.3782 75.2442 9.35221Z" fill="white"></path>
  <path d="M88.8649 5.98113V9.52334H92.3201C93.041 9.52334 93.6127 9.37677 94.0601 9.05919C94.5075 8.76604 94.7313 8.30189 94.7313 7.71559C94.7313 7.17815 94.5075 6.76286 94.0601 6.46971C93.6127 6.17656 93.041 6.00556 92.3698 5.98113H88.8649ZM92.0467 1.43733H88.8649V4.8574H92.0467C92.7675 4.8574 93.3393 4.71082 93.7618 4.39325C94.1844 4.1001 94.3833 3.66038 94.3833 3.14737C94.3833 2.02363 93.6127 1.43733 92.0467 1.43733ZM94.9798 9.93863C94.3087 10.4272 93.4138 10.6471 92.2704 10.6471H87.6221V0.313599H92.0467C93.1901 0.313599 94.0601 0.557888 94.6815 1.02204C95.303 1.48619 95.6261 2.19463 95.6261 3.09851C95.6261 3.66037 95.477 4.12453 95.2035 4.51539C94.9301 4.90626 94.5324 5.17497 94.0104 5.34598V5.39484C94.607 5.54141 95.0793 5.81013 95.4273 6.22542C95.7753 6.64072 95.9493 7.15372 95.9493 7.76445C95.9741 8.74161 95.651 9.45005 94.9798 9.93863Z" fill="white"></path>
  <path d="M38.7015 18.1951H20.3071V21.9327H38.7015V18.1951Z" fill="#E6392F"></path>
  <path d="M20.3084 3.85533C11.2106 3.85533 3.82802 11.1352 3.82802 20.0518C3.82802 28.9928 11.2355 36.2482 20.3084 36.2482C29.4062 36.2482 36.7888 28.9684 36.7888 20.0518C36.8137 11.1108 29.4062 3.85533 20.3084 3.85533ZM20.3084 40.0103C9.12263 40.0103 0 31.0693 0 20.0518C0 9.05871 9.09777 0.0932617 20.3084 0.0932617C31.4942 0.0932617 40.6168 9.03428 40.6168 20.0518C40.6168 31.0448 31.5191 40.0103 20.3084 40.0103Z" fill="#E6392F"></path>
  <path d="M22.2221 1.97412H18.4189V38.1291H22.2221V1.97412Z" fill="#E6392F"></path>
  <path d="M65.126 10.6471V0.313599H66.344V9.52334H71.8126V10.6471H65.126Z" fill="white"></path>
  <path d="M100.747 7.25144H105.395L103.083 1.87706L100.747 7.25144ZM108.129 10.6471H106.861L105.867 8.35075H100.274L99.3048 10.6471H98.0371L102.536 0.313599H103.63L108.129 10.6471Z" fill="white"></path>
  <path d="M110.989 10.6471V0.313599H112.207V9.52334H117.676V10.6471H110.989Z" fill="white"></path>
  <path d="M54.8592 14.8483H52.3237V25.1817H54.8592V14.8483Z" fill="white"></path>
  <path d="M67.835 25.1817H65.8713L60.8501 19.1478V25.1817H58.3147V14.8483H60.2784L65.3245 20.7845V14.8483H67.835V25.1817Z" fill="white"></path>
  <path d="M80.8097 25.1817H78.8459L73.8247 19.1478V25.1817H71.2893V14.8483H73.253L78.2991 20.7845V14.8483H80.8097V25.1817Z" fill="white"></path>
  <path d="M95.8013 14.8483H98.5356L101.195 22.519L103.855 14.8483H106.589L102.587 25.1817H99.8282L95.8013 14.8483Z" fill="white"></path>
  <path d="M110.864 21.3708H113.524L112.182 17.5599L110.864 21.3708ZM117.576 25.1817H114.842L114.195 23.3251H110.168L109.522 25.1817H106.788L110.79 14.8483H113.549L117.576 25.1817Z" fill="white"></path>
  <path d="M117.973 14.8483H126.449V16.998H123.466V25.1817H120.931V16.998H117.973V14.8483Z" fill="white"></path>
  <path d="M131.744 14.8483H129.209V25.1817H131.744V14.8483Z" fill="white"></path>
  <path d="M157.571 25.1817H155.607L150.561 19.1478V25.1817H148.051V14.8483H150.015L155.061 20.7845V14.8483H157.571V25.1817Z" fill="white"></path>
  <path d="M59.1591 35.051H53.9143V39.7169H52.6714V29.3834H60.054V30.5072H53.9143V33.9272H59.1591V35.051Z" fill="white"></path>
  <path d="M84.0927 39.7169H83.2227L76.561 31.5332V39.7169H75.3181V29.3834H76.213L82.8747 37.5427V29.3834H84.0927V39.7169Z" fill="white"></path>
  <path d="M60.6016 6.12723H56.8978V5.0035H61.8444V5.73637C61.8444 7.32425 61.4219 8.57013 60.6016 9.49844C59.7813 10.4267 58.613 10.8909 57.1464 10.8909C55.5804 10.8909 54.3375 10.3779 53.3929 9.35186C52.4484 8.32584 51.9761 7.05553 51.9761 5.49208C51.9761 3.92862 52.4484 2.65831 53.4178 1.63229C54.3872 0.606271 55.655 0.0932617 57.221 0.0932617C57.6933 0.0932617 58.1655 0.14212 58.5881 0.239836C59.0107 0.337552 59.3587 0.435268 59.6321 0.581842C59.9056 0.703987 60.1293 0.850561 60.353 0.997136C60.5518 1.14371 60.7258 1.24143 60.8004 1.33914L60.9247 1.48572L60.2038 2.38959C60.1293 2.3163 60.005 2.19416 59.8558 2.07201C59.7067 1.94987 59.3587 1.77886 58.8367 1.559C58.3147 1.33914 57.7678 1.24143 57.1961 1.24143C56.003 1.24143 55.0335 1.65672 54.3127 2.46288C53.5918 3.29346 53.2189 4.29505 53.2189 5.49208C53.2189 6.6891 53.5669 7.71512 54.2878 8.52127C54.9838 9.32743 55.9532 9.74273 57.1215 9.74273C58.1655 9.74273 59.0107 9.42515 59.6321 8.76556C60.2784 8.10598 60.5767 7.25096 60.5767 6.17609L60.6016 6.12723Z" fill="white"></path>
</svg>
