<svg xmlns="http://www.w3.org/2000/svg" xml:space="preserve" style="fill-rule:evenodd;clip-rule:evenodd;stroke-linejoin:round;stroke-miterlimit:2" viewBox="0 0 399 48"><path d="M0 0h398.3v40H0z" style="fill:#fff" transform="matrix(1 0 0 1.2 0 0)"/><path d="M71.1 14.8V5.1h3.2v22.4h-3.2V18h-6.7v9.6h-3.2V5.1h3.2v9.6h6.7v.1ZM92.3 5.1v3.2h-8.7v6.4h6.7V18h-6.7v6.4h8.7v3.2H80.4V5.1h11.9ZM97.1 5.1h3.2v22.4h-3.2zM120.3 5.1v22.4h-2.6l-8.3-14.8v14.8h-3.2V5.1h2.6l8.3 14.7V5.1h3.2ZM132.8 5.1c3.5 0 6.4 2.9 6.4 6.4 0 3.5-1.8 5.2-4.5 6.1l5.1 9.9h-3.6l-4.8-9.6h-2.1v9.6h-3.2V5.1h6.7Zm-3.5 3.2v6.4h3.6c1.8-.1 3.1-1.6 3-3.4-.1-1.6-1.4-2.9-3-3h-3.6ZM144.7 5.1h3.2v22.4h-3.2zM153.4 11.2c0-3.6 2.9-6.4 6.4-6.4 3.5 0 6.4 2.9 6.4 6.4v1.3H163v-1.3c0-1.8-1.4-3.2-3.2-3.2-1.8 0-3.2 1.4-3.2 3.2v10.3c0 1.8 1.4 3.2 3.2 3.2 1.8 0 3.2-1.4 3.2-3.2v-1.3h3.2v1.3c0 3.6-2.9 6.4-6.4 6.4-3.5 0-6.4-2.9-6.4-6.4V11.2ZM181 14.8V5.1h3.2v22.4H181V18h-6.7v9.6h-3.2V5.1h3.2v9.6h6.7v.1ZM205.7 5.1c3.5 0 6.4 2.9 6.4 6.4.1 1.6-.6 3.2-1.7 4.4 1.7 1.2 2.8 3.1 2.7 5.2 0 3.5-2.9 6.4-6.4 6.4h-7.1V5.1h6.1Zm-2.9 3.2v6.4h2.9c1.8-.1 3.1-1.6 3-3.4-.1-1.6-1.4-2.9-3-3h-2.9Zm0 9.7v6.4h3.9c1.7.1 3.2-1.2 3.2-2.9v-.3c.1-1.7-1.2-3.1-2.9-3.1h-4.2V18ZM223.4 4.8c3.9 0 7 3.2 7.1 7.1v9c-.1 3.9-3.4 6.9-7.3 6.8-3.7-.1-6.7-3.1-6.8-6.8v-9c0-3.9 3.1-7.1 7-7.1ZM219.8 0c1.1 0 1.9.9 1.9 1.9 0 1-.9 1.9-1.9 1.9-1 0-1.9-.9-1.9-1.9 0-1 .9-1.9 1.9-1.9Zm3.6 24.7c2.1 0 3.8-1.7 3.9-3.9v-9c-.1-2.1-1.9-3.8-4-3.6-2 .1-3.5 1.7-3.6 3.6v9c-.2 2.2 1.5 3.9 3.7 3.9ZM226.6 0c1.1 0 1.9.9 1.9 1.9.1 1.1-.7 2-1.8 2.1-1.1.1-2-.7-2.1-1.8v-.3c0-1 .9-1.9 2-1.9ZM238.1 5.1v19.2h8.6v3.2h-11.9V5.1h3.3ZM253.8 5.1v19.2h8.7v3.2h-11.9V5.1h3.2ZM280.7 4.8c2.7 0 5.1 1.6 6.4 3.8l-2.8 1.5c-.7-1.3-2.1-2.1-3.6-2.1-2.3 0-3.5 1.1-3.5 2.6s1 2.6 3.2 3.6l3.1 1.5c2.4 1.1 4 3.4 4 6.1-.2 3.5-3.2 6.3-6.7 6.1-3.9 0-6.3-3.1-7.4-5.5l2.6-1.5c1.1 2.2 2.5 3.8 4.7 3.8s3.5-1.5 3.5-2.9-.9-2.5-2.9-3.6l-3.1-1.5c-2.5-1-4.2-3.4-4.2-6.1 0-3.4 2.9-5.8 6.7-5.8ZM303.5 5.1v3.2H298v19.2h-3.2V8.3h-5.5V5.1h14.2ZM307.3 5.1h3.2v22.4h-3.2zM327.5 5.1v3.2h-8.6v6.4h6.7V18h-6.7v9.6h-3.2V5.1h11.8ZM343.9 5.1v3.2h-5.5v19.2h-3.2V8.3h-5.5V5.1h14.2ZM361.5 5.1v15.7c-.1 3.9-3.4 6.9-7.3 6.8-3.7-.1-6.7-3.1-6.8-6.8V5.1h3.2v15.7c-.1 2.1 1.5 3.9 3.6 4 2.1.1 3.9-1.5 4-3.6V5.1h3.3ZM379.8 5.1v22.4h-2.6l-8.3-14.8v14.8h-3.2V5.1h2.6l8.3 14.8V5.1h3.2ZM383.9 11.9c.1-3.9 3.4-6.9 7.3-6.8 3.7 0 6.7 3.1 6.8 6.8v.6h-3.2v-.6c0-2.1-1.7-3.9-3.9-3.9s-3.9 1.7-3.9 3.9v9c0 2.1 1.7 3.9 3.9 3.9s3.9-1.7 3.9-3.9V18h-4.2v-3.2h7.3v6.1c-.1 3.9-3.4 6.9-7.3 6.8-3.7-.1-6.7-3.1-6.8-6.8v-9h.1Z" style="fill:#181716;fill-rule:nonzero" transform="translate(0 9.9)"/><path d="M31.7 4.1h13.1v23.8H31.7z" style="fill:#b2d84c" transform="translate(0 9.9)"/><path d="M15.3 4.1h13.1v23.8H15.3z" style="fill:#91c800" transform="translate(0 9.9)"/><path d="M-1 4.1h13.1v23.8H-1z" style="fill:#deeeb2" transform="translate(0 9.9)"/></svg>