<?xml version="1.0" encoding="utf-8"?>
<!-- Generator: Adobe Illustrator 22.1.0, SVG Export Plug-In . SVG Version: 6.00 Build 0)  -->
<svg version="1.1" id="Layer_1" xmlns="http://www.w3.org/2000/svg" xmlns:xlink="http://www.w3.org/1999/xlink" x="0px" y="0px"
	 viewBox="0 0 151.9 53.2" style="enable-background:new 0 0 151.9 53.2;" xml:space="preserve">

<path fill="#28147D" d="M60.8,10.2V4.6h-0.1L58.4,10h-0.9l-2.3-5.4h-0.1v5.6H54V2.4h1.4l2.5,5.9H58l2.5-5.9h1.4v7.8
	C61.9,10.2,60.8,10.2,60.8,10.2z"/>
<path fill="#28147D" d="M64.9,10.2V2.4h1.2v7.8C66.1,10.2,64.9,10.2,64.9,10.2z"/>
<path fill="#28147D" d="M74.7,5.8l2.8-3.4h1.4l-3.2,3.8l3.5,4h-1.5l-3-3.4h-0.3v3.4h-1.2V6.7h-0.3l-3,3.4h-1.5l3.4-4l-3.2-3.8H70
	l2.8,3.4h0.3V2.4h1.2v3.4H74.7z"/>
<path fill="#28147D" d="M86.7,10.2V6.8h-4v3.4h-1.2V2.4h1.2v3.3h4V2.4h1.2v7.8C87.9,10.2,86.7,10.2,86.7,10.2z"/>
<path fill="#28147D" d="M95.2,8.1h-3l-0.7,2.1h-1.2l2.8-7.8h1.3l2.8,7.8h-1.3L95.2,8.1z M92.6,7.1h2.3l-1.1-3.3h-0.1L92.6,7.1z"/>
<path fill="#28147D" d="M102.7,2.4c1.5,0,2.6,1,2.6,2.6c0,1.5-1.1,2.6-2.6,2.6h-1.8v2.6h-1.2V2.4H102.7z M100.8,6.5h1.5
	c1,0,1.6-0.5,1.6-1.5s-0.6-1.5-1.6-1.5h-1.5V6.5z"/>
<path fill="#28147D" d="M114.8,6.3c0,2.5-1.4,4.1-3.6,4.1c-2.3,0-3.6-1.6-3.6-4.1s1.4-4.1,3.6-4.1C113.4,2.2,114.8,3.8,114.8,6.3z
	 M108.8,6.3c0,1.8,0.9,2.9,2.4,2.9s2.4-1.2,2.4-2.9c0-1.8-0.9-2.9-2.4-2.9S108.8,4.5,108.8,6.3z"/>
<path fill="#28147D" d="M117.6,11.7h-1.1V9.1h0.6c0.6-0.3,0.7-1,0.8-2l0.3-4.6h5.1v6.7h1v2.6h-1.1v-1.5h-5.6V11.7z M118.5,9L118.5,9
	l3.6,0.1V3.5h-2.9L119,7.1C118.9,8,118.8,8.6,118.5,9z"/>
<path fill="#28147D" d="M131.9,10.2V6.8h-4v3.4h-1.2V2.4h1.2v3.3h4V2.4h1.2v7.8C133.1,10.2,131.9,10.2,131.9,10.2z"/>
<path fill="#28147D" d="M141.3,4.5L141.3,4.5l-4,5.7h-1.2V2.4h1.2v5.7h0.1l3.9-5.7h1.2v7.8h-1.2V4.5z"/>
<path fill="#28147D" d="M150.7,4.5L150.7,4.5l-4,5.7h-1.2V2.4h1.2v5.7h0.1l3.9-5.7h1.2v7.8h-1.2V4.5z M147.8,0c0,0.6,0.4,0.9,1,0.9
	c0.5,0,0.9-0.4,1-0.9h1c0,1-0.8,1.7-1.9,1.7c-1.1,0-1.9-0.6-1.9-1.7H147.8z"/>
<path fill="#28147D" d="M53.6,26.3c0-2,1.4-3.1,3.5-3.2v-0.8h1.2v0.8c2.1,0.1,3.5,1.2,3.5,3.2s-1.4,3.1-3.5,3.2v0.8h-1.2v-0.8
	C55,29.4,53.6,28.2,53.6,26.3z M57.1,24.1c-1.4,0.1-2.3,0.8-2.3,2.1c0,1.3,0.9,2.1,2.3,2.1V24.1z M58.3,24.1v4.3
	c1.4-0.1,2.3-0.8,2.3-2.1C60.6,25,59.7,24.2,58.3,24.1z"/>
<path fill="#28147D" d="M71.4,26.3c0,2.5-1.4,4.1-3.6,4.1c-2.3,0-3.6-1.6-3.6-4.1s1.4-4.1,3.6-4.1C70,22.2,71.4,23.8,71.4,26.3z
	 M65.4,26.3c0,1.8,0.9,2.9,2.4,2.9s2.4-1.2,2.4-2.9c0-1.8-0.9-2.9-2.4-2.9S65.4,24.5,65.4,26.3z"/>
<path fill="#28147D" d="M79.3,30.2v-3.4h-4v3.4h-1.2v-7.8h1.2v3.3h4v-3.3h1.2v7.8H79.3z"/>
<path fill="#28147D" d="M83.8,31.7h-1.1v-2.6h0.6c0.6-0.3,0.7-1,0.8-2l0.3-4.6h5.1v6.7h1v2.6h-1.1v-1.5h-5.6
	C83.8,30.3,83.8,31.7,83.8,31.7z M84.7,29L84.7,29l3.6,0.1v-5.6h-2.9l-0.2,3.6C85.2,28,85,28.6,84.7,29z"/>
<path fill="#28147D" d="M54,50.2v-7.8h3.1c1.5,0,2.3,0.7,2.3,1.9c0,0.8-0.6,1.5-1.4,1.7v0.1c1,0.1,1.7,0.9,1.7,1.9c0,1.4-1,2.2-2.6,2.2
	C57.1,50.2,54,50.2,54,50.2z M55.2,45.7h1.4c1.1,0,1.6-0.4,1.6-1.1c0-0.7-0.5-1.1-1.4-1.1h-1.6C55.2,43.5,55.2,45.7,55.2,45.7z
	 M57,49.1c1.1,0,1.7-0.4,1.7-1.3c0-0.8-0.6-1.2-1.7-1.2h-1.7v2.5H57z"/>
<path fill="#28147D" d="M62.5,50.2v-7.8h1.2v7.8H62.5z"/>
<path fill="#28147D" d="M67,51.7h-1.1v-2.6h0.6c0.6-0.3,0.7-1,0.8-2l0.3-4.6h5.1v6.7h1v2.6h-1.1v-1.5H67V51.7z M67.9,49L67.9,49
	l3.6,0.1v-5.6h-2.9l-0.2,3.6C68.4,48,68.3,48.6,67.9,49z"/>
<path fill="#28147D" d="M79.1,42.4c1.5,0,2.6,1,2.6,2.6c0,1.5-1.1,2.6-2.6,2.6h-1.8v2.6h-1.2v-7.8C76.1,42.4,79.1,42.4,79.1,42.4z
	 M77.3,46.5h1.5c1,0,1.6-0.5,1.6-1.5s-0.6-1.5-1.6-1.5h-1.5V46.5z"/>
<path fill="#28147D" d="M91.2,46.3c0,2.5-1.4,4.1-3.6,4.1c-2.3,0-3.6-1.6-3.6-4.1s1.4-4.1,3.6-4.1C89.8,42.2,91.2,43.8,91.2,46.3z
	 M85.2,46.3c0,1.8,0.9,2.9,2.4,2.9S90,48,90,46.3c0-1.8-0.9-2.9-2.4-2.9S85.2,44.5,85.2,46.3z"/>
<path fill="#28147D" d="M94.1,51.7H93v-2.6h0.6c0.6-0.3,0.7-1,0.8-2l0.3-4.6h5.1v6.7h1v2.6h-1.1v-1.5h-5.6
	C94.1,50.3,94.1,51.7,94.1,51.7z M94.9,49L94.9,49l3.6,0.1v-5.6h-2.9l-0.2,3.6C95.4,48,95.3,48.6,94.9,49z"/>
<path fill="#28147D" d="M108.8,45.8l2.8-3.4h1.4l-3.2,3.8l3.5,4h-1.5l-3-3.4h-0.3v3.4h-1.2v-3.4H107l-3,3.4h-1.5l3.4-4l-3.2-3.8h1.4
	l2.8,3.4h0.3v-3.4h1.2v3.4H108.8z"/>
<path fill="#28147D" d="M120.5,50.2h-4.9v-7.8h4.9v1.1h-3.7v2.2h3.5v1h-3.5V49h3.7V50.2z"/>
<path fill="#28147D" d="M128.5,50.2v-3.4h-4v3.4h-1.2v-7.8h1.2v3.3h4v-3.3h1.2v7.8H128.5z"/>
<path fill="#28147D" d="M138,50.2v-3.4h-4v3.4h-1.2v-7.8h1.2v3.3h4v-3.3h1.2v7.8H138z"/>
<path fill="#28147D" d="M144.3,50.2h-1.4l2.2-3.1c-1.1-0.3-1.8-1.1-1.8-2.3c0-1.4,1.1-2.4,2.6-2.4h3v7.8h-1.2v-2.9h-1.4L144.3,50.2z
	 M147.7,43.5h-1.5c-1,0-1.6,0.5-1.6,1.4s0.6,1.4,1.6,1.4h1.5V43.5z"/>
<path fill="#28147D" d="M15,53.2H0v-52h15V53.2z M2,51.2h11v-48H2V51.2z"/>
<path fill="#28147D" d="M29.8,53.2c-6.7,0-12.2-5.5-12.2-12.3s5.5-12.3,12.2-12.3S42,34.1,42,40.9C42,47.6,36.5,53.2,29.8,53.2z
	 M29.8,30.6c-5.6,0-10.2,4.6-10.2,10.3s4.6,10.3,10.2,10.3S40,46.6,40,40.9S35.4,30.6,29.8,30.6z"/>
<path fill="#28147D" d="M29.8,25.7c-0.4,0-0.8,0-1.1-0.1C22,25,17,19.1,17.6,12.3C17.9,9.1,19.5,6.1,22,4s5.7-3.1,8.9-2.8
	C37.6,1.8,42.6,7.8,42,14.5c-0.3,3.3-1.8,6.2-4.4,8.3C35.4,24.7,32.7,25.7,29.8,25.7z M29.8,3.2c-2.4,0-4.7,0.8-6.5,2.3
	c-2.1,1.8-3.4,4.2-3.6,7c-0.6,5.6,3.6,10.6,9.2,11.2c2.7,0.3,5.4-0.6,7.4-2.3c2.1-1.8,3.4-4.2,3.7-7c0.5-5.6-3.6-10.6-9.3-11.2l0,0
	C30.4,3.2,30.1,3.2,29.8,3.2z"/>
<path id="Fill-7" fill="#28147D" d="M30.8,13.4c0,0.5-0.4,1-1,1c-0.5,0-1-0.4-1-1c0-0.5,0.4-1,1-1C30.3,12.5,30.8,12.9,30.8,13.4"/>
<path fill="#28147D" d="M29.8,21.8c-0.3,0-0.5,0-0.8,0c-4.6-0.4-7.9-4.5-7.5-9.1c0.2-2.2,1.3-4.2,3-5.7c1.7-1.4,3.9-2.1,6.1-1.9l0,0
	c4.6,0.4,7.9,4.5,7.5,9.1c-0.2,2.2-1.3,4.2-3,5.7C33.6,21.1,31.8,21.8,29.8,21.8z M29.8,7.1c-1.5,0-2.9,0.5-4,1.5
	c-1.3,1.1-2.1,2.6-2.2,4.3c-0.3,3.5,2.3,6.6,5.7,6.9c1.7,0.2,3.3-0.4,4.6-1.4c1.3-1.1,2.1-2.6,2.3-4.3c0.3-3.5-2.2-6.6-5.7-6.9
	C30.2,7.1,30,7.1,29.8,7.1z"/>
<path fill="#28147D" d="M29.8,17.9c-0.1,0-0.3,0-0.4,0c-2.4-0.2-4.2-2.4-4-4.8c0.1-1.2,0.7-2.2,1.6-3s2.1-1.1,3.2-1
	c2.4,0.2,4.2,2.4,4,4.8c-0.1,1.2-0.7,2.2-1.6,3C31.8,17.5,30.8,17.9,29.8,17.9z M29.8,11c-0.6,0-1.1,0.2-1.5,0.6
	c-0.5,0.4-0.8,1-0.9,1.6c-0.1,1.3,0.9,2.5,2.2,2.6c0.6,0.1,1.3-0.1,1.8-0.6c0.5-0.4,0.8-1,0.9-1.6c0.1-1.3-0.9-2.5-2.2-2.6l0,0
	C29.9,11,29.9,11,29.8,11z"/>
</svg>
