<svg xmlns="http://www.w3.org/2000/svg" width="156" height="28" viewBox="0 0 156 28" fill="none">
<path fill-rule="evenodd" clip-rule="evenodd" d="M15.2773 0.125244V13.9998L27.6162 0.125244H29.996V13.9998L42.3349 0.125244H44.7146V27.8756H29.9959V13.9999L17.657 27.8756H15.2773V13.9999L2.93833 27.8756H0.558594V0.125244H15.2773ZM73.5928 0.125244L64.103 25.9925V0.125244H56.4524V27.8756H71.0639L80.5538 2.00837V27.8756H88.2055V0.125244H73.5928ZM108.243 0.125244H92.436V27.8744H100.555V20.2923H108.386C115.822 20.2923 120.133 16.4449 120.133 9.98411V9.87269C120.133 3.52335 115.679 0.125244 108.243 0.125244ZM107.847 14.1306H100.555V6.32442H107.883C110.792 6.32442 111.942 7.93023 111.942 10.0216V10.0967C111.942 12.6738 110.684 14.1306 107.847 14.1306ZM131.34 25.9925L140.831 0.125244H155.443V27.8756H147.791V2.00837L138.301 27.8756H123.69V0.125244H131.34V25.9925Z" fill="black"/>
</svg>