<svg width="130" height="47" viewBox="0 0 130 47" fill="none" xmlns="http://www.w3.org/2000/svg">
<path d="M21.8167 19.594H21.6054C21.2885 19.6998 20.866 19.4883 20.5491 19.2768C20.3378 18.748 20.2322 18.1134 20.2322 17.4789C20.2322 17.3732 20.2322 17.2674 20.2322 17.2674V4.89396C20.2322 4.68244 20.2322 4.36517 20.2322 4.04791C20.2322 3.62488 20.2322 3.20186 20.4434 2.88459C20.6547 2.67308 20.866 2.67308 21.0772 2.67308H21.4998C21.8167 2.67308 22.3448 2.56732 22.3448 2.03855C22.3448 1.93279 22.2392 1.72128 22.1336 1.72128C22.0279 1.61552 21.9223 1.61552 21.8167 1.61552C21.711 1.61552 21.4998 1.61552 21.3941 1.61552H18.2251C17.9082 1.50977 17.4857 1.72128 17.38 2.03855L11.6758 15.7868L6.60544 2.46157C6.39417 2.03854 6.39417 1.50977 5.76037 1.50977H2.48572C2.38009 1.50977 2.27445 1.50977 2.06318 1.50977C1.95755 1.50977 1.85192 1.50977 1.74628 1.61552C1.64065 1.72128 1.53501 1.82703 1.53501 2.03855C1.53501 2.56732 2.06319 2.67308 2.38009 2.67308C2.80262 2.67308 3.22516 2.67308 3.54206 2.77884C3.75332 2.88459 3.75333 3.0961 3.75333 3.51913C3.75333 3.73064 3.75333 3.94215 3.75333 4.15366L2.80262 17.3732C2.69699 18.8537 2.69699 19.4883 1.21811 19.4883C1.00684 19.4883 0.373047 19.4883 0.373047 20.017C0.373047 20.2286 0.478681 20.3343 0.584315 20.4401C0.689949 20.5458 0.79558 20.5458 1.00684 20.5458C1.85191 20.5458 2.69699 20.4401 3.54206 20.4401C4.38713 20.4401 5.2322 20.5458 6.07727 20.5458C6.1829 20.5458 6.39417 20.5458 6.4998 20.5458C6.71107 20.5458 6.8167 20.3343 6.8167 20.1228C6.8167 19.594 6.1829 19.594 5.866 19.594H5.76037C4.28149 19.594 3.96459 18.748 3.96459 17.4789C3.96459 17.1616 3.96459 16.8444 3.96459 16.4213L4.80966 4.25942L10.4082 19.2768C10.5138 19.4883 10.5138 19.9113 10.9364 19.9113C11.3589 19.9113 11.3589 19.4883 11.4646 19.2768L17.6969 3.94215V17.2674C17.6969 17.3732 17.6969 17.4789 17.6969 17.5847C17.6969 18.1134 17.5913 18.9595 17.2744 19.171C16.8519 19.3825 16.4293 19.594 16.0068 19.594H15.7955C15.4786 19.594 15.0561 19.594 14.9505 20.1228C14.9505 20.6516 15.373 20.6516 15.5843 20.6516C16.7462 20.6516 17.9082 20.5458 18.9646 20.5458C19.9153 20.5458 20.7603 20.6516 21.711 20.6516C21.9223 20.6516 22.3448 20.6516 22.3448 20.1228C22.5561 19.6998 22.0279 19.594 21.8167 19.594Z" fill="#0969B1"/>
<path d="M35.9715 18.2187C35.7602 18.2187 35.5489 18.4302 35.4433 18.6417C35.232 18.8532 34.9151 18.959 34.7039 18.959C34.2813 18.959 34.0701 18.6417 33.8588 18.2187C33.7531 17.7956 33.7532 17.3726 33.7532 16.8438V9.96971C33.7532 9.7582 33.7532 9.54668 33.7532 9.44093C33.8588 8.80639 33.5419 8.17186 33.1193 7.74884C32.2743 7.22006 31.3236 6.90279 30.3729 7.00854C28.3658 7.00854 26.4644 7.74884 24.9855 9.01791C24.2461 9.54669 23.8236 10.287 23.7179 11.133C23.7179 11.2388 23.7179 11.4503 23.9292 11.556C23.9292 11.556 24.0348 11.6618 24.1405 11.6618C24.563 11.6618 25.0912 11.4503 25.5137 11.2388C25.9362 11.0273 26.2532 10.6042 26.3588 10.1812C26.9926 8.70064 27.8377 7.85459 29.6334 7.85459C31.4292 7.85459 31.3236 8.91215 31.4292 10.287V11.556C31.4292 12.7194 31.5348 12.5079 30.3729 13.0366L28.0489 14.0942C26.4644 14.8345 23.6123 16.1036 23.6123 18.3244C23.6123 19.9108 25.0912 20.7568 26.5701 20.7568C27.732 20.7568 28.894 20.3338 29.9503 19.5935C30.3729 19.2762 30.7954 19.0647 31.0067 18.8532L31.3236 18.6417L31.4292 18.5359C31.7461 18.8532 31.9574 20.5453 33.4362 20.5453C34.2813 20.4395 35.0208 20.228 35.6546 19.6993C35.8658 19.4877 36.394 19.1705 36.4996 18.6417C36.4996 18.5359 36.4996 18.4302 36.394 18.4302C36.1827 18.2187 36.0771 18.2187 35.9715 18.2187ZM28.3658 14.8345L31.0067 13.4597C31.1123 13.4597 31.2179 13.3539 31.2179 13.3539C31.2179 13.3539 31.2179 13.3539 31.2179 13.4597C31.2179 13.5654 31.2179 13.6712 31.2179 13.7769C31.2179 13.8827 31.2179 13.9884 31.2179 14.0942V15.7863C31.3236 16.5266 31.1123 17.3726 30.4785 17.9014C29.7391 18.6417 28.7884 18.959 27.8377 19.0647C26.7813 19.0647 25.9362 18.5359 25.9362 17.4784C26.2532 16.2093 27.3095 15.469 28.3658 14.8345Z" fill="#0969B1"/>
<path d="M48.6474 17.6904C48.4361 17.6904 48.2248 18.0077 48.1192 18.1134C47.2741 18.9595 46.1122 19.3825 44.9502 19.3825C41.8868 19.3825 39.7741 16.4214 39.7741 13.5659C39.7741 11.7681 40.5136 10.1818 41.7812 8.91268C42.5206 8.27815 43.577 7.85512 44.5277 7.74937C45.4784 7.85512 46.4291 8.3839 46.8516 9.33571C47.3798 10.076 47.6967 10.922 48.3305 10.922C48.8586 10.922 48.8586 10.2875 48.8586 9.97024C48.8586 9.65297 48.8586 9.44146 48.8586 9.33571C48.8586 9.22995 48.8586 9.01844 48.8586 8.70117C48.8586 8.3839 48.753 8.06664 48.5417 7.96088C47.4854 7.32634 46.2178 6.90332 44.9502 6.90332C41.0417 6.90332 37.4502 10.076 37.4502 14.0947C37.4502 16.6329 38.9291 18.9595 41.1474 20.0171C43.3657 21.0746 46.1122 20.7573 48.1192 19.2768C48.3305 19.0652 48.9643 18.5365 48.9643 18.1134C48.9643 18.0077 48.9643 17.9019 48.8586 17.9019C48.753 17.9019 48.753 17.6904 48.6474 17.6904Z" fill="#0969B1"/>
<path d="M67.0281 19.5937C65.7605 19.5937 65.2324 18.0074 64.8098 16.8441L59 2.24977C58.8943 2.14401 58.8943 1.61523 58.4718 1.61523C58.0493 1.61523 57.9436 2.14401 57.838 2.35553L52.345 16.9498C52.1338 17.6901 51.7112 18.5362 51.2887 19.1707C50.8662 19.5937 50.4436 19.6995 49.9155 19.5937C49.7042 19.5937 48.9648 19.5937 48.9648 20.1225C48.9648 20.5455 49.3873 20.6513 49.5986 20.6513C49.8098 20.6513 50.0211 20.6513 50.1267 20.6513C50.9718 20.6513 51.7112 20.5455 52.5563 20.5455C53.4014 20.5455 54.1408 20.6513 54.9859 20.6513C55.1971 20.6513 55.3028 20.6513 55.5141 20.5455C55.7253 20.5455 55.831 20.334 55.831 20.1225C55.831 19.5937 55.3028 19.5937 55.0915 19.5937H54.9859C54.5633 19.5937 54.2464 19.5937 53.8239 19.488C53.4014 19.3822 53.1901 19.1707 53.1901 18.7477C53.1901 18.2189 53.4014 17.6901 53.6126 17.1613L54.4577 14.9405C54.9859 13.8829 54.5633 13.8829 55.7253 13.8829H59.6338C60.3732 13.8829 60.5845 13.8829 60.6901 13.9887C60.9014 14.4117 61.1126 14.8347 61.2183 15.2577L62.169 17.4786C62.3802 17.9016 62.4859 18.4304 62.5915 18.8534C62.5915 19.1707 62.3802 19.3822 62.0633 19.488C61.6408 19.5937 61.3239 19.5937 60.9014 19.5937C60.6901 19.5937 59.9507 19.5937 59.9507 20.1225C59.9507 20.5455 60.3732 20.5455 60.5845 20.5455C61.6408 20.5455 62.6972 20.4398 63.7535 20.4398C65.0211 20.4398 66.2887 20.5455 67.5563 20.5455C67.6619 20.5455 68.0845 20.5455 68.0845 20.1225C67.9788 19.5937 67.345 19.6995 67.0281 19.5937ZM57.6267 6.37425C57.7324 6.58576 57.838 6.90303 57.9436 7.11454L59.845 12.0851C59.845 12.2966 60.0563 12.6138 60.0563 12.7196C60.0563 12.8254 60.0563 12.7196 59.9507 12.8254C59.845 12.8254 59.7394 12.8254 59.6338 12.8254H56.0422C55.9366 12.8254 55.7253 12.8254 55.5141 12.8254C55.6197 12.7196 55.4084 12.7196 55.3028 12.7196C55.3028 12.6138 55.3028 12.5081 55.4084 12.4023L57.4155 7.11454C57.4155 7.00878 57.5211 6.79727 57.6267 6.58576C57.5211 6.58576 57.6267 6.48001 57.6267 6.37425Z" fill="#0969B1"/>
<path d="M77.9085 7.22059C76.9578 7.22059 76.1128 7.64361 75.479 8.3839C75.1621 8.70117 74.9508 9.01844 74.7395 9.12419C74.5283 9.33571 74.5283 9.33571 74.5283 9.33571C74.5283 9.22995 74.5283 9.22995 74.5283 9.12419C74.5283 9.01844 74.5283 8.91268 74.5283 8.91268V7.4321C74.5283 7.32634 74.5283 7.22059 74.4226 7.11483C74.317 7.00908 74.2114 6.90332 74.1057 6.90332C73.7888 6.90332 73.5776 7.22059 73.4719 7.32634C72.8381 7.96088 71.9931 8.48966 71.148 8.80693C70.9367 8.91268 70.4085 8.91268 70.4085 9.44146C70.4085 9.75873 70.7254 9.86449 70.9367 9.86449H71.3592C71.5705 9.86449 71.9931 9.86449 72.0987 10.076C72.31 10.6048 72.4156 11.1336 72.31 11.6623V17.4789C72.31 17.7962 72.31 18.1134 72.31 18.325C72.31 19.0652 72.2043 19.594 71.148 19.6998C70.9367 19.6998 70.8311 19.6998 70.6198 19.8055C70.4085 19.8055 70.1973 20.0171 70.1973 20.3343C70.1973 20.6516 70.5142 20.7573 70.7254 20.7573C71.6762 20.7573 72.5212 20.6516 73.4719 20.6516C74.4226 20.6516 75.2677 20.7573 76.2184 20.7573C76.324 20.7573 76.4297 20.7573 76.5353 20.6516C76.6409 20.5458 76.6409 20.4401 76.6409 20.3343C76.6409 19.8055 76.0071 19.8055 75.6902 19.8055C74.5283 19.6998 74.5283 19.2768 74.5283 18.4307C74.5283 18.1134 74.5283 17.9019 74.5283 17.5847V12.9314C74.5283 12.8256 74.5283 12.7199 74.5283 12.7199C74.4226 11.7681 74.7395 10.922 75.1621 10.1818C75.479 9.75873 76.0071 9.12419 76.5353 9.22995C77.0635 9.22995 77.2747 10.2875 78.3311 10.3933C78.648 10.3933 79.0705 10.2875 79.2818 9.97024C79.4931 9.65297 79.7043 9.33571 79.7043 9.01844C79.7043 8.59541 79.493 8.17239 79.1761 7.85512C78.7536 7.32634 78.3311 7.22059 77.9085 7.22059Z" fill="#0969B1"/>
<path d="M86.7815 18.4303C86.5702 18.4303 86.3589 18.7476 86.042 18.9591C85.7251 19.2764 85.3026 19.3821 84.88 19.3821C84.2462 19.3821 83.7181 18.9591 83.6124 18.3246C83.4012 17.69 83.2955 17.0555 83.2955 16.3152V9.22956C83.2955 8.70078 83.4012 8.80653 83.7181 8.70078H84.2462H85.8308H86.3589C86.4646 8.70078 86.6758 8.70077 86.7815 8.59501C86.8871 8.48926 86.8871 8.27775 86.8871 8.172C86.8871 8.06624 86.8871 7.96048 86.8871 7.85472C86.7815 7.74896 86.6758 7.64321 86.5702 7.64321H83.8237C83.5068 7.64321 83.5068 7.53745 83.5068 7.22018V5.31658C83.5068 5.21082 83.5068 4.89355 83.1899 4.89355C82.9786 4.89355 82.873 4.99931 82.7674 5.21082C82.2392 6.37414 81.2885 7.32594 80.2322 7.96048C80.1265 8.06623 79.8096 8.17199 79.8096 8.48925C79.8096 8.80652 80.2322 8.80652 80.4434 8.91228C80.6547 8.91228 80.7603 8.91228 80.7603 8.91228H81.0772C81.3941 8.91228 81.2885 8.80653 81.2885 9.33531V16.4209C81.2885 16.6325 81.2885 16.9497 81.2885 17.267C81.1829 18.2188 81.3941 19.1706 81.9223 20.0166C82.4505 20.5454 83.1899 20.8627 83.9293 20.8627C84.88 20.8627 85.8308 20.4397 86.5702 19.8051C86.8871 19.5936 87.0984 19.2764 87.204 18.9591C86.9927 18.5361 86.8871 18.4303 86.7815 18.4303Z" fill="#0969B1"/>
<path d="M101.992 19.6994C100.936 19.5937 100.83 19.1707 100.83 18.4304C100.83 18.2189 100.83 17.9016 100.83 17.5843V12.8253C100.83 11.5562 100.83 10.0756 99.9857 9.01809C99.1406 8.06629 97.9786 7.53751 96.711 7.64326C95.1265 7.53751 93.6476 8.2778 92.5913 9.44111C92.5913 9.44111 92.38 9.65262 92.38 9.54687C92.38 9.54687 92.2744 9.54687 92.2744 9.33536V1.0864C92.2744 0.980641 92.2744 0.874886 92.2744 0.76913C92.1688 0.663374 92.0631 0.557617 91.9575 0.557617C91.7462 0.557617 91.4293 0.769128 91.3237 0.874884C90.5843 1.29791 89.7392 1.61518 88.8941 1.72093C88.6828 1.72093 88.3659 1.82669 88.3659 2.14396C88.3659 2.46122 88.6828 2.56698 88.8941 2.56698H89.1054C89.9505 2.56698 90.0561 3.09576 90.0561 3.83605C90.0561 4.15332 90.0561 4.36483 90.0561 4.6821V17.4786C90.0561 17.7958 90.0561 18.1131 90.0561 18.3246C90.0561 19.0649 89.9505 19.4879 88.8941 19.5937C88.6828 19.5937 88.5772 19.5937 88.3659 19.5937C88.1547 19.5937 87.9434 19.8052 87.9434 20.0167C87.9434 20.334 88.2603 20.4397 88.4716 20.4397C89.3167 20.4397 90.2674 20.334 91.1124 20.334C91.9575 20.334 92.8026 20.4397 93.7533 20.4397C93.8589 20.4397 93.9645 20.4397 94.0702 20.334C94.1758 20.2282 94.2814 20.1225 94.2814 20.0167C94.2814 19.4879 93.6476 19.5937 93.4364 19.4879C92.38 19.3822 92.2744 18.9591 92.2744 18.2189C92.2744 18.0073 92.2744 17.6901 92.2744 17.3728V12.2965C92.2744 11.1332 92.2744 10.6044 93.1195 9.75838C93.7533 9.01809 94.8096 8.59507 95.7603 8.59507C96.711 8.48931 97.6617 9.01809 98.2955 9.75838C98.7181 10.6044 98.8237 11.5562 98.7181 12.508V17.3728C98.7181 17.6901 98.7181 18.0073 98.7181 18.2189C98.7181 18.9591 98.6124 19.3822 97.5561 19.4879C97.3448 19.4879 97.2392 19.4879 97.0279 19.4879C96.8167 19.4879 96.6054 19.6994 96.6054 19.9109C96.6054 20.2282 96.9223 20.334 97.1336 20.334C97.9786 20.334 98.9293 20.2282 99.7744 20.2282C100.619 20.2282 101.464 20.334 102.415 20.334C102.521 20.334 102.626 20.334 102.732 20.2282C102.837 20.1225 102.837 20.0167 102.837 19.9109C102.837 19.6994 102.204 19.8052 101.992 19.6994Z" fill="#0969B1"/>
<path d="M118.26 19.3821H117.838H117.626C116.887 19.3821 116.887 19.0649 116.887 18.3246C116.887 18.1131 116.887 17.7958 116.887 17.5843V8.91231C116.887 8.80656 116.887 8.7008 116.887 8.48929C116.887 8.38353 116.887 8.27778 116.781 8.17202C116.676 8.06627 116.57 7.96051 116.359 8.06627H112.873C112.767 8.06627 112.662 8.06627 112.662 8.17202C112.556 8.27778 112.556 8.38353 112.556 8.48929C112.662 9.01807 113.295 9.01807 113.507 9.01807C114.563 9.01807 114.563 9.44109 114.669 10.2871C114.669 10.6044 114.669 10.9217 114.669 11.2389V16.844C114.669 17.0555 114.669 17.267 114.669 17.4785C114.669 18.0073 114.563 18.5361 114.246 18.9591C113.507 19.8052 112.45 20.334 111.288 20.334C110.232 20.4397 109.281 19.9109 108.542 19.0649C108.014 18.3246 108.014 16.844 108.014 15.7864V9.44109C108.014 9.33534 108.014 9.12383 108.014 9.01807C108.014 8.80656 108.014 8.7008 107.908 8.48929C107.802 8.27778 107.591 8.17202 107.38 8.27778H104.105C104 8.27778 104 8.27778 103.894 8.38353C103.788 8.48929 103.788 8.59505 103.788 8.59505C103.788 9.22958 104.422 9.12383 104.633 9.12383C105.69 9.12383 105.795 9.54685 105.795 10.3929C105.795 10.7102 105.795 11.0274 105.795 11.3447V15.7864C105.795 15.8922 105.795 16.1037 105.795 16.3152C105.69 17.5843 106.007 18.9591 106.64 20.0167C107.486 21.18 108.753 21.8145 110.021 21.8145C111.077 21.8145 112.133 21.3915 113.084 20.757C113.507 20.4397 113.929 20.0167 114.352 19.6994C114.352 19.6994 114.352 19.6994 114.457 19.8052C114.457 19.9109 114.457 20.1224 114.457 20.2282C114.457 20.4397 114.457 20.6512 114.457 20.757V21.4973C114.457 21.603 114.457 21.603 114.457 21.7088C114.457 21.8145 114.563 21.8145 114.669 21.8145C114.774 21.8145 114.88 21.7088 115.091 21.603C115.936 20.9685 116.887 20.5455 117.838 20.334C117.943 20.2282 118.471 20.2282 118.577 19.8052C118.788 19.2764 118.366 19.3821 118.26 19.3821Z" fill="#0969B1"/>
<path d="M127.556 7.22059C126.605 7.22059 125.76 7.64361 125.126 8.3839C124.809 8.70117 124.598 9.01844 124.387 9.12419L124.176 9.33571C124.176 9.22995 124.176 9.22995 124.176 9.12419C124.176 9.01844 124.176 8.91268 124.176 8.91268V7.4321C124.176 7.32634 124.176 7.22059 124.07 7.11483C123.964 7.00908 123.859 6.90332 123.753 6.90332C123.436 6.90332 123.225 7.22059 123.119 7.32634C122.485 7.96088 121.64 8.48966 120.795 8.80693C120.584 8.91268 120.056 8.91268 120.056 9.44146C120.056 9.75873 120.373 9.86449 120.478 9.86449H120.795C121.007 9.86449 121.429 9.86449 121.535 10.076C121.746 10.6048 121.852 11.1336 121.746 11.6623V17.4789C121.746 17.7962 121.746 18.1134 121.746 18.325C121.746 19.0652 121.64 19.594 120.584 19.6998C120.373 19.6998 120.267 19.6998 120.056 19.8055C119.845 19.8055 119.633 20.0171 119.633 20.3343C119.633 20.6516 119.95 20.7573 120.161 20.7573C121.007 20.7573 121.957 20.6516 122.908 20.6516C123.859 20.6516 124.704 20.7573 125.549 20.7573C125.654 20.7573 125.76 20.7573 125.866 20.6516C125.971 20.5458 126.077 20.4401 126.077 20.3343C126.077 19.8055 125.443 19.8055 125.126 19.8055C124.07 19.6998 123.964 19.2768 123.964 18.4307C123.964 18.1134 123.964 17.9019 123.964 17.5847V12.7199C123.859 11.7681 124.07 10.922 124.598 10.076C124.915 9.65297 125.443 9.01844 125.971 9.12419C126.499 9.12419 126.711 10.1818 127.767 10.2875C128.084 10.2875 128.507 10.1818 128.718 9.97024C128.929 9.75873 129.14 9.33571 129.14 9.01844C129.14 8.59541 128.929 8.17239 128.612 7.85512C128.401 7.32634 127.978 7.11483 127.556 7.22059Z" fill="#0969B1"/>
<path d="M13.6829 32.2844C14.1054 32.2844 14.1054 31.7556 14.1054 31.4384C14.1054 31.1211 14.1054 31.0153 14.1054 30.9096V28.7945C14.1054 28.6887 14.1054 28.4772 14.1054 28.3714C14.1054 28.1599 14.1054 28.0542 13.9998 27.8427C13.8941 27.6311 13.6829 27.5254 13.4716 27.5254C10.1969 27.5254 6.92234 27.6311 3.64769 27.6311C2.69698 27.6311 1.85191 27.5254 1.00684 27.5254C0.901214 27.5254 0.689949 27.5254 0.584315 27.6311C0.478681 27.7369 0.373047 27.8427 0.373047 28.0542C0.373047 28.5829 1.00684 28.5829 1.21811 28.5829C2.90825 28.5829 2.90826 28.9002 2.90826 30.275C2.90826 30.4866 2.90826 30.5923 2.90826 30.8038V43.3888C2.90826 43.6003 2.90826 43.8118 2.90826 44.0233C2.90826 45.3981 2.90825 45.6097 1.21811 45.7154H1.11248C0.901217 45.7154 0.373047 45.7154 0.373047 46.2442C0.373047 46.4557 0.373048 46.5615 0.584315 46.6672C0.689949 46.773 0.901214 46.773 1.00684 46.773C2.06318 46.773 3.22516 46.6672 4.28149 46.6672C5.33783 46.6672 6.39417 46.773 7.45051 46.773C7.55614 46.773 7.76741 46.773 7.87304 46.6672C7.97868 46.5615 8.08431 46.4557 8.08431 46.2442C8.08431 45.7154 7.55614 45.7154 7.23924 45.7154C5.5491 45.6097 5.5491 45.3981 5.5491 43.9176C5.5491 43.706 5.5491 43.6003 5.5491 43.3888V37.8895C5.5491 37.3607 5.65473 37.1492 5.76037 37.0434C6.07727 36.9377 6.4998 36.9377 6.8167 36.9377C7.97868 36.9377 9.14065 37.0434 10.1969 37.2549C10.7251 37.3607 10.9364 38.2067 11.042 39.0528C11.042 39.2643 11.1477 39.6873 11.5702 39.6873C11.6758 39.6873 11.7815 39.6873 11.8871 39.5816C11.9927 39.4758 11.9927 39.2643 11.9927 39.0528C11.9927 38.101 11.8871 37.1492 11.8871 36.1974C11.9927 35.3513 11.9927 34.5053 11.9927 33.6592C11.9927 33.5535 11.9927 33.4477 11.8871 33.342C11.7815 33.2362 11.6758 33.2362 11.5702 33.2362C11.1477 33.2362 11.042 33.6592 11.042 33.8707C10.9364 34.7168 10.7251 35.7744 10.1969 35.7744C9.35192 35.8801 8.50685 35.8801 7.66178 35.8801H6.8167C5.65473 35.7744 5.5491 35.9859 5.5491 34.611V30.3808C5.5491 30.275 5.5491 30.1693 5.5491 30.0635C5.5491 29.6405 5.65473 29.1117 5.866 29.006C6.60544 28.7945 7.45051 28.7945 8.29558 28.7945C10.8307 28.7945 12.4153 28.7945 13.1547 31.5441C13.1547 31.7556 13.2603 32.2844 13.6829 32.2844Z" fill="#088543"/>
<path d="M18.8586 33.0246C16.9572 32.9189 15.1615 33.6592 13.8939 35.034C12.6262 36.303 11.9924 37.9951 11.9924 39.793C11.8868 42.2254 13.1544 44.552 15.3727 45.8211C17.591 47.0901 20.2319 47.0901 22.4502 45.8211C24.6685 44.552 25.9361 42.2254 25.8305 39.793C25.8305 37.8894 25.091 36.0915 23.7178 34.8225C22.3446 33.6592 20.6544 33.0246 18.8586 33.0246ZM18.8586 33.8707C21.922 33.8707 23.4009 37.0433 23.4009 40.0045C23.4009 42.7542 21.8164 45.9268 18.9643 45.9268C17.4854 45.8211 16.2178 45.0808 15.584 43.8117C14.8446 42.5426 14.422 41.0621 14.422 39.5815C14.422 36.7261 16.0065 33.8707 18.8586 33.8707Z" fill="#088543"/>
<path d="M39.9851 44.4463H39.5626H39.3513C38.6119 44.4463 38.6119 44.1291 38.6119 43.3888C38.6119 43.1773 38.6119 42.86 38.6119 42.5427V33.8707C38.6119 33.765 38.6119 33.6592 38.6119 33.4477C38.6119 33.342 38.6119 33.2362 38.5062 33.1305C38.4006 33.0247 38.295 32.9189 38.0837 32.9189H34.7034C34.5978 32.9189 34.4922 32.9189 34.4922 33.0247C34.3865 33.1305 34.3865 33.2362 34.3865 33.342C34.3865 33.8707 35.126 33.8707 35.3372 33.8707C36.3936 33.8707 36.3936 34.2938 36.4992 35.1398C36.4992 35.4571 36.4992 35.7744 36.4992 36.0916V41.8024C36.4992 42.014 36.4992 42.2255 36.4992 42.437C36.4992 42.9658 36.3936 43.4945 36.0767 43.9176C35.3372 44.7636 34.2809 45.2924 33.2246 45.1866C32.1682 45.2924 31.1119 44.7636 30.5837 43.9176C30.1612 42.86 30.0555 41.8024 30.0555 40.6391V34.2938C30.0555 34.188 30.0555 33.9765 30.0555 33.8707C30.0555 33.6592 30.0555 33.5535 29.9499 33.342C29.8443 33.1305 29.633 33.1305 29.4217 33.1305H26.0415C25.9358 33.1305 25.9358 33.1305 25.8302 33.2362C25.7246 33.342 25.7246 33.4477 25.7246 33.4477C25.7246 34.0823 26.3584 33.9765 26.5696 33.9765C27.626 33.9765 27.626 34.3995 27.7316 35.2456C27.7316 35.5628 27.7316 35.8801 27.7316 36.1974V40.6391C27.7316 40.8506 27.7316 40.9564 27.7316 41.1679C27.626 42.5427 27.9429 43.8118 28.5767 44.9751C29.3161 46.1384 30.5837 46.773 31.9569 46.773C33.0133 46.773 34.0696 46.3499 35.0203 45.7154C35.4429 45.3981 35.8654 44.9751 36.2879 44.6578C36.2879 44.6578 36.2879 44.6578 36.3936 44.7636C36.3936 44.8694 36.3936 45.0809 36.3936 45.1866C36.3936 45.3981 36.3936 45.6097 36.3936 45.7154V46.4557C36.3936 46.5615 36.3936 46.5615 36.3936 46.6672C36.3936 46.773 36.4992 46.773 36.6048 46.773C36.7105 46.773 36.9217 46.6672 37.0274 46.5615C37.8724 45.9269 38.8231 45.5039 39.7738 45.2924C39.8795 45.1866 40.4077 45.1866 40.5133 44.7636C40.6189 44.3406 40.1964 44.4463 39.9851 44.4463Z" fill="#088543"/>
<path d="M56.0419 45.8209C55.8307 45.8209 55.725 45.7151 55.5138 45.7151C54.4574 45.6094 54.4574 45.1863 54.3518 44.3403C54.3518 44.023 54.3518 43.8115 54.3518 43.4942V38.418C54.4574 37.1489 54.1405 35.8798 53.5067 34.7165C52.7673 33.6589 51.4997 33.0244 50.1264 33.0244C48.9645 33.0244 47.9081 33.5532 47.063 34.2935C46.5349 34.7165 46.0067 35.2453 45.7954 35.351V33.6589V33.5532C45.7954 33.3417 45.7954 33.0244 45.3729 33.0244C44.9504 33.0244 44.9504 33.3417 44.7391 33.4474C44.2109 34.082 43.4715 34.6108 42.6264 34.928C42.4152 35.0338 41.887 35.0338 41.887 35.5626C41.887 35.8798 42.2039 35.9856 42.3095 35.9856H42.6264C42.8377 35.9856 43.2602 35.9856 43.3659 36.1971C43.5771 36.7259 43.6828 37.2547 43.5771 37.7834C43.5771 37.8892 43.5771 37.9949 43.5771 37.9949V43.4942C43.5771 43.8115 43.5771 44.1288 43.5771 44.3403C43.5771 45.0806 43.4715 45.6094 42.4152 45.7151C42.2039 45.7151 42.0983 45.7151 41.887 45.8209C41.6757 45.9266 41.4645 46.0324 41.5701 46.3497C41.5701 46.6669 41.887 46.7727 42.0983 46.7727C42.9433 46.7727 43.894 46.6669 44.7391 46.6669C45.5842 46.6669 46.4292 46.7727 47.2743 46.7727C47.3799 46.7727 47.4856 46.7727 47.5912 46.6669C47.6969 46.5612 47.6969 46.4554 47.6969 46.3497C47.6969 46.1381 47.4856 45.9266 47.2743 45.9266C47.063 45.9266 46.9574 45.8209 46.7461 45.8209C45.6898 45.7151 45.6898 45.2921 45.5842 44.4461C45.5842 44.1288 45.5842 43.9173 45.5842 43.6V38.6295C45.4785 37.6777 45.7954 36.7259 46.4292 35.9856C47.063 35.2453 48.0138 34.8223 49.0701 34.7165C50.0208 34.7165 50.9715 35.1395 51.4997 35.9856C51.9222 36.8316 52.0278 37.8892 52.0278 38.841V43.6C52.0278 43.9173 52.0278 44.2345 52.0278 44.4461C52.0278 45.1863 51.9222 45.7151 50.8659 45.8209C50.6546 45.8209 50.549 45.8209 50.3377 45.9266C50.1264 45.9266 49.9152 46.1381 50.0208 46.4554C50.0208 46.7727 50.3377 46.8784 50.549 46.8784C51.394 46.8784 52.3447 46.7727 53.1898 46.7727C54.0349 46.7727 54.8799 46.8784 55.725 46.8784C55.8307 46.8784 55.9363 46.8784 56.0419 46.7727C56.1476 46.6669 56.1476 46.5612 56.1476 46.4554C56.3588 46.1381 56.2532 45.9266 56.0419 45.8209Z" fill="#088543"/>
<path d="M71.0415 44.0237C70.7246 44.0237 70.619 44.3409 70.4077 44.5524C70.1965 44.7639 69.8796 44.9755 69.7739 44.9755C69.5627 44.9755 69.5627 44.8697 69.5627 44.7639C69.457 44.5524 69.457 44.3409 69.457 44.1294C69.457 43.9179 69.457 43.8121 69.457 43.7064V27.2085C69.457 27.1027 69.457 26.997 69.3514 26.8912C69.2458 26.7854 69.1401 26.6797 69.0345 26.6797C68.8232 26.6797 68.5063 26.8912 68.2951 26.997C67.5556 27.42 66.7106 27.6315 65.8655 27.843C65.6542 27.843 65.3373 27.9488 65.3373 28.266C65.3373 28.5833 65.7599 28.689 65.9711 28.689H66.288C67.1331 28.689 67.2387 29.2178 67.2387 29.9581C67.2387 30.2754 67.2387 30.4869 67.2387 30.8042V33.4481C67.2387 33.5538 67.2387 33.6596 67.2387 33.8711C67.2387 33.9768 67.2387 34.0826 67.2387 34.1884C67.2387 34.2941 67.1331 34.2941 67.1331 34.2941C66.9218 34.2941 66.8162 34.1884 66.6049 34.1884C65.6542 33.8711 64.5979 33.6596 63.5415 33.5538H63.2246C61.4289 33.6596 59.7387 34.3999 58.4711 35.5632C57.0979 36.7265 56.3584 38.4186 56.3584 40.1107C56.3584 43.4949 58.8937 46.6676 62.6965 46.6676C63.7528 46.6676 64.8091 46.3503 65.6542 45.7157C66.0768 45.3985 66.6049 45.0812 67.0275 44.7639C67.1331 44.9755 67.1331 45.187 67.1331 45.5042C67.1331 45.61 67.1331 45.8215 67.1331 46.033C67.1331 46.2445 67.2387 46.456 67.5556 46.456C67.7669 46.456 67.9782 46.3503 68.1894 46.1388L70.619 45.5042C70.9359 45.3985 71.1472 45.2927 71.1472 44.8697V44.5524V44.4467C71.1472 44.2352 71.0415 44.1294 70.8303 44.1294L71.0415 44.0237ZM63.5415 45.2927C60.4782 45.2927 58.788 42.5431 58.788 39.7934C58.788 37.0438 60.5838 34.6114 63.6472 34.3999H63.9641C64.9148 34.3999 65.7599 34.7171 66.4993 35.2459C67.0275 35.8805 67.2387 36.6207 67.1331 37.361V37.6783V42.6488C67.1331 42.8603 67.1331 42.9661 67.1331 43.1776C67.1331 43.4949 67.0275 43.8121 66.9218 44.0237C65.8655 44.8697 64.7035 45.3985 63.5415 45.2927Z" fill="#088543"/>
<path d="M84.5626 44.3407C84.3514 44.3407 84.2457 44.5522 84.0345 44.7638C83.8232 44.9753 83.6119 45.081 83.4007 45.081C82.9781 45.081 82.8725 44.7638 82.6612 44.3407C82.5556 43.9177 82.5556 43.4947 82.5556 42.9659V42.8602V36.0918C82.5556 35.8803 82.5556 35.6688 82.5556 35.563C82.6612 34.9285 82.3443 34.2939 81.9218 33.8709C81.1823 33.3421 80.2316 33.0249 79.3866 33.1306C77.5908 33.1306 75.795 33.8709 74.4218 35.14C73.788 35.6688 73.3654 36.409 73.2598 37.2551C73.2598 37.3608 73.2598 37.5724 73.3654 37.6781C73.4711 37.7839 73.5767 37.7839 73.6823 37.7839C74.1049 37.7839 74.5274 37.5724 74.95 37.3609C75.3725 37.1493 75.6894 36.7263 75.795 36.1975C76.4288 34.717 77.1683 33.8709 78.8584 33.8709C80.4429 33.8709 80.4429 34.9285 80.4429 36.3033V37.5724C80.4429 38.7357 80.5485 38.5242 79.4922 39.0529L77.3795 40.1105C75.9007 40.8508 73.3654 42.1199 73.2598 44.3407C73.2598 45.081 73.5767 45.7156 74.1049 46.1386C74.633 46.5616 75.2669 46.7731 75.9007 46.7731C76.957 46.7731 78.0133 46.3501 78.964 45.6098C79.2809 45.3983 79.5978 45.081 79.9147 44.8695L80.2316 44.658L80.3373 44.5523C80.6542 44.8695 80.8654 46.5616 82.1331 46.5616C82.8725 46.4559 83.6119 46.1386 84.1401 45.7156C84.3514 45.5041 84.7739 45.1868 84.8795 44.658C84.8795 44.4465 84.7739 44.3407 84.5626 44.3407ZM80.4429 39.899C80.4429 40.0047 80.4429 40.1105 80.4429 40.2163V41.9084C80.5485 42.6486 80.3373 43.3889 79.8091 44.0235C79.1753 44.7638 78.3302 45.081 77.3795 45.1868C76.957 45.2925 76.5345 45.081 76.1119 44.8695C75.6894 44.658 75.5838 44.1292 75.5838 43.7062C75.5838 42.4371 76.5345 41.6968 77.5908 41.0623L80.0204 39.6875C80.126 39.6875 80.126 39.5817 80.2316 39.5817C80.2316 39.5817 80.2316 39.5817 80.2316 39.6875C80.4429 39.6875 80.4429 39.7932 80.4429 39.899Z" fill="#088543"/>
<path d="M93.0137 44.4459C92.8024 44.4459 92.5911 44.7632 92.2742 44.9747C91.9573 45.292 91.5348 45.3977 91.1123 45.3977C90.4784 45.3977 89.9503 44.9747 89.8446 44.3402C89.6334 43.8114 89.6334 43.1769 89.6334 42.4366V42.3308V35.3509C89.6334 34.8221 89.739 34.9279 90.0559 34.8221H90.5841H92.063H92.5911C92.6968 34.8221 92.908 34.8221 93.0137 34.7164C93.1193 34.6106 93.1193 34.3991 93.1193 34.2934C93.1193 34.1876 93.1193 34.0819 93.1193 33.9761C93.0137 33.8703 92.908 33.7646 92.8024 33.7646H90.1615C89.8446 33.7646 89.8446 33.6588 89.8446 33.3416V31.3322C89.8446 31.2264 89.8446 30.9092 89.5277 30.9092C89.3165 30.9092 89.2108 31.0149 89.1052 31.2264C88.577 32.3898 87.732 33.3416 86.57 33.9761C86.4644 34.0819 86.1475 34.1876 86.1475 34.5049C86.1475 34.8221 86.57 34.9279 86.7813 34.9279C86.9925 34.9279 87.0982 34.9279 87.0982 34.9279H87.4151C87.732 34.9279 87.6263 34.8221 87.6263 35.3509V42.3308C87.6263 42.5423 87.6263 42.8596 87.6263 43.1769C87.5207 44.1287 87.732 45.0805 88.2601 45.8208C88.7883 46.3495 89.5277 46.6668 90.2672 46.6668C91.2179 46.6668 92.1686 46.2438 92.908 45.6092C93.2249 45.3977 93.4362 45.0805 93.5418 44.7632C93.3306 44.6574 93.2249 44.5517 93.0137 44.4459Z" fill="#088543"/>
<path d="M96.4994 30.91C96.8163 30.91 97.1332 30.6985 97.2389 30.3812C97.4501 30.0639 97.5558 29.6409 97.5558 29.3236C97.5558 28.9006 97.4501 28.5834 97.3445 28.2661C97.2389 27.9488 96.922 27.7373 96.6051 27.7373C95.9713 27.7373 95.4431 28.4776 95.5487 29.3236C95.5487 29.7467 95.6544 30.0639 95.76 30.3812C95.9713 30.6985 96.1825 30.91 96.4994 30.91Z" fill="#088543"/>
<path d="M99.3513 45.8209C99.14 45.8209 99.0344 45.7151 98.8231 45.7151C97.7668 45.6094 97.6612 45.1863 97.6612 44.3403C97.6612 44.023 97.6612 43.8115 97.6612 43.4942V33.6589V33.5532C97.6612 33.3417 97.6612 33.0244 97.2386 33.0244C96.8161 33.0244 96.7105 33.3417 96.6048 33.4474C95.971 34.082 95.2316 34.6108 94.2809 34.928C94.0696 35.0338 93.5415 35.0338 93.5415 35.5626C93.5415 35.8798 93.8584 35.9856 94.0696 35.9856H94.3865C94.5978 35.9856 95.0203 35.9856 95.126 36.1971C95.3372 36.7259 95.4429 37.2546 95.3372 37.7834C95.3372 37.8892 95.3372 37.9949 95.3372 37.9949V43.4942C95.3372 43.8115 95.3372 44.1288 95.3372 44.3403C95.3372 45.0806 95.2316 45.6094 94.1753 45.7151C93.964 45.7151 93.8584 45.7151 93.6471 45.8209C93.4358 45.8209 93.2246 46.0324 93.2246 46.3497C93.2246 46.6669 93.5415 46.7727 93.7527 46.7727C94.5978 46.7727 95.5485 46.6669 96.3936 46.6669C97.2386 46.6669 98.0837 46.7727 99.0344 46.7727C99.14 46.7727 99.2457 46.7727 99.3513 46.6669C99.4569 46.5612 99.4569 46.4554 99.4569 46.3497C99.6682 46.0324 99.5626 45.9266 99.3513 45.8209Z" fill="#088543"/>
<path d="M107.591 33.0246C105.69 32.9189 103.894 33.6592 102.626 35.034C101.359 36.303 100.725 37.9951 100.725 39.793C100.619 42.2254 101.887 44.552 104.105 45.8211C106.323 47.0901 108.964 47.0901 111.183 45.8211C113.401 44.552 114.669 42.2254 114.563 39.793C114.563 37.8894 113.823 36.0915 112.45 34.8225C111.077 33.6592 109.387 33.0246 107.591 33.0246ZM112.133 40.0045C112.133 42.7542 110.443 45.9268 107.697 45.9268C106.218 45.8211 104.95 45.0808 104.316 43.8117C103.577 42.5426 103.154 41.0621 103.154 39.5815C103.154 36.6203 104.845 33.8707 107.697 33.7649C110.654 33.8707 112.133 37.0433 112.133 40.0045Z" fill="#088543"/>
<path d="M128.929 45.8209C128.718 45.8209 128.612 45.7151 128.401 45.7151C127.345 45.6094 127.239 45.1863 127.239 44.3403C127.239 44.023 127.239 43.8115 127.239 43.4942V38.418C127.345 37.1489 127.028 35.8798 126.394 34.7165C125.655 33.6589 124.387 33.0244 123.014 33.0244C121.852 33.0244 120.795 33.5532 119.95 34.2935C119.422 34.7165 118.894 35.2453 118.683 35.351V33.5532C118.683 33.3417 118.683 33.0244 118.26 33.0244C117.838 33.0244 117.838 33.3417 117.626 33.4474C116.993 34.082 116.253 34.6108 115.408 34.928C115.197 35.0338 114.669 35.0338 114.669 35.5626C114.669 35.8798 114.986 35.9856 115.091 35.9856H115.408C115.619 35.9856 116.042 35.9856 116.147 36.1971C116.359 36.7259 116.464 37.2547 116.359 37.7834C116.359 37.8892 116.359 37.9949 116.359 37.9949V43.4942C116.359 43.8115 116.359 44.1288 116.359 44.3403C116.359 45.0806 116.253 45.6094 115.197 45.7151C114.986 45.7151 114.88 45.7151 114.669 45.8209C114.457 45.8209 114.246 46.0324 114.246 46.3497C114.246 46.6669 114.563 46.7727 114.774 46.7727C115.619 46.7727 116.57 46.6669 117.415 46.6669C118.26 46.6669 119.105 46.7727 120.056 46.7727C120.162 46.7727 120.267 46.7727 120.373 46.6669C120.478 46.5612 120.478 46.4554 120.478 46.3497C120.478 46.1381 120.267 45.9266 120.056 45.9266C119.845 45.9266 119.739 45.8209 119.528 45.8209C118.471 45.7151 118.471 45.2921 118.366 44.4461C118.366 44.1288 118.366 43.9173 118.366 43.6V38.6295C118.26 37.6777 118.577 36.7259 119.211 35.9856C119.845 35.2453 120.795 34.7165 121.852 34.7165C122.802 34.7165 123.753 35.1395 124.281 35.9856C124.704 36.8316 124.809 37.8892 124.809 38.841V43.6C124.809 43.9173 124.809 44.2345 124.809 44.4461C124.809 45.1863 124.704 45.7151 123.647 45.8209C123.436 45.8209 123.331 45.8209 123.119 45.9266C122.908 45.9266 122.697 46.1381 122.697 46.4554C122.697 46.7727 123.014 46.8784 123.225 46.8784C124.07 46.8784 125.021 46.7727 125.866 46.7727C126.711 46.7727 127.556 46.8784 128.507 46.8784C128.612 46.8784 128.718 46.8784 128.824 46.7727C128.929 46.6669 128.929 46.5612 128.929 46.4554C129.246 46.1381 129.14 45.9266 128.929 45.8209Z" fill="#088543"/>
</svg>
