<?xml version="1.0" encoding="UTF-8"?> <svg xmlns="http://www.w3.org/2000/svg" width="291" height="96.14" viewBox="0 0 291 96.14"><g transform="translate(129.992 49.65)"><path d="M201.729,86.262c0-1.29-.129-2.579-.129-3.8h2.837l.129,2.644h.064a4.619,4.619,0,0,1,4.449-2.9c3.1,0,5.158,1.741,5.158,5.674v12.251h-2.9V88.713c0-2.773-1.032-4-2.9-4-2.257,0-3.74,1.612-3.74,4.772v10.639h-2.9V86.262Z" transform="translate(-201.6 -78.847)" fill="#101820"></path><path d="M224.9,82.6h3.16l3.869,14.766h.064L235.926,82.6h3.031l-5.287,17.668h-3.482Z" transform="translate(-209.876 -78.989)" fill="#101820"></path><path d="M252.331,92.094c0,4.062,1.612,6,4.836,6a7.231,7.231,0,0,0,4.062-1.483l.129,2.644a12.19,12.19,0,0,1-4.965,1.032c-4.707,0-7.093-3.546-7.093-9.092s2.45-9.092,6.835-9.092c4,0,6.19,3.16,6.19,8.382V92.03h-9.994Zm7.028-2.192c0-3.675-1.161-5.481-3.482-5.481-1.87,0-3.546,1.354-3.611,5.481Z" transform="translate(-218.543 -78.812)" fill="#101820"></path><path d="M273.058,96.744a8.162,8.162,0,0,0,4.127,1.29c2.192,0,3.353-1.161,3.353-2.515,0-1.225-.645-2.063-2.257-2.773l-1.934-.838c-2.515-1.161-3.482-2.257-3.482-4.514,0-2.9,2.257-5.094,5.674-5.094a10.511,10.511,0,0,1,3.74.645l-.129,2.515a8.957,8.957,0,0,0-3.482-.774c-1.934,0-2.9,1.032-2.9,2.45s1.032,2.192,2.966,2.966l1.032.387c2.128.838,3.482,2.321,3.482,4.514,0,3.031-1.612,5.481-5.674,5.481a10.851,10.851,0,0,1-4.772-1.032Z" transform="translate(-226.89 -78.883)" fill="#101820"></path><path d="M301.285,98.085a7.847,7.847,0,0,1-2.45.451c-2.644,0-4.062-1.1-4.062-4.191V82.932H292V80.546h2.773V77h2.9v3.546h3.611v2.386h-3.611V93.378c0,2,.516,2.773,1.805,2.773a4.151,4.151,0,0,0,1.805-.451Z" transform="translate(-233.71 -77)" fill="#101820"></path><path d="M310.129,86.262c0-1.29-.129-2.579-.129-3.8h2.773L312.9,85.1h.064a4.536,4.536,0,0,1,4.385-2.9,4.422,4.422,0,0,1,4.127,2.773A4.591,4.591,0,0,1,325.8,82.2c3.031,0,5.158,1.741,5.158,5.674v12.251h-2.9V88c0-2.257-.967-3.289-2.708-3.289-2.128,0-3.353,1.29-3.353,4.514v10.9h-2.966V88c0-2.257-.967-3.289-2.708-3.289-2.128,0-3.353,1.29-3.353,4.514v10.9h-2.9V86.262Z" transform="translate(-240.103 -78.847)" fill="#101820"></path><path d="M350.631,92.094c0,4.062,1.612,6,4.836,6a7.231,7.231,0,0,0,4.062-1.483l.129,2.644a11.965,11.965,0,0,1-4.965,1.032c-4.643,0-7.093-3.546-7.093-9.092s2.45-9.092,6.835-9.092c4,0,6.19,3.16,6.19,8.382V92.03h-9.994Zm7.093-2.192c0-3.675-1.161-5.481-3.482-5.481-1.87,0-3.546,1.354-3.611,5.481Z" transform="translate(-253.459 -78.812)" fill="#101820"></path><path d="M372.729,86.262c0-1.29-.129-2.579-.129-3.8h2.773L375.5,85.1h.064a4.619,4.619,0,0,1,4.449-2.9c3.1,0,5.158,1.741,5.158,5.674v12.251h-2.9V88.713c0-2.773-1.032-4-2.9-4-2.257,0-3.74,1.612-3.74,4.772v10.639h-2.9Z" transform="translate(-262.339 -78.847)" fill="#101820"></path><path d="M405.65,98.085a7.848,7.848,0,0,1-2.45.451c-2.644,0-4.062-1.1-4.062-4.191V82.932H396.3V80.546h2.837V77h2.9v3.546h3.611v2.386h-3.611V93.378c0,2,.516,2.773,1.805,2.773a4.151,4.151,0,0,0,1.805-.451Z" transform="translate(-270.757 -77)" fill="#101820"></path></g><g transform="translate(121.997 24.825)"><path d="M202.805,56.426c0,1.1.129,2.192.129,3.224h-2.773l-.129-2.579h-.064a5.047,5.047,0,0,1-4.643,2.837c-3.611,0-6.126-2.966-6.126-9.092s2.45-9.092,6.126-9.092a4.855,4.855,0,0,1,4.514,2.644h.064V38.5h2.9ZM195.97,44.11c-2.644,0-3.869,2.257-3.869,6.706s1.225,6.706,3.869,6.706,3.869-2.257,3.869-6.706C199.839,46.431,198.679,44.11,195.97,44.11Z" transform="translate(-189.2 -38.5)" fill="#101820"></path><path d="M218.131,53.494c0,4.062,1.612,6,4.836,6a7.231,7.231,0,0,0,4.062-1.483l.129,2.644a11.964,11.964,0,0,1-4.965,1.032c-4.643,0-7.093-3.546-7.093-9.092s2.45-9.092,6.835-9.092c4,0,6.19,3.16,6.19,8.382v1.612Zm7.028-2.257c0-3.675-1.161-5.481-3.482-5.481-1.87,0-3.546,1.354-3.611,5.481Z" transform="translate(-198.4 -40.276)" fill="#101820"></path><path d="M237.4,43.9h3.16l3.869,14.766h.064L248.426,43.9h3.031l-5.287,17.668h-3.482Z" transform="translate(-206.32 -40.418)" fill="#101820"></path><path d="M264.831,53.494c0,4.062,1.612,6,4.836,6a7.231,7.231,0,0,0,4.062-1.483l.129,2.644a11.965,11.965,0,0,1-4.965,1.032c-4.643,0-7.093-3.546-7.093-9.092s2.45-9.092,6.835-9.092c4,0,6.19,3.16,6.19,8.382v1.612Zm7.028-2.257c0-3.675-1.161-5.481-3.482-5.481-1.87,0-3.546,1.354-3.611,5.481Z" transform="translate(-214.987 -40.276)" fill="#101820"></path><path d="M287.4,38.6h2.9V59.75h-2.9Z" transform="translate(-224.08 -38.536)" fill="#101820"></path><path d="M304.593,43.6c4.643,0,7.093,3.546,7.093,9.092s-2.45,9.092-7.093,9.092-7.093-3.546-7.093-9.092C297.5,47.082,299.95,43.6,304.593,43.6Zm0,15.8c2.773,0,4.062-2.257,4.062-6.706s-1.29-6.706-4.062-6.706-4.062,2.257-4.062,6.706C300.531,57.076,301.82,59.4,304.593,59.4Z" transform="translate(-227.668 -40.311)" fill="#101820"></path><path d="M324.229,47.082c0-1.1-.129-2.192-.129-3.224h2.773L327,46.437h.064a5.047,5.047,0,0,1,4.643-2.837c3.611,0,6.061,2.966,6.061,9.092s-2.45,9.092-6.061,9.092A4.855,4.855,0,0,1,327.2,59.14h-.065v4.836h-2.9ZM331,59.4c2.644,0,3.869-2.257,3.869-6.706s-1.225-6.706-3.869-6.706-3.869,2.257-3.869,6.706C327.131,57.076,328.356,59.4,331,59.4Z" transform="translate(-237.116 -40.311)" fill="#101820"></path><path d="M350.529,47.562c0-1.29-.129-2.579-.129-3.8h2.837l.129,2.644h.064a4.594,4.594,0,0,1,4.385-2.9,4.36,4.36,0,0,1,4.127,2.773,4.655,4.655,0,0,1,4.32-2.773c3.031,0,5.094,1.741,5.094,5.674V61.426h-2.9V49.3c0-2.257-.967-3.289-2.708-3.289-2.128,0-3.353,1.29-3.353,4.514v10.9h-2.9V49.3c0-2.257-.967-3.289-2.708-3.289-2.128,0-3.353,1.29-3.353,4.514v10.9h-2.9Z" transform="translate(-246.458 -40.276)" fill="#101820"></path><path d="M391.031,53.494c0,4.062,1.612,6,4.836,6a7.231,7.231,0,0,0,4.062-1.483l.129,2.644a12.19,12.19,0,0,1-4.965,1.032c-4.707,0-7.093-3.546-7.093-9.092s2.45-9.092,6.835-9.092c4,0,6.19,3.16,6.19,8.382v1.612Zm7.093-2.257c0-3.675-1.161-5.481-3.482-5.481-1.87,0-3.546,1.354-3.611,5.481Z" transform="translate(-259.813 -40.276)" fill="#101820"></path><path d="M413.129,47.562c0-1.29-.129-2.579-.129-3.8h2.837l.129,2.644h.064a4.619,4.619,0,0,1,4.449-2.9c3.1,0,5.158,1.741,5.158,5.674V61.426h-2.966V50.077c0-2.773-1.032-4-2.9-4-2.257,0-3.74,1.612-3.74,4.772V61.49h-2.9Z" transform="translate(-268.693 -40.276)" fill="#101820"></path><path d="M446.085,59.456a7.848,7.848,0,0,1-2.45.451c-2.644,0-4.062-1.1-4.062-4.191V44.368H436.8V41.982h2.773V38.5h2.9v3.482h3.611v2.386h-3.611V54.814c0,2,.516,2.773,1.87,2.773a4.151,4.151,0,0,0,1.805-.451v2.321Z" transform="translate(-277.147 -38.5)" fill="#101820"></path></g><g transform="translate(122.513)"><path d="M190.129,9.362c0-1.29-.129-2.579-.129-3.8h2.837l.129,2.644h.064a4.536,4.536,0,0,1,4.385-2.9,4.422,4.422,0,0,1,4.127,2.773,4.591,4.591,0,0,1,4.32-2.773c3.031,0,5.094,1.741,5.094,5.674V23.226h-2.9V11.1c0-2.257-.967-3.288-2.708-3.288-2.128,0-3.353,1.29-3.353,4.514v10.9h-2.966V11.1c0-2.257-.967-3.288-2.708-3.288-2.128,0-3.353,1.29-3.353,4.514v10.9h-2.9V9.362Z" transform="translate(-190 -1.883)" fill="#001489"></path><path d="M230.631,15.194c0,4.062,1.612,6,4.836,6a7.231,7.231,0,0,0,4.062-1.483l.129,2.644a12.19,12.19,0,0,1-4.965,1.032c-4.707,0-7.093-3.546-7.093-9.092S230.05,5.2,234.435,5.2c4,0,6.19,3.16,6.19,8.382V15.13h-9.994ZM237.723,13c0-3.675-1.161-5.481-3.482-5.481-1.87,0-3.546,1.354-3.611,5.481Z" transform="translate(-203.355 -1.847)" fill="#001489"></path><path d="M265.005,18.055c0,1.1.129,2.192.129,3.224h-2.773l-.129-2.579h-.064a5.047,5.047,0,0,1-4.643,2.837c-3.611,0-6.126-2.966-6.126-9.092s2.45-9.092,6.126-9.092A4.855,4.855,0,0,1,262.039,6h.064V0h2.9ZM258.235,5.8c-2.644,0-3.869,2.257-3.869,6.706s1.225,6.706,3.869,6.706,3.869-2.257,3.869-6.706S260.879,5.8,258.235,5.8Z" transform="translate(-211.809)" fill="#001489"></path><path d="M279.1,5.7H282V23.368h-2.9" transform="translate(-221.648 -2.025)" fill="#001489"></path><path d="M290.712,6.783A9.132,9.132,0,0,1,295.677,5.3a6.656,6.656,0,0,1,4.707,1.676c.774.774,1.547,1.805,1.547,4.32v9.221c0,1.032.064,2.063.129,2.708h-2.644l-.193-2.386h-.064a5.319,5.319,0,0,1-4.965,2.644c-2.9,0-5.094-1.676-5.094-5.094s2.257-5.932,8.318-5.932h1.676v-.774a4.643,4.643,0,0,0-.645-2.837,3.3,3.3,0,0,0-2.9-1.161,6.158,6.158,0,0,0-4.514,1.805Zm8.447,7.8a18.819,18.819,0,0,0-2.063-.064c-3.417,0-5.029,1.612-5.029,3.675,0,1.87.967,3.1,2.966,3.1a4.191,4.191,0,0,0,4.127-4.449Z" transform="translate(-225.2 -1.883)" fill="#001489"></path></g><g transform="translate(122.706 74.539)"><g transform="translate(10.833)"><path d="M219.545,134.663c0,1.29.129,2.579.129,3.8H216.9l-.129-2.644h-.064a4.619,4.619,0,0,1-4.449,2.9c-3.1,0-5.158-1.741-5.158-5.674V120.8H210v11.413c0,2.773,1.032,4,2.9,4,2.321,0,3.74-1.612,3.74-4.772V120.8h2.9v13.863Z" transform="translate(-207.1 -117.447)" fill="#101820"></path><path d="M232.929,124.462c0-1.29-.129-2.579-.129-3.8h2.837l.129,2.644h.064a4.619,4.619,0,0,1,4.449-2.9c3.1,0,5.158,1.741,5.158,5.674v12.251h-2.9V126.913c0-2.837-1.032-4-2.9-4-2.257,0-3.74,1.612-3.74,4.772v10.639h-2.966Z" transform="translate(-216.229 -117.305)" fill="#101820"></path><path d="M271.105,133.4c0,1.1.129,2.192.129,3.224h-2.773l-.129-2.579h-.064a4.942,4.942,0,0,1-4.643,2.837c-3.611,0-6.126-2.966-6.126-9.092s2.45-9.092,6.126-9.092a4.855,4.855,0,0,1,4.514,2.644h.064V115.6h2.9Zm-6.835-12.316c-2.644,0-3.869,2.257-3.869,6.706s1.225,6.706,3.869,6.706,3.869-2.257,3.869-6.706C268.139,123.4,266.979,121.081,264.27,121.081Z" transform="translate(-225.002 -115.6)" fill="#101820"></path></g><path d="M192.815,122.048H190.3V119.92h2.515c0-2.579,1.161-4.32,3.933-4.32a6.961,6.961,0,0,1,2.063.258v2.257a2.4,2.4,0,0,0-1.483-.387c-1.483,0-1.87.838-1.87,2.386v-.258H198.3v2.128h-2.837v14.637h-2.579V122.048Z" transform="translate(-190.3 -115.6)" fill="#101820"></path></g><path d="M190.3,82.6h2.773v17.668H190.3Z" transform="translate(-67.594 -29.339)" fill="#1d1d1b"></path><path d="M78.8,60.6c-4,0-5.8,3.417-5.8,10.059s1.805,10.059,5.8,10.059,5.8-3.417,5.8-10.059S82.8,60.6,78.8,60.6Z" transform="translate(-25.929 -21.525)" fill="#001489"></path><path d="M80.923,0H15.153A15.135,15.135,0,0,0,0,15.153V80.987A15.135,15.135,0,0,0,15.153,96.14H80.987A15.135,15.135,0,0,0,96.14,80.987V15.153A15.232,15.232,0,0,0,80.923,0ZM39.333,62.546H34.819V44.169c0-3.353-1.483-4.9-4.062-4.9-3.224,0-4.965,2-4.965,6.706V62.546H21.923V44.169c0-3.353-1.483-4.9-4.062-4.9-3.224,0-4.965,2-4.965,6.706V62.546H8.382V41.59c0-1.934-.258-3.546-.322-5.481h4.191l.129,3.869h.129c1.419-3.224,3.611-4.385,6.513-4.385,2.773,0,4.836,1.419,6.19,4.127,1.419-2.579,3.417-4.191,6.384-4.191,4.578,0,7.673,2.644,7.673,8.447v18.57Zm19.731,0-.129-3.869h-.129A7.65,7.65,0,0,1,51.842,62.8c-5.416,0-9.092-4.514-9.092-13.605s3.675-13.67,9.092-13.67c3.031,0,4.965,1.29,6.706,3.869h.129V30.951h4.514v26.5c0,1.612,0,3.16.064,5.094Zm13.154,0H68.349V36.109h3.869Zm16.12-27.92a4.512,4.512,0,0,0-2.386-.516c-2.063,0-2.9,1.354-2.966,3.288h4v3.224H83.115V62.546H79.246V40.623H75.378V37.4h3.869V37.27c0-3.869,1.805-6.384,5.932-6.384a13.986,13.986,0,0,1,3.1.387v3.353Z" fill="#001489"></path></svg> 