<svg xmlns="http://www.w3.org/2000/svg" width="883" height="934" fill="none" viewBox="0 0 883 934">
  <path fill="#003869" d="M534.34 262c-.1.31-.39.47-.69.37a.54.54 0 0 1-.36-.69c.09-.3.38-.45.69-.36.3.1.45.39.36.69Zm-23.8-5.89a.66.66 0 0 1-.84.44.64.64 0 0 1-.44-.83.64.64 0 0 1 .84-.45c.37.12.56.47.44.84Zm-24.32-3.13a.75.75 0 0 1-.94.5.72.72 0 0 1-.5-.94.72.72 0 0 1 .94-.5c.42.13.62.53.5.94Zm-24.54-.31a.8.8 0 0 1-1.03.55.8.8 0 0 1-.55-1.04.8.8 0 0 1 1.03-.54.8.8 0 0 1 .55 1.03Zm-24.34 2.52a.96.96 0 0 1-1.18.62.96.96 0 0 1-.62-1.18.96.96 0 0 1 1.18-.63c.49.16.77.7.62 1.19Zm-23.84 5.35a1.14 1.14 0 1 0-2.2-.68 1.14 1.14 0 0 0 2.2.68Zm-23.04 8.03a1.4 1.4 0 0 1-1.72.91 1.4 1.4 0 0 1-.91-1.72 1.4 1.4 0 0 1 1.72-.92 1.4 1.4 0 0 1 .91 1.73Zm-22.03 10.65a1.58 1.58 0 0 1-1.97 1.04 1.58 1.58 0 0 1 .93-3c.83.25 1.3 1.13 1.04 1.96Zm-20.66 13.05a1.76 1.76 0 0 1-2.22 1.18 1.77 1.77 0 0 1-1.17-2.22 1.77 1.77 0 0 1 2.22-1.17 1.76 1.76 0 0 1 1.17 2.21Zm-19.07 15.36a2.02 2.02 0 0 1-2.52 1.33 2.02 2.02 0 0 1-1.32-2.5 2.02 2.02 0 0 1 2.51-1.34 2.02 2.02 0 0 1 1.32 2.51Zm-17.21 17.47a2.2 2.2 0 1 1-4.22-1.3 2.2 2.2 0 1 1 4.22 1.3Zm-15.23 19.3a2.29 2.29 0 1 1-4.37-1.34 2.29 2.29 0 0 1 4.37 1.34Zm-12.88 20.95a2.37 2.37 0 0 1-2.96 1.56 2.37 2.37 0 0 1 1.4-4.52 2.37 2.37 0 0 1 1.56 2.96Zm-10.46 22.3a2.45 2.45 0 0 1-3.06 1.62 2.45 2.45 0 0 1 1.44-4.67 2.46 2.46 0 0 1 1.62 3.05ZM265.01 411a2.47 2.47 0 0 1-3.1 1.63 2.47 2.47 0 0 1-1.64-3.1 2.47 2.47 0 0 1 3.1-1.64 2.47 2.47 0 0 1 1.64 3.1Zm-5.31 24.05a2.45 2.45 0 0 1-3.06 1.62c-1.28-.4-2-1.78-1.61-3.06a2.45 2.45 0 0 1 3.05-1.62c1.28.4 2 1.78 1.61 3.06Zm-2.57 24.45a2.37 2.37 0 0 1-2.95 1.57 2.37 2.37 0 0 1 1.4-4.52 2.37 2.37 0 0 1 1.55 2.95Zm.27 24.63a2.29 2.29 0 1 0-4.36-1.35 2.29 2.29 0 0 0 4.36 1.35Zm3.03 24.37a2.12 2.12 0 0 1-2.66 1.4 2.12 2.12 0 0 1-1.4-2.66 2.12 2.12 0 0 1 2.66-1.4 2.12 2.12 0 0 1 1.4 2.65Zm5.71 23.82a1.93 1.93 0 1 1-3.7-1.14 1.93 1.93 0 0 1 3.7 1.14Zm8.43 23.02a1.75 1.75 0 0 1-2.17 1.15 1.75 1.75 0 0 1-1.14-2.17 1.75 1.75 0 0 1 2.16-1.15c.9.28 1.43 1.27 1.15 2.17Zm10.96 21.86a1.54 1.54 0 0 1-1.92 1.02 1.56 1.56 0 0 1-1-1.92 1.56 1.56 0 0 1 1.91-1.02 1.57 1.57 0 0 1 1.01 1.92Zm13.34 20.45c-.22.72-.96 1.1-1.67.89a1.33 1.33 0 0 1-.88-1.68c.22-.71.95-1.1 1.67-.88.71.22 1.1.96.88 1.67Zm15.63 18.8c-.2.6-.83.94-1.44.76a1.14 1.14 0 1 1 1.43-.76Zm17.65 16.88a.97.97 0 0 1-1.23.65.97.97 0 0 1-.65-1.24.97.97 0 0 1 1.23-.65c.52.17.81.7.65 1.24Zm19.64 14.71a.9.9 0 1 0-1.74-.53.9.9 0 0 0 1.74.53Zm21.14 12.38a.79.79 0 0 1-.99.53.79.79 0 0 1 .47-1.51.8.8 0 0 1 .52.98Zm22.4 9.88a.7.7 0 0 1-.88.48.7.7 0 0 1-.47-.9.7.7 0 1 1 1.35.43Zm23.51 7.26a.7.7 0 0 1-.89.47.7.7 0 0 1-.46-.89.7.7 0 0 1 .88-.47.7.7 0 0 1 .47.89Zm24.23 4.63a.79.79 0 1 0-1.5-.47.79.79 0 0 0 1.5.47Zm24.61 1.81a.83.83 0 0 1-1.03.55.86.86 0 0 1-.55-1.03.86.86 0 0 1 1.03-.55c.42.13.68.62.55 1.03Zm24.62-1.06a.89.89 0 0 1-1.12.6.9.9 0 0 1-.6-1.14.9.9 0 0 1 1.13-.6.9.9 0 0 1 .6 1.14Zm24.45-3.81c-.17.57-.76.88-1.33.7a1.06 1.06 0 0 1-.7-1.32c.18-.57.77-.88 1.33-.7.57.17.88.76.7 1.33Zm23.89-6.53c-.2.64-.9 1.05-1.57.84a1.25 1.25 0 0 1-.84-1.58c.21-.68.9-1.04 1.58-.83.68.2 1.04.9.83 1.57Zm22.94-9.21a1.41 1.41 0 0 1-1.77.94 1.41 1.41 0 0 1-.93-1.78 1.41 1.41 0 0 1 1.77-.94c.75.24 1.17 1.02.93 1.78Zm21.78-11.72a1.6 1.6 0 0 1-2.01 1.07 1.6 1.6 0 0 1-1.07-2.02 1.6 1.6 0 0 1 2.02-1.07 1.6 1.6 0 0 1 1.06 2.02Zm20.3-14.12a1.76 1.76 0 0 1-2.22 1.17 1.76 1.76 0 0 1-1.17-2.21 1.77 1.77 0 0 1 2.22-1.18 1.77 1.77 0 0 1 1.17 2.22Zm18.54-16.31a1.97 1.97 0 1 0-3.77-1.16 1.97 1.97 0 0 0 3.77 1.16Zm16.55-18.28a2.1 2.1 0 0 1-2.6 1.38 2.1 2.1 0 0 1-1.38-2.6 2.1 2.1 0 0 1 2.6-1.39 2.1 2.1 0 0 1 1.38 2.61Zm14.24-20.11a2.19 2.19 0 0 1-2.7 1.44 2.19 2.19 0 0 1-1.44-2.71 2.19 2.19 0 0 1 2.7-1.44 2.19 2.19 0 0 1 1.44 2.71Zm11.89-21.58a2.24 2.24 0 1 1-4.3-1.32 2.22 2.22 0 0 1 2.81-1.48c1.2.37 1.86 1.6 1.49 2.8Zm9.34-22.81a2.33 2.33 0 1 1-4.45-1.38 2.33 2.33 0 0 1 4.45 1.38Zm6.58-23.75a2.24 2.24 0 1 1-4.28-1.32 2.24 2.24 0 0 1 4.29 1.32Zm3.85-24.35a2.16 2.16 0 1 1-4.14-1.27 2.18 2.18 0 0 1 2.71-1.44 2.19 2.19 0 0 1 1.43 2.71Zm1.05-24.63a2.08 2.08 0 0 1-2.6 1.38 2.1 2.1 0 0 1-1.39-2.6 2.1 2.1 0 0 1 2.61-1.39 2.1 2.1 0 0 1 1.38 2.61Zm-1.78-24.55a2.02 2.02 0 0 1-2.5 1.33 2.02 2.02 0 0 1-1.33-2.52 2.02 2.02 0 0 1 2.5-1.33 2.02 2.02 0 0 1 1.33 2.52Zm-4.7-24.26a1.8 1.8 0 1 1-3.46-1.07 1.83 1.83 0 0 1 2.26-1.2 1.83 1.83 0 0 1 1.2 2.27Zm-7.4-23.57a1.65 1.65 0 1 0-3.16-.98 1.65 1.65 0 0 0 3.16.98Zm-10.07-22.62a1.45 1.45 0 0 1-1.83.96 1.43 1.43 0 0 1-.96-1.82 1.43 1.43 0 0 1 1.82-.96c.8.24 1.21 1.03.97 1.82Zm-12.53-21.35c-.2.68-.9 1.04-1.57.83-.68-.2-1.04-.9-.83-1.57.2-.68.9-1.05 1.57-.84.68.21 1.04.9.83 1.58Zm-14.87-19.77a1.06 1.06 0 1 0-2.03-.63 1.06 1.06 0 0 0 2.03.63Zm-16.98-17.98a.87.87 0 0 1-1.08.57.87.87 0 0 1-.57-1.08.87.87 0 0 1 1.08-.58c.45.14.71.64.57 1.09Zm-18.85-15.93a.8.8 0 0 1-.99.53.79.79 0 0 1 .46-1.5c.42.12.65.56.53.97Zm-20.54-13.67a.7.7 0 0 1-.88.47.7.7 0 0 1-.47-.89.7.7 0 0 1 .88-.47.7.7 0 0 1 .47.89Zm-21.96-11.19a.62.62 0 0 1-.79.42.62.62 0 0 1-.41-.8.6.6 0 0 1 .78-.4c.34.1.52.44.42.78Zm-13.87-39.71a.83.83 0 0 1-1.03.55.86.86 0 0 1-.54-1.04.86.86 0 0 1 1.03-.54c.41.12.67.62.54 1.03Zm-27.4-6.76a.96.96 0 0 1-1.18.62.96.96 0 0 1-.63-1.18.96.96 0 0 1 1.18-.63c.5.16.78.7.63 1.19Zm-27.94-3.59c-.17.57-.76.88-1.32.7a1.06 1.06 0 0 1-.7-1.32c.17-.57.76-.88 1.32-.7.57.17.88.76.7 1.32Zm-28.11-.34c-.2.68-.9 1.05-1.57.84a1.24 1.24 0 0 1-.83-1.58c.2-.68.9-1.04 1.57-.83.68.2 1.04.9.83 1.57Zm-27.88 2.96a1.54 1.54 0 1 1-1.02-1.93c.83.25 1.27 1.1 1.02 1.92Zm-27.28 6.18a1.89 1.89 0 0 1-2.37 1.25 1.92 1.92 0 0 1-1.24-2.37 1.92 1.92 0 0 1 2.36-1.25c.98.3 1.55 1.39 1.25 2.37Zm-26.39 9.3a2.29 2.29 0 1 1-4.37-1.34 2.29 2.29 0 0 1 4.37 1.34Zm-25.2 12.24a2.68 2.68 0 1 1-5.12-1.58 2.68 2.68 0 0 1 5.12 1.58Zm-23.65 15.1a3.03 3.03 0 1 1-5.8-1.78 3.03 3.03 0 0 1 5.8 1.78Zm-21.78 17.74a3.43 3.43 0 1 1-6.55-2.02 3.43 3.43 0 0 1 6.55 2.02Zm-19.67 20.13a3.82 3.82 0 1 1-7.31-2.26 3.82 3.82 0 0 1 7.3 2.26Zm-17.37 22.24a4.03 4.03 0 0 1-5.02 2.65 4.03 4.03 0 0 1-2.65-5.02 4.03 4.03 0 0 1 5.02-2.66c2.1.65 3.3 2.92 2.65 5.03Zm-14.77 24.11a4.22 4.22 0 1 1-8.06-2.5 4.22 4.22 0 0 1 8.06 2.5Zm-11.98 25.63a4.3 4.3 0 0 1-5.37 2.84 4.3 4.3 0 0 1 2.54-8.21 4.3 4.3 0 0 1 2.83 5.37Zm-9.07 26.86a4.37 4.37 0 1 0-8.35-2.58 4.37 4.37 0 0 0 8.35 2.58Zm-6.17 27.63a4.24 4.24 0 0 1-5.32 2.81 4.24 4.24 0 0 1-2.8-5.32 4.24 4.24 0 0 1 5.3-2.81 4.24 4.24 0 0 1 2.82 5.32Zm-2.97 28.16a4.13 4.13 0 1 1-7.9-2.42 4.13 4.13 0 0 1 7.9 2.42Zm.22 28.28a3.94 3.94 0 1 0-7.53-2.32 3.94 3.94 0 0 0 7.53 2.32Zm3.34 28.01a3.66 3.66 0 1 1-7-2.15 3.63 3.63 0 0 1 4.59-2.43 3.63 3.63 0 0 1 2.41 4.58Zm6.47 27.37a3.26 3.26 0 1 1-6.24-1.93 3.26 3.26 0 1 1 6.24 1.93Zm9.53 26.4a2.9 2.9 0 1 1-5.57-1.71 2.9 2.9 0 1 1 5.57 1.71Zm12.48 25.1a2.54 2.54 0 0 1-3.15 1.67 2.54 2.54 0 0 1-1.66-3.16 2.54 2.54 0 0 1 3.14-1.66 2.54 2.54 0 0 1 1.67 3.15Zm15.24 23.51a2.16 2.16 0 0 1-2.71 1.43 2.14 2.14 0 0 1-1.43-2.7 2.14 2.14 0 0 1 2.7-1.44 2.13 2.13 0 0 1 1.44 2.7Zm17.82 21.54a1.76 1.76 0 0 1-2.22 1.17 1.76 1.76 0 0 1-1.17-2.21 1.77 1.77 0 0 1 2.22-1.18 1.77 1.77 0 0 1 1.17 2.22Zm20.22 19.36a1.41 1.41 0 0 1-1.77.94 1.41 1.41 0 0 1-.94-1.78 1.41 1.41 0 0 1 1.78-.94c.75.24 1.16 1.02.93 1.78Zm22.43 16.9c-.2.64-.89 1-1.53.8-.64-.2-1-.88-.8-1.52.2-.64.88-1 1.52-.81.64.2 1 .89.8 1.53Zm24.28 14.21c-.18.57-.76.88-1.33.7a1.06 1.06 0 0 1-.7-1.33 1.06 1.06 0 1 1 2.03.63Zm25.83 11.35a.97.97 0 0 1-1.23.65.97.97 0 0 1-.65-1.23.97.97 0 0 1 1.23-.65c.52.16.8.7.65 1.23Zm27 8.33a.98.98 0 0 1-1.23.65.98.98 0 0 1-.65-1.23.97.97 0 0 1 1.23-.65c.53.16.81.7.65 1.23Zm27.9 5.3c-.18.57-.77.88-1.33.7a1.06 1.06 0 0 1-.7-1.32c.17-.57.76-.88 1.32-.7.57.17.88.76.7 1.33Zm28.36 2.07c-.2.64-.9 1-1.53.81a1.23 1.23 0 0 1 .72-2.34c.64.2 1 .9.8 1.53Zm28.45-1.16a1.38 1.38 0 0 1-1.73.91 1.4 1.4 0 0 1-.9-1.72 1.4 1.4 0 0 1 1.72-.92c.71.22 1.13 1.01.9 1.73Zm28.24-4.37a1.75 1.75 0 0 1-2.17 1.15 1.75 1.75 0 0 1-1.14-2.17 1.75 1.75 0 0 1 2.17-1.14c.9.27 1.42 1.26 1.14 2.16Zm27.6-7.49a2.1 2.1 0 0 1-2.6 1.39 2.1 2.1 0 0 1-1.39-2.62 2.1 2.1 0 0 1 2.61-1.38 2.1 2.1 0 0 1 1.38 2.61Zm26.57-10.53a2.45 2.45 0 0 1-3.06 1.62c-1.28-.4-2-1.78-1.61-3.06a2.45 2.45 0 0 1 3.05-1.61c1.28.39 2 1.77 1.61 3.05Zm25.16-13.48a2.8 2.8 0 0 1-3.5 1.85 2.8 2.8 0 0 1-1.84-3.5 2.8 2.8 0 0 1 3.5-1.85 2.8 2.8 0 0 1 1.84 3.5Zm23.48-16.18a3.2 3.2 0 0 1-3.99 2.1 3.18 3.18 0 0 1-2.1-3.98 3.18 3.18 0 0 1 3.99-2.12 3.18 3.18 0 0 1 2.1 4Zm21.52-18.74a3.53 3.53 0 0 1-4.43 2.35 3.53 3.53 0 0 1-2.34-4.43 3.53 3.53 0 0 1 4.43-2.35 3.53 3.53 0 0 1 2.34 4.43Zm19.13-21.03a3.8 3.8 0 0 1-4.78 2.53 3.8 3.8 0 0 1-2.52-4.78 3.8 3.8 0 0 1 4.78-2.53 3.8 3.8 0 0 1 2.52 4.78Zm16.47-23.09a4.03 4.03 0 0 1-5.02 2.66 4.03 4.03 0 0 1-2.65-5.03 4.04 4.04 0 0 1 5.02-2.65c2.1.64 3.3 2.91 2.65 5.02Zm13.67-24.82a4.14 4.14 0 1 1-7.9-2.43 4.14 4.14 0 0 1 7.9 2.43Zm10.77-26.22a4.22 4.22 0 1 1-8.07-2.49 4.22 4.22 0 0 1 8.07 2.5Zm7.56-27.32a4.15 4.15 0 0 1-5.22 2.76 4.15 4.15 0 0 1-2.75-5.22c.68-2.22 3-3.45 5.22-2.76 2.22.68 3.44 3 2.75 5.22Zm4.4-28.02a4.05 4.05 0 1 1-7.75-2.37 4.05 4.05 0 0 1 7.75 2.38Zm1.08-28.33a3.88 3.88 0 0 1-4.88 2.58 3.88 3.88 0 0 1-2.57-4.88 3.88 3.88 0 0 1 4.88-2.57 3.88 3.88 0 0 1 2.57 4.87Zm-2.18-28.31a3.7 3.7 0 1 1-7.08-2.17 3.7 3.7 0 0 1 7.08 2.17ZM714 409.42a3.3 3.3 0 1 1-6.3-1.93 3.3 3.3 0 0 1 6.3 1.93Zm-8.71-27.15a2.98 2.98 0 0 1-3.7 1.95 2.98 2.98 0 0 1-1.94-3.7 2.98 2.98 0 0 1 3.7-1.95 2.98 2.98 0 0 1 1.94 3.7Zm-11.69-26.05a2.55 2.55 0 1 1-4.9-1.5 2.56 2.56 0 1 1 4.9 1.5Zm-14.58-24.58a2.2 2.2 0 1 1-4.21-1.3 2.2 2.2 0 1 1 4.2 1.3Zm-17.24-22.77a1.85 1.85 0 1 0-3.54-1.1 1.85 1.85 0 0 0 3.54 1.1Zm-19.76-20.74c-.24.8-1.07 1.2-1.82.97a1.48 1.48 0 0 1-.96-1.83 1.48 1.48 0 0 1 1.82-.96c.75.23 1.2 1.07.96 1.82Zm-21.82-18.32c-.2.64-.88 1-1.52.8-.64-.19-1-.88-.81-1.52.2-.64.89-1 1.53-.8.64.19 1 .88.8 1.52Zm-23.73-15.74c-.17.57-.75.84-1.28.68a1.04 1.04 0 0 1-.68-1.28c.17-.53.76-.84 1.28-.68.53.17.84.76.68 1.28ZM571.2 241.2a.96.96 0 0 1-1.19.63.96.96 0 0 1-.62-1.18.96.96 0 0 1 1.18-.63c.5.15.78.7.63 1.19Zm-17.28-40.92c-.19.6-.82.9-1.38.73-.56-.18-.9-.82-.73-1.38.18-.57.82-.9 1.38-.73.56.17.9.81.73 1.38ZM523 192.63c-.2.65-.9 1.05-1.58.84a1.24 1.24 0 0 1-.83-1.58c.2-.67.9-1.04 1.57-.83.68.2 1.04.9.84 1.57Zm-31.57-4.08a1.4 1.4 0 0 1-1.73.91 1.4 1.4 0 0 1-.9-1.72 1.4 1.4 0 0 1 1.72-.92c.71.22 1.13 1.01.9 1.73Zm-31.7-.33c-.28.9-1.21 1.4-2.12 1.12a1.68 1.68 0 0 1-1.11-2.12c.28-.9 1.21-1.4 2.11-1.12.9.28 1.4 1.21 1.12 2.12Zm-31.43 3.38a2.1 2.1 0 0 1-2.62 1.38 2.1 2.1 0 0 1-1.37-2.61 2.1 2.1 0 0 1 2.6-1.39 2.1 2.1 0 0 1 1.38 2.62Zm-30.72 7.02a2.64 2.64 0 1 1-5.04-1.55 2.64 2.64 0 0 1 5.04 1.55Zm-29.74 10.54a3.18 3.18 0 0 1-3.98 2.12 3.18 3.18 0 0 1-2.1-4 3.18 3.18 0 0 1 3.98-2.1 3.15 3.15 0 0 1 2.1 3.98Zm-28.34 13.91a3.74 3.74 0 1 1-7.15-2.2 3.74 3.74 0 0 1 7.15 2.2Zm-26.65 17.1a4.3 4.3 0 0 1-5.37 2.84 4.3 4.3 0 0 1 2.53-8.2 4.3 4.3 0 0 1 2.84 5.36Zm-24.52 20.07a4.88 4.88 0 1 1-9.34-2.87 4.88 4.88 0 0 1 9.34 2.87Zm-22.07 22.81a5.45 5.45 0 0 1-6.8 3.6 5.45 5.45 0 0 1 3.21-10.4 5.45 5.45 0 0 1 3.59 6.8Zm-22.49 18.31a5.75 5.75 0 1 0-5.1 10.3 5.75 5.75 0 0 0 5.1-10.3Zm-13.72 34.17a6.03 6.03 0 1 0-11.52-3.56 6.03 6.03 0 0 0 11.52 3.56Zm-13.55 28.98a6.15 6.15 0 1 1-11.76-3.63 6.15 6.15 0 0 1 11.76 3.63Zm-10.23 30.34a6.24 6.24 0 0 1-7.78 4.12 6.24 6.24 0 0 1 3.68-11.9 6.24 6.24 0 0 1 4.1 7.78Zm-10.08 24a6.1 6.1 0 1 0-5.42 10.93 6.1 6.1 0 0 0 5.42-10.93Zm-3.3 32.01a5.9 5.9 0 1 0-5.24 10.58 5.9 5.9 0 0 0 5.24-10.58Zm3.18 39.02a5.59 5.59 0 1 1-10.69-3.28 5.59 5.59 0 0 1 10.7 3.28Zm3.68 31.62a5.18 5.18 0 0 1-6.45 3.4 5.18 5.18 0 0 1-3.4-6.45 5.18 5.18 0 0 1 6.44-3.41 5.18 5.18 0 0 1 3.4 6.45Zm7.19 30.88a4.59 4.59 0 0 1-5.76 3.05 4.59 4.59 0 0 1-3.04-5.76 4.59 4.59 0 0 1 5.76-3.05 4.59 4.59 0 0 1 3.04 5.76Zm10.66 29.82a4.05 4.05 0 1 1-7.75-2.4 4.05 4.05 0 1 1 7.75 2.4Zm13.99 28.35a3.51 3.51 0 0 1-4.39 2.32 3.51 3.51 0 0 1 2.07-6.7 3.51 3.51 0 0 1 2.32 4.38Zm17.14 26.54a2.97 2.97 0 0 1-3.69 1.95 2.98 2.98 0 0 1-1.95-3.7 2.98 2.98 0 0 1 3.7-1.95 2.98 2.98 0 0 1 1.94 3.7Zm20.01 24.31a2.39 2.39 0 0 1-3 1.6 2.39 2.39 0 0 1-1.58-3 2.39 2.39 0 0 1 3-1.6 2.39 2.39 0 0 1 1.58 3Zm22.76 21.84a1.9 1.9 0 0 1-2.36 1.25 1.92 1.92 0 0 1-1.25-2.37 1.92 1.92 0 0 1 2.36-1.25c.98.3 1.55 1.39 1.25 2.37Zm25.29 19.1a1.58 1.58 0 0 1-1.97 1.04 1.58 1.58 0 0 1 .93-3.01c.83.25 1.3 1.14 1.04 1.97Zm27.39 16.04c-.23.71-.96 1.1-1.68.88a1.33 1.33 0 0 1-.88-1.67 1.33 1.33 0 1 1 2.55.79Zm29.2 12.8c-.2.64-.88 1-1.52.81a1.23 1.23 0 0 1 .72-2.34c.64.2 1 .9.8 1.53Zm30.54 9.42c-.2.64-.88 1-1.52.81a1.23 1.23 0 0 1 .72-2.33c.64.2 1 .88.8 1.52Zm31.56 5.99c-.22.71-.96 1.1-1.67.88a1.33 1.33 0 0 1-.88-1.67c.21-.72.95-1.11 1.67-.89.71.22 1.1.96.88 1.68Zm32.14 2.36a1.58 1.58 0 0 1-1.97 1.04 1.58 1.58 0 0 1 .93-3.01c.83.25 1.3 1.14 1.04 1.97Zm32.25-1.31a1.9 1.9 0 1 1-1.25-2.37 1.87 1.87 0 0 1 1.25 2.37Zm32.06-4.88a2.37 2.37 0 0 1-2.95 1.57 2.37 2.37 0 0 1 1.4-4.53 2.37 2.37 0 0 1 1.55 2.96Zm31.33-8.49a2.9 2.9 0 1 1-5.57-1.71 2.9 2.9 0 1 1 5.57 1.72Zm30.15-11.89a3.47 3.47 0 1 0-6.62-2.05 3.47 3.47 0 0 0 6.62 2.04Zm28.58-15.2a4.03 4.03 0 0 1-5.02 2.66 4.03 4.03 0 0 1-2.65-5.02 4.03 4.03 0 0 1 5.02-2.66c2.1.65 3.3 2.92 2.65 5.02Zm26.68-18.25a4.57 4.57 0 1 1-8.74-2.7 4.57 4.57 0 0 1 8.74 2.7Zm24.4-21.13a5.1 5.1 0 0 1-6.35 3.35 5.1 5.1 0 0 1 3-9.72 5.1 5.1 0 0 1 3.35 6.36Zm21.75-23.78a5.55 5.55 0 1 1-10.61-3.25 5.55 5.55 0 0 1 10.6 3.25Zm18.71-26.07a5.82 5.82 0 1 1-11.14-3.44 5.82 5.82 0 1 1 11.14 3.44Zm15.49-28.06a6.03 6.03 0 1 0-11.52-3.56 6.03 6.03 0 0 0 11.52 3.56Zm12.15-29.66a6.15 6.15 0 1 1-11.75-3.63 6.15 6.15 0 0 1 11.75 3.63Zm8.55-30.9a6.11 6.11 0 1 1-11.68-3.6 6.11 6.11 0 0 1 11.68 3.6Zm4.9-31.65a5.95 5.95 0 1 0-11.36-3.52 5.95 5.95 0 0 0 11.36 3.52Zm1.18-32.1a5.67 5.67 0 1 1-10.85-3.35 5.67 5.67 0 0 1 10.84 3.35Zm-2.57-32.02a5.36 5.36 0 1 1-10.25-3.16 5.36 5.36 0 0 1 10.25 3.16Zm-6.47-31.66a4.82 4.82 0 0 1-6 3.19 4.82 4.82 0 0 1-3.17-6.01 4.82 4.82 0 0 1 6-3.18 4.83 4.83 0 0 1 3.17 6Zm-9.96-30.7a4.24 4.24 0 0 1-5.32 2.81 4.23 4.23 0 0 1-2.8-5.32 4.24 4.24 0 0 1 5.3-2.81 4.24 4.24 0 0 1 2.82 5.32Zm-13.37-29.45a3.7 3.7 0 1 1-7.07-2.17 3.7 3.7 0 0 1 7.07 2.17Zm-16.63-27.82a3.16 3.16 0 0 1-3.93 2.09 3.16 3.16 0 0 1-2.08-3.94 3.16 3.16 0 0 1 3.94-2.09 3.16 3.16 0 0 1 2.07 3.94Zm-19.67-25.83a2.6 2.6 0 1 0-4.96-1.53 2.6 2.6 0 0 0 4.97 1.54Zm-22.42-23.45a2.03 2.03 0 0 1-2.56 1.35 2.03 2.03 0 0 1-1.35-2.56 2.03 2.03 0 0 1 2.56-1.35 2.03 2.03 0 0 1 1.35 2.56Zm-24.82-20.74a1.7 1.7 0 0 1-2.12 1.13 1.68 1.68 0 0 1-1.12-2.12c.28-.9 1.22-1.4 2.12-1.12.9.27 1.4 1.21 1.12 2.11Zm-26.93-17.79a1.4 1.4 0 0 1-1.72.91 1.4 1.4 0 0 1-.91-1.72 1.4 1.4 0 0 1 1.72-.91c.72.22 1.13 1 .91 1.72Zm-28.63-14.52a1.23 1.23 0 0 1-2.33-.72c.2-.64.88-1 1.52-.81.64.2 1 .89.8 1.53Zm-20.61-42.16a1.4 1.4 0 0 1-1.72.9 1.4 1.4 0 0 1-.91-1.72 1.4 1.4 0 0 1 1.72-.9c.72.21 1.13 1 .91 1.72Zm-34.48-8.54a1.54 1.54 0 0 1-1.92 1.02 1.56 1.56 0 0 1-1.01-1.92 1.56 1.56 0 0 1 1.92-1.02 1.56 1.56 0 0 1 1.01 1.92Zm-35.21-4.55a1.72 1.72 0 0 1-2.17 1.15 1.7 1.7 0 0 1-1.14-2.17 1.7 1.7 0 0 1 2.16-1.15 1.7 1.7 0 0 1 1.15 2.17Zm-35.27-.35a2.12 2.12 0 0 1-2.66 1.4 2.12 2.12 0 0 1-1.4-2.66 2.12 2.12 0 0 1 2.66-1.41 2.12 2.12 0 0 1 1.4 2.66Zm-35.03 3.79a2.68 2.68 0 1 1-5.12-1.59 2.68 2.68 0 0 1 5.12 1.59Zm-34.14 7.86a3.39 3.39 0 1 1-6.48-2 3.39 3.39 0 0 1 6.48 2Zm-33.05 11.79a4.14 4.14 0 1 0-7.9-2.44 4.14 4.14 0 0 0 7.9 2.44ZM325.01 195a4.84 4.84 0 1 1-9.26-2.84 4.84 4.84 0 0 1 9.26 2.84Zm-29.58 19.13a5.59 5.59 0 1 1-10.69-3.28 5.59 5.59 0 0 1 10.69 3.28Zm-27.26 22.4a6.32 6.32 0 0 1-7.88 4.18 6.32 6.32 0 0 1-4.16-7.89 6.32 6.32 0 0 1 7.88-4.17 6.32 6.32 0 0 1 4.16 7.88Zm-24.55 25.51a7.04 7.04 0 1 1-13.47-4.13 7.04 7.04 0 0 1 13.47 4.13Zm-21.77 28.1a7.48 7.48 0 1 0-14.3-4.42 7.48 7.48 0 0 0 14.3 4.42Zm-22.47 21.09a7.83 7.83 0 1 0-6.95 14.04 7.83 7.83 0 0 0 6.95-14.04Zm-11.07 41.7a8 8 0 1 1-15.29-4.72 8 8 0 0 1 15.3 4.72Zm-11.44 33.88a8.09 8.09 0 0 1-10.09 5.35 8.08 8.08 0 0 1 4.76-15.45 8.08 8.08 0 0 1 5.33 10.1Zm-7.78 34.85a7.92 7.92 0 1 0-15.13-4.68 7.92 7.92 0 0 0 15.13 4.68Zm-3.79 35.5a7.67 7.67 0 1 1-14.66-4.52 7.67 7.67 0 1 1 14.66 4.52Zm.1 35.59a7.3 7.3 0 0 1-9.1 4.82 7.3 7.3 0 0 1 4.3-13.93 7.3 7.3 0 0 1 4.8 9.11Zm4 35.23a6.65 6.65 0 1 1-12.7-3.93 6.67 6.67 0 0 1 8.32-4.4 6.67 6.67 0 0 1 4.39 8.33Zm7.96 34.45a5.95 5.95 0 1 0-11.37-3.51 5.95 5.95 0 0 0 11.37 3.51Zm11.79 33.22a5.2 5.2 0 1 1-9.94-3.05 5.2 5.2 0 0 1 9.94 3.05Zm15.5 31.59a4.49 4.49 0 1 1-8.58-2.64 4.49 4.49 0 0 1 8.58 2.64Zm18.98 29.53a3.78 3.78 0 0 1-4.72 2.5 3.75 3.75 0 0 1-2.46-4.71c.61-2 2.72-3.08 4.67-2.48a3.8 3.8 0 0 1 2.51 4.7Zm22.27 27.13a3.01 3.01 0 0 1-3.78 2 3 3 0 0 1-2-3.79 3 3 0 0 1 3.79-2c1.61.5 2.5 2.17 2 3.79Zm25.29 24.34a2.37 2.37 0 0 1-2.96 1.56 2.37 2.37 0 0 1 1.4-4.52 2.37 2.37 0 0 1 1.56 2.96Zm28.12 21.26a1.93 1.93 0 1 1-3.7-1.15 1.93 1.93 0 0 1 3.7 1.14Zm30.54 17.83a1.62 1.62 0 0 1-2.02 1.07 1.65 1.65 0 0 1-1.06-2.02 1.65 1.65 0 0 1 2.01-1.07 1.64 1.64 0 0 1 1.07 2.02Zm32.54 14.29a1.45 1.45 0 1 1-2.78-.86 1.48 1.48 0 0 1 1.82-.97c.75.23 1.2 1.07.96 1.83Zm34.07 10.51a1.44 1.44 0 0 1-1.82.96 1.48 1.48 0 0 1-.96-1.82 1.48 1.48 0 0 1 1.82-.97c.75.24 1.2 1.07.96 1.83Zm35.23 6.65a1.62 1.62 0 0 1-2.02 1.07 1.65 1.65 0 0 1-1.07-2.02 1.65 1.65 0 0 1 2.02-1.07c.83.26 1.32 1.2 1.07 2.02Zm35.88 2.66a1.93 1.93 0 1 1-3.7-1.14 1.93 1.93 0 0 1 3.7 1.14Zm36.06-1.42a2.37 2.37 0 0 1-2.95 1.57 2.37 2.37 0 0 1 1.4-4.52 2.37 2.37 0 0 1 1.55 2.95Zm35.87-5.47a3.03 3.03 0 1 1-5.8-1.79 3.03 3.03 0 0 1 5.8 1.79Zm35.04-9.41a3.74 3.74 0 1 1-7.15-2.2 3.74 3.74 0 0 1 7.15 2.2Zm31.48-18.57a4.49 4.49 0 1 0-3.99 8.04 4.49 4.49 0 0 0 3.99-8.04Zm34.29-11.58a5.2 5.2 0 1 1-9.93-3.05 5.2 5.2 0 0 1 9.93 3.05Zm29.86-20.41a5.95 5.95 0 1 0-11.37-3.51 5.95 5.95 0 0 0 11.37 3.5Zm27.35-23.53a6.67 6.67 0 0 1-8.32 4.4 6.67 6.67 0 0 1 3.93-12.73 6.67 6.67 0 0 1 4.4 8.33Zm24.32-26.49a7.23 7.23 0 0 1-9.06 4.8 7.23 7.23 0 0 1-4.78-9.07 7.23 7.23 0 0 1 9.06-4.8 7.23 7.23 0 0 1 4.78 9.07Zm20.96-29.09a7.67 7.67 0 1 1-14.67-4.52 7.67 7.67 0 1 1 14.67 4.52Zm17.47-32.1a7.91 7.91 0 1 0-15.5-3.16 7.91 7.91 0 0 0 15.5 3.16Zm13.38-32.26a8.08 8.08 0 0 1-10.09 5.35 8.08 8.08 0 0 1 4.76-15.45 8.09 8.09 0 0 1 5.33 10.1Zm9.49-34.48a8 8 0 1 0-15.28-4.73 8 8 0 0 0 15.28 4.73Zm5.49-35.31a7.84 7.84 0 1 0-14.98-4.63 7.84 7.84 0 0 0 14.98 4.63Zm1.2-35.8a7.48 7.48 0 1 1-14.3-4.4 7.48 7.48 0 0 1 14.3 4.4Zm-2.97-35.77a7.03 7.03 0 0 1-8.76 4.63 7.03 7.03 0 0 1 4.14-13.4 7.03 7.03 0 0 1 4.62 8.77Zm-7.31-35.3a6.32 6.32 0 0 1-7.88 4.17 6.32 6.32 0 0 1-4.16-7.88 6.32 6.32 0 0 1 7.88-4.17 6.32 6.32 0 0 1 4.16 7.88Zm-11.25-34.32a5.55 5.55 0 1 1-10.6-3.25 5.55 5.55 0 0 1 10.6 3.25Zm-15.06-32.9a4.84 4.84 0 1 1-9.25-2.85 4.84 4.84 0 0 1 9.25 2.85Zm-18.67-31.05a4.1 4.1 0 1 1-7.83-2.4 4.1 4.1 0 0 1 7.83 2.4Zm-22.01-28.82a3.39 3.39 0 1 0-6.47-2 3.39 3.39 0 0 0 6.47 2Zm-25.19-26.21a2.64 2.64 0 1 1-5.05-1.55 2.64 2.64 0 0 1 5.05 1.55Zm-27.76-23.12a2.12 2.12 0 0 1-2.66 1.4 2.12 2.12 0 0 1-1.4-2.65 2.12 2.12 0 0 1 2.66-1.4 2.12 2.12 0 0 1 1.4 2.65Zm-30.12-19.85c-.28.9-1.22 1.4-2.12 1.12a1.68 1.68 0 0 1-1.12-2.12c.28-.9 1.22-1.4 2.12-1.12.9.28 1.4 1.22 1.12 2.12Zm-31.99-16.22a1.54 1.54 0 0 1-1.92 1.02 1.56 1.56 0 0 1-1.01-1.92 1.56 1.56 0 0 1 1.92-1.02 1.56 1.56 0 0 1 1.01 1.92Zm-23.97-43.4a1.66 1.66 0 0 1-2.06 1.1 1.66 1.66 0 0 1-1.1-2.08 1.66 1.66 0 0 1 2.07-1.1 1.69 1.69 0 0 1 1.1 2.08Zm-38.04-9.39a1.85 1.85 0 1 1-3.54-1.08 1.85 1.85 0 0 1 3.54 1.08Zm-38.86-5.01a2.03 2.03 0 0 1-2.56 1.35 2.03 2.03 0 0 1-1.35-2.56 2.03 2.03 0 0 1 2.56-1.36 2.03 2.03 0 0 1 1.35 2.56Zm-38.86-.36a2.56 2.56 0 1 1-4.89-1.5 2.56 2.56 0 1 1 4.9 1.5Zm-38.55 4.15a3.25 3.25 0 0 1-4.04 2.14 3.24 3.24 0 0 1-2.13-4.04 3.24 3.24 0 0 1 4.03-2.14 3.24 3.24 0 0 1 2.14 4.04Zm-37.59 8.75a4.14 4.14 0 1 1-7.9-2.44 4.14 4.14 0 0 1 7.9 2.44Zm-36.4 13.06a5.04 5.04 0 1 0-9.64-2.98 5.04 5.04 0 0 0 9.64 2.98Zm-34.67 17.19a5.94 5.94 0 1 1-11.37-3.49 5.94 5.94 0 0 1 11.37 3.49Zm-32.58 21.09a6.86 6.86 0 1 1-13.11-4.04 6.86 6.86 0 0 1 13.1 4.04ZM248 212.87a7.75 7.75 0 1 1-14.82-4.58 7.75 7.75 0 1 1 14.81 4.58ZM220.99 241a8.66 8.66 0 1 1-16.57-5.1A8.66 8.66 0 0 1 221 241Zm-23.92 31.06a9.22 9.22 0 1 0-17.61-5.44 9.22 9.22 0 0 0 17.61 5.44Zm-25.25 22.06a9.7 9.7 0 1 0-8.59 17.39 9.7 9.7 0 0 0 8.59-17.39Zm-11.74 47.26a9.85 9.85 0 1 1-18.83-5.8 9.85 9.85 0 0 1 18.83 5.8Zm-12.6 37.36a9.95 9.95 0 1 1-19.03-5.87 9.95 9.95 0 1 1 19.03 5.87Zm-8.58 38.48a9.77 9.77 0 1 0-18.66-5.77 9.77 9.77 0 0 0 18.67 5.77Zm-4.24 39.15a9.5 9.5 0 1 1-18.1-5.58 9.5 9.5 0 0 1 18.1 5.58Zm.08 39.26a8.96 8.96 0 0 1-11.18 5.91 8.96 8.96 0 0 1 5.28-17.1 8.96 8.96 0 0 1 5.9 11.19Zm4.36 38.87a8.18 8.18 0 1 1-15.65-4.82 8.19 8.19 0 1 1 15.65 4.83Zm8.64 37.94a7.29 7.29 0 1 0-13.92-4.3 7.29 7.29 0 0 0 13.92 4.3Zm12.92 36.66a6.38 6.38 0 1 1-12.2-3.76 6.38 6.38 0 0 1 12.2 3.75Zm17.01 34.82a5.46 5.46 0 1 1-10.45-3.23 5.46 5.46 0 1 1 10.45 3.23Zm20.88 32.59a4.57 4.57 0 1 1-8.74-2.7 4.57 4.57 0 0 1 8.74 2.7Zm24.48 29.87a3.68 3.68 0 0 1-4.57 2.42 3.69 3.69 0 0 1-2.42-4.58 3.68 3.68 0 0 1 4.58-2.43 3.68 3.68 0 0 1 2.41 4.59Zm27.81 26.81a2.82 2.82 0 0 1-3.54 1.87 2.82 2.82 0 0 1-1.87-3.54 2.82 2.82 0 0 1 3.54-1.88 2.82 2.82 0 0 1 1.87 3.55Zm31 23.41a2.29 2.29 0 1 1-4.37-1.34 2.29 2.29 0 0 1 4.37 1.35Zm33.63 19.7a1.89 1.89 0 1 0-3.6-1.11 1.89 1.89 0 0 0 3.6 1.11Zm35.93 15.75a1.75 1.75 0 0 1-2.17 1.14 1.75 1.75 0 0 1-1.15-2.16 1.75 1.75 0 0 1 2.17-1.15c.9.28 1.42 1.26 1.14 2.17Zm37.6 11.6a1.75 1.75 0 0 1-2.16 1.15 1.75 1.75 0 0 1-1.14-2.17 1.75 1.75 0 0 1 2.16-1.15c.9.28 1.42 1.26 1.14 2.17Zm38.9 7.33a1.93 1.93 0 1 1-3.7-1.14 1.93 1.93 0 0 1 3.7 1.14Zm39.65 2.96a2.29 2.29 0 1 1-4.37-1.35 2.29 2.29 0 0 1 4.37 1.35Zm39.86-1.57a2.82 2.82 0 0 1-3.54 1.88 2.82 2.82 0 0 1-1.88-3.55 2.82 2.82 0 0 1 3.55-1.87 2.82 2.82 0 0 1 1.87 3.54Zm39.66-5.99a3.66 3.66 0 1 0-7-2.17 3.66 3.66 0 0 0 7 2.17Zm38.79-10.39a4.61 4.61 0 1 1-8.81-2.73 4.61 4.61 0 0 1 8.81 2.73Zm37.34-14.59c-.9 2.9-4 4.53-6.9 3.64a5.53 5.53 0 0 1 3.25-10.55c2.9.9 4.54 4 3.65 6.9Zm35.4-18.66a6.42 6.42 0 1 1-12.27-3.78 6.42 6.42 0 0 1 12.27 3.78Zm33.09-22.46a7.32 7.32 0 1 0-14-4.33 7.32 7.32 0 0 0 14 4.33Zm30.25-25.98a8.25 8.25 0 0 1-10.29 5.45 8.25 8.25 0 0 1-5.43-10.3 8.25 8.25 0 0 1 10.3-5.45 8.25 8.25 0 0 1 5.42 10.3Zm26.93-29.19a8.98 8.98 0 1 1-17.16-5.27 8.98 8.98 0 0 1 17.16 5.27Zm23.19-32.07a9.51 9.51 0 1 1-18.2-5.62 9.51 9.51 0 1 1 18.2 5.62Zm19.11-34.57a9.8 9.8 0 1 1-18.75-5.77 9.8 9.8 0 0 1 18.75 5.77ZM806.13 582a10.02 10.02 0 0 1-12.5 6.62 10.02 10.02 0 0 1 5.9-19.14 10.02 10.02 0 0 1 6.6 12.52Zm10.9-41.92a9.91 9.91 0 1 0-19.75 1.87 9.91 9.91 0 1 0 19.75-1.87Zm5.61-35.11a9.73 9.73 0 1 0-18.59-5.75 9.73 9.73 0 0 0 18.6 5.75Zm1.24-39.55a9.25 9.25 0 1 1-17.67-5.45 9.25 9.25 0 1 1 17.67 5.45Zm-3.35-39.48a8.7 8.7 0 1 1-16.64-5.13 8.7 8.7 0 0 1 16.64 5.13Zm-8.19-38.99a7.8 7.8 0 1 1-14.9-4.6 7.77 7.77 0 0 1 9.75-5.15 7.77 7.77 0 0 1 5.15 9.75Zm-12.54-37.89a6.9 6.9 0 1 1-13.18-4.08 6.9 6.9 0 0 1 13.19 4.08Zm-16.72-36.31a5.98 5.98 0 1 1-11.44-3.51 5.98 5.98 0 0 1 11.44 3.51Zm-20.72-34.31a5.1 5.1 0 0 1-6.35 3.36 5.1 5.1 0 0 1 3-9.72 5.1 5.1 0 0 1 3.35 6.36Zm-24.45-31.84a4.14 4.14 0 1 0-7.9-2.44 4.14 4.14 0 0 0 7.9 2.44Zm-27.87-28.9a3.22 3.22 0 0 1-4.03 2.15 3.24 3.24 0 0 1-2.13-4.04 3.24 3.24 0 0 1 4.03-2.14 3.24 3.24 0 0 1 2.13 4.04Zm-30.74-25.56a2.6 2.6 0 1 1-4.97-1.53 2.57 2.57 0 0 1 3.25-1.73 2.57 2.57 0 0 1 1.72 3.26Zm-33.32-21.91a2.05 2.05 0 1 0-3.91-1.21 2.05 2.05 0 0 0 3.9 1.2Zm-35.31-17.87a1.85 1.85 0 1 1-3.54-1.08 1.85 1.85 0 0 1 3.54 1.08Z"/>
</svg>