<svg width="320" height="55" viewBox="0 0 320 55" fill="none" xmlns="http://www.w3.org/2000/svg">
<g clip-path="url(#clip0_5048_6319)">
<path d="M0 0.145996H1.56436L10.2732 13.5091V0.145996H11.6924V15.712H10.1119L1.41921 2.36509V15.7282H0V0.145996Z" fill="#F68625"/>
<path d="M15.9992 10.4152C15.9992 13.2336 17.4668 14.8696 19.6118 14.8696C21.3535 14.8696 22.6276 13.8978 22.8856 12.2456H24.1758C23.9017 14.5133 22.0793 16.0197 19.515 16.0197C16.4992 16.0197 14.6445 13.8816 14.6445 10.1561C14.6445 6.4306 16.5153 4.19531 19.5634 4.19531C22.6115 4.19531 24.321 6.25242 24.321 9.91311V10.3505H15.9831V10.4152H15.9992ZM22.9985 9.2976C22.8856 6.80315 21.5471 5.36155 19.5473 5.36155C17.5475 5.36155 16.1283 6.83554 15.9992 9.2976H22.9985Z" fill="#F68625"/>
<path d="M28.6734 4.48662H30.7377V5.55567H28.6734V13.7355C28.6734 14.5616 28.7862 14.9504 29.4959 14.9504C29.8345 14.9504 30.2538 14.837 30.7538 14.7398V15.7764C30.1732 15.9222 29.6571 16.0194 29.1572 16.0194C27.7057 16.0194 27.3993 15.2905 27.3993 13.7517V5.53947H25.8672V4.47042H27.3993V1.24707H28.6895V4.47042L28.6734 4.48662Z" fill="#F68625"/>
<path d="M33.125 0.145996H34.4152V6.23634C35.2538 4.89193 36.5118 4.19543 38.1245 4.19543C39.6405 4.19543 40.8662 4.79475 41.4629 5.78281C41.9144 6.51171 41.9144 7.51596 41.9144 8.87657V15.712H40.6242V8.89277C40.6242 6.49551 40.2211 5.34547 37.8665 5.34547C35.8183 5.34547 34.4152 6.77087 34.4152 9.08715V15.712H33.125V0.145996Z" fill="#F68625"/>
<path d="M45.8977 10.4152C45.8977 13.2336 47.3653 14.8696 49.5102 14.8696C51.252 14.8696 52.526 13.8978 52.7841 12.2456H54.0743C53.8001 14.5133 51.9777 16.0197 49.4134 16.0197C46.3976 16.0197 44.543 13.8816 44.543 10.1561C44.543 6.4306 46.4137 4.19531 49.4618 4.19531C52.5099 4.19531 54.2194 6.25242 54.2194 9.91311V10.3505H45.8815V10.4152H45.8977ZM52.897 9.2976C52.7841 6.80315 51.4455 5.36155 49.4457 5.36155C47.4459 5.36155 46.0106 6.83554 45.8815 9.2976H52.8808H52.897Z" fill="#F68625"/>
<path d="M56.8672 4.48679H58.1251V6.46291C58.8025 4.90793 59.9637 4.21143 61.5764 4.21143H61.7215V5.55584H61.5441C59.3186 5.55584 58.1574 6.90025 58.1574 9.49189V15.728H56.8672V4.48679Z" fill="#F68625"/>
<path d="M63.9297 0.145996H65.2199V15.712H63.9297V0.145996Z" fill="#F68625"/>
<path d="M71.7015 16.0035C69.4275 16.0035 67.9922 14.7076 67.9922 12.7639C67.9922 11.4681 68.6212 10.4962 69.7823 9.94551C70.9596 9.41098 72.3305 9.37859 73.8142 9.24901C75.3947 8.92505 75.7817 8.94125 75.7817 7.79121C75.7817 6.10665 75.0399 5.34535 73.0078 5.34535C70.9758 5.34535 69.9275 6.18763 69.8307 7.8398H68.5566C68.605 5.63691 70.2661 4.19531 72.9917 4.19531C75.7172 4.19531 77.088 5.36155 77.088 7.59684V13.7196C77.088 14.4485 77.1042 14.7562 77.8944 14.7562C77.9751 14.7562 78.1525 14.7562 78.3621 14.74V15.7119C77.9589 15.7929 77.6364 15.8253 77.4428 15.8253C76.3784 15.8253 75.8462 15.307 75.8462 14.2703V14.0921C74.6689 15.3717 73.282 16.0035 71.7015 16.0035ZM71.8305 10.3505C70.1855 10.7878 69.3308 11.5815 69.3308 12.7315C69.3308 14.0111 70.2984 14.8534 71.8466 14.8534C74.169 14.8534 75.7979 13.5576 75.7979 11.3871V9.79973C74.8302 10.1723 73.4755 10.2533 71.8305 10.3343V10.3505Z" fill="#F68625"/>
<path d="M80.4453 4.48679H81.6871V6.28474C82.5257 4.89173 83.7676 4.21143 85.3964 4.21143C87.0253 4.21143 88.1542 4.79454 88.7671 5.7988C89.2025 6.49531 89.2186 7.38618 89.2186 8.56862V15.728H87.9284V8.7144C87.9284 6.44671 87.4285 5.36147 85.1545 5.36147C83.1063 5.36147 81.7516 6.77067 81.7516 9.10314V15.728H80.4614V4.48679H80.4453Z" fill="#F68625"/>
<path d="M101.972 15.712H100.682V13.8007C99.8107 15.2747 98.4882 16.0036 96.7304 16.0036C93.779 16.0036 91.8438 13.8169 91.8438 10.0914C91.8438 6.36593 93.8274 4.17923 96.8271 4.17923C98.6011 4.17923 99.8913 4.94053 100.682 6.41452V0.145996H101.972V15.712ZM96.9884 14.8697C99.4075 14.8697 100.778 13.2014 100.778 10.1076C100.778 7.01383 99.3752 5.34547 96.9884 5.34547C94.6015 5.34547 93.1662 7.03003 93.1662 10.1076C93.1662 13.1852 94.6177 14.8697 96.9884 14.8697Z" fill="#F68625"/>
<path d="M106.085 12.2132C106.101 13.7682 107.31 14.8696 109.036 14.8696C110.955 14.8696 112.036 14.0111 112.036 12.7639C112.036 11.3871 111.004 11.1441 109.02 10.6582C106.343 10.0103 104.988 9.37859 104.988 7.43486C104.988 5.49113 106.536 4.19531 108.842 4.19531C111.374 4.19531 112.923 5.53972 113.068 7.77501H111.729C111.649 6.25242 110.584 5.34535 108.826 5.34535C107.246 5.34535 106.327 6.13904 106.327 7.27288C106.327 8.92505 107.633 9.07083 109.971 9.63775C112.342 10.2209 113.374 10.9822 113.374 12.7963C113.374 14.6105 111.729 16.0197 109.101 16.0197C106.472 16.0197 104.811 14.5295 104.746 12.2132H106.085Z" fill="#F68625"/>
<path d="M122.586 0.145996H124.005V15.712H122.586V0.145996Z" fill="black"/>
<path d="M127.617 4.48679H128.875V6.28474C129.714 4.89173 130.939 4.21143 132.584 4.21143C134.229 4.21143 135.342 4.79454 135.955 5.7988C136.391 6.49531 136.407 7.38618 136.407 8.56862V15.728H135.116V8.7144C135.116 6.44671 134.616 5.36147 132.343 5.36147C130.294 5.36147 128.94 6.77067 128.94 9.10314V15.728H127.649V4.48679H127.617Z" fill="black"/>
<path d="M140.421 12.2132C140.437 13.7682 141.646 14.8696 143.372 14.8696C145.291 14.8696 146.372 14.0111 146.372 12.7639C146.372 11.3871 145.339 11.1441 143.356 10.6582C140.679 10.0103 139.324 9.37859 139.324 7.43486C139.324 5.49113 140.872 4.19531 143.178 4.19531C145.694 4.19531 147.259 5.53972 147.404 7.77501H146.065C145.985 6.25242 144.92 5.34535 143.162 5.34535C141.598 5.34535 140.663 6.13904 140.663 7.27288C140.663 8.92505 141.969 9.07083 144.307 9.63775C146.678 10.2209 147.71 10.9822 147.71 12.7963C147.71 14.6105 146.065 16.0197 143.436 16.0197C140.808 16.0197 139.147 14.5295 139.082 12.2132H140.421Z" fill="black"/>
<path d="M152.178 4.48662H154.242V5.55567H152.178V13.7355C152.178 14.5616 152.291 14.9504 153 14.9504C153.339 14.9504 153.758 14.837 154.258 14.7398V15.7764C153.678 15.9222 153.162 16.0194 152.662 16.0194C151.21 16.0194 150.888 15.2905 150.888 13.7517V5.53947H149.355V4.47042H150.888V1.24707H152.178V4.47042V4.48662Z" fill="black"/>
<path d="M156.758 0.145996H158.048V2.08972H156.758V0.145996ZM156.758 4.47079H158.048V15.712H156.758V4.48699V4.47079Z" fill="black"/>
<path d="M163.096 4.48662H165.161V5.55567H163.096V13.7355C163.096 14.5616 163.209 14.9504 163.919 14.9504C164.257 14.9504 164.677 14.837 165.161 14.7398V15.7764C164.58 15.9222 164.064 16.0194 163.564 16.0194C162.112 16.0194 161.79 15.2905 161.79 13.7517V5.53947H160.258V4.47042H161.79V1.24707H163.08V4.47042L163.096 4.48662Z" fill="black"/>
<path d="M176.321 15.7118H175.079V13.9139C174.208 15.3393 172.998 16.0196 171.321 16.0196C168.773 16.0196 167.531 14.6752 167.531 12.035V4.48682H168.821V11.7434C168.821 13.8815 169.515 14.8858 171.563 14.8858C173.611 14.8858 175.03 13.4604 175.03 11.1441V4.48682H176.321V15.728V15.7118Z" fill="black"/>
<path d="M181.256 4.48662H183.32V5.55567H181.256V13.7355C181.256 14.5616 181.369 14.9504 182.078 14.9504C182.417 14.9504 182.836 14.837 183.336 14.7398V15.7764C182.756 15.9222 182.24 16.0194 181.74 16.0194C180.288 16.0194 179.966 15.2905 179.966 13.7517V5.53947H178.434V4.47042H179.966V1.24707H181.256V4.47042V4.48662Z" fill="black"/>
<path d="M186.48 10.4152C186.48 13.2336 187.947 14.8696 190.092 14.8696C191.834 14.8696 193.108 13.8978 193.366 12.2456H194.656C194.382 14.5133 192.56 16.0197 189.995 16.0197C186.98 16.0197 185.125 13.8816 185.125 10.1561C185.125 6.4306 186.996 4.19531 190.044 4.19531C193.092 4.19531 194.801 6.25242 194.801 9.91311V10.3505H186.464V10.4152H186.48ZM193.479 9.2976C193.366 6.80315 192.044 5.36155 190.028 5.36155C188.012 5.36155 186.609 6.83554 186.464 9.2976H193.463H193.479Z" fill="black"/>
<path d="M204.141 5.53971H202.496V4.47066H204.141V2.41355C204.141 0.696587 204.98 -0.0161133 206.786 -0.0161133C206.996 -0.0161133 207.221 8.44535e-05 207.447 0.0486777V1.21491C207.173 1.19872 206.931 1.13393 206.738 1.13393C205.738 1.13393 205.415 1.53887 205.415 2.54313V4.47066H207.447V5.53971H205.415V15.7119H204.125V5.53971H204.141Z" fill="black"/>
<path d="M214.14 4.19531C217.398 4.19531 219.301 6.33341 219.301 10.1075C219.301 13.8816 217.398 16.0035 214.14 16.0035C210.882 16.0035 209.012 13.8816 209.012 10.1075C209.012 6.33341 210.882 4.19531 214.14 4.19531ZM214.14 14.8534C216.527 14.8534 217.962 13.1851 217.962 10.1075C217.962 7.02992 216.543 5.34535 214.14 5.34535C211.737 5.34535 210.35 7.02992 210.35 10.1075C210.35 13.1851 211.769 14.8534 214.14 14.8534Z" fill="black"/>
<path d="M221.914 4.48679H223.172V6.46291C223.833 4.90793 225.011 4.21143 226.623 4.21143H226.785V5.55584H226.607C224.382 5.55584 223.22 6.90025 223.22 9.49189V15.728H221.93V4.48679H221.914Z" fill="black"/>
<path d="M138.293 31.1969H133.406L139.39 48.0587C139.454 48.2207 139.486 48.3989 139.486 48.5284C139.486 50.1968 138.615 51.0067 136.858 51.0067C136.616 51.0067 136.229 51.0067 135.825 50.9419V54.554C136.599 54.6512 137.228 54.6836 137.696 54.6836C140.889 54.6836 142.067 53.6793 143.05 50.8447L143.905 48.3827L138.293 31.1807V31.1969Z" fill="black"/>
<path d="M308.422 31.1969H303.535L309.518 48.0587C309.583 48.2207 309.615 48.3989 309.615 48.5284C309.615 50.1968 308.744 51.0067 306.986 51.0067C306.745 51.0067 306.357 51.0067 305.954 50.9419V54.554C306.728 54.6512 307.357 54.6836 307.825 54.6836C311.018 54.6836 312.212 53.6793 313.179 50.8447L314.034 48.3827L308.422 31.1807V31.1969Z" fill="black"/>
<path d="M314.857 35.4246C316.018 31.116 319.308 28.249 319.308 28.249C319.308 28.249 320.711 32.3794 319.55 36.7042C318.389 41.029 315.099 43.8798 315.099 43.8798C315.099 43.8798 313.696 39.7332 314.873 35.4246H314.857Z" fill="#F68625"/>
<path d="M0 25.2847H6.85415L11.3214 42.4705L15.7242 25.2847H22.6106V47.8643H18.2562V29.6419L13.6922 47.8643H8.96684L4.33827 29.6419V47.8643H0V25.2847Z" fill="black"/>
<path d="M41.994 47.8643H37.6396V45.8882C36.3816 47.4918 34.7044 48.3017 32.6078 48.3017C28.9469 48.3017 27.1406 46.3903 27.1406 42.5515V31.1807H31.5757V41.2719C31.5757 43.5395 32.2369 44.5762 34.1399 44.5762C36.2042 44.5762 37.5428 43.2642 37.5428 41.0613V31.1969H41.9778V47.8805L41.994 47.8643Z" fill="black"/>
<path d="M46.3516 25.2847H50.7866V47.8643H46.3516V25.2847Z" fill="black"/>
<path d="M59.9604 48.0909C56.2995 48.0909 55.5254 46.8275 55.5254 43.345V34.3228H53.332V31.1805H55.5254V26.6289H59.9281V31.1805H62.4924V34.3228H59.9281V43.5555C59.9281 44.4302 60.2023 44.6246 61.3957 44.6246H62.4924V47.9937C61.2667 48.0261 60.4281 48.0909 59.9604 48.0909Z" fill="black"/>
<path d="M65.4609 25.2847H69.896V29.3341H65.4609V25.2847ZM65.4609 31.1968H69.896V47.8805H65.4609V31.1968Z" fill="black"/>
<path d="M74.2812 31.1968H78.5066V33.4645C79.7968 31.5208 81.2967 30.6299 83.4577 30.6299C87.4896 30.6299 90.3441 34.1124 90.3441 39.4576C90.3441 44.8029 87.409 48.4474 83.5223 48.4474C81.3934 48.4474 79.7001 47.5403 78.6195 45.8072V54.5701H74.2974V31.1968H74.2812ZM82.2321 34.4687C79.8775 34.4687 78.6034 36.2343 78.6034 39.652C78.6034 42.8268 79.9903 44.5923 82.3288 44.5923C84.5221 44.5923 85.9252 42.7782 85.9252 39.652C85.9252 36.2667 84.6189 34.4687 82.2321 34.4687Z" fill="black"/>
<path d="M97.8286 48.4638C94.6354 48.4638 92.7969 46.5848 92.7969 43.1509C92.7969 39.717 94.5386 38.4374 98.4253 37.838C101.86 37.3035 103.054 37.5627 103.054 35.9591C103.054 34.5823 102.248 34.0802 100.328 34.0802C98.4092 34.0802 97.5383 34.8415 97.5383 36.1535V36.3964H93.3775V36.0887C93.3775 32.7034 95.8772 30.5977 100.167 30.5977C104.86 30.5977 107.36 32.2984 107.36 35.3112V44.8031C107.36 46.0341 107.553 46.7468 108.295 47.1193V47.8806H103.667C103.36 47.2813 103.199 46.5848 103.167 45.8073C102.07 47.5405 100.232 48.48 97.8286 48.48V48.4638ZM99.1349 40.8022C97.7319 41.2072 97.0384 41.7417 97.0384 43.0375C97.0384 44.3333 97.877 45.046 99.2317 45.046C101.635 45.046 103.102 43.6044 103.102 41.2396V39.6684C101.409 40.4459 99.9736 40.5431 99.1349 40.8022Z" fill="black"/>
<path d="M111.344 31.1969H115.472V34.0477C116.634 31.7476 118.133 30.7109 120.262 30.7109C120.472 30.7109 120.698 30.7109 120.923 30.7433V35.2625H119.456C117.053 35.2625 115.795 36.5259 115.795 39.0366V47.8643H111.36V31.1807L111.344 31.1969Z" fill="black"/>
<path d="M129.246 48.0909C125.585 48.0909 124.811 46.8275 124.811 43.345V34.3228H122.617V31.1805H124.811V26.6289H129.229V31.1805H131.794V34.3228H129.229V43.5555C129.229 44.4302 129.504 44.6246 130.697 44.6246H131.794V47.9937C130.568 48.0261 129.729 48.0909 129.262 48.0909H129.246Z" fill="black"/>
<path d="M152.098 25.2847H160.919C167.806 25.2847 171.176 28.9616 171.176 36.5907C171.176 40.8021 169.87 43.9769 167.515 45.8558C165.322 47.6213 162.887 47.8643 159.661 47.8643H152.098V25.2847ZM160.355 43.7825C164.645 43.7825 166.451 41.6768 166.451 36.5907C166.451 31.5046 164.725 29.2369 160.919 29.2369H156.629V43.7825H160.355Z" fill="black"/>
<path d="M189.448 42.8108C188.545 46.2933 185.69 48.4314 181.755 48.4314C177.03 48.4314 173.934 45.0461 173.934 39.4093C173.934 33.7725 176.901 30.5815 181.691 30.5815C186.755 30.5815 189.674 33.7887 189.674 39.5389C189.674 39.9114 189.674 40.3002 189.642 40.7051H178.53C178.659 43.313 179.804 44.6574 181.965 44.6574C183.465 44.6574 184.433 44.0905 184.997 42.8108H189.432H189.448ZM185.062 37.7895C184.997 35.5219 183.836 34.3394 181.772 34.3394C179.868 34.3394 178.707 35.538 178.514 37.7895H185.045H185.062Z" fill="black"/>
<path d="M192.918 31.1969H197.143V33.0434C198.369 31.5046 199.901 30.7109 201.74 30.7109C203.836 30.7109 205.272 31.456 206.368 33.1568C207.529 31.5532 209.126 30.7109 211.094 30.7109C214.416 30.7109 216.528 32.7843 216.528 36.202V47.8481H212.158V37.109C212.158 35.4731 211.223 34.566 209.69 34.566C208.013 34.566 206.884 35.7646 206.884 37.7408V47.8643H202.53V37.1576C202.53 35.4893 201.627 34.5822 200.127 34.5822C198.434 34.5822 197.321 35.7808 197.321 37.7893V47.8805H192.934V31.1969H192.918Z" fill="black"/>
<path d="M228.219 30.5977C233.445 30.5977 236.638 33.9668 236.638 39.5226C236.638 45.0784 233.445 48.4476 228.219 48.4476C222.994 48.4476 219.801 45.0946 219.801 39.5226C219.801 33.9506 222.994 30.5977 228.219 30.5977ZM228.219 44.7059C230.687 44.7059 232.106 42.8593 232.106 39.5226C232.106 36.1859 230.703 34.3717 228.219 34.3717C225.736 34.3717 224.316 36.1859 224.316 39.5226C224.316 42.8593 225.752 44.7059 228.219 44.7059Z" fill="black"/>
<path d="M254.409 41.5798C254.038 45.8236 251.119 48.4314 246.862 48.4314C242.088 48.4314 239.137 45.1271 239.137 39.5065C239.137 33.8859 242.136 30.5815 247.023 30.5815C251.345 30.5815 254.055 33.0274 254.377 37.0768H249.974C249.716 35.3113 248.7 34.3394 247.071 34.3394C244.846 34.3394 243.781 36.105 243.781 39.5551C243.781 42.7946 244.975 44.544 247.071 44.544C248.733 44.544 249.732 43.5397 250.039 41.5636H254.409V41.5798Z" fill="black"/>
<path d="M257.523 31.1969H261.652V34.0477C262.813 31.7476 264.313 30.7109 266.442 30.7109C266.668 30.7109 266.877 30.7109 267.103 30.7433V35.2625H265.636C263.233 35.2625 261.975 36.5259 261.975 39.0366V47.8643H257.54V31.1807L257.523 31.1969Z" fill="black"/>
<path d="M274.02 48.4638C270.827 48.4638 268.988 46.5848 268.988 43.1509C268.988 39.717 270.746 38.4374 274.617 37.838C278.052 37.3035 279.245 37.5627 279.245 35.9591C279.245 34.5823 278.439 34.0802 276.52 34.0802C274.601 34.0802 273.746 34.8415 273.746 36.1535V36.3964H269.585V36.0887C269.585 32.7034 272.085 30.5977 276.375 30.5977C281.068 30.5977 283.567 32.2984 283.567 35.3112V44.8031C283.567 46.0341 283.761 46.7468 284.503 47.1193V47.8806H279.874C279.568 47.2813 279.407 46.5848 279.374 45.8073C278.278 47.5405 276.439 48.48 274.036 48.48L274.02 48.4638ZM275.326 40.8022C273.923 41.2072 273.23 41.7417 273.23 43.0375C273.23 44.3333 274.068 45.046 275.423 45.046C277.826 45.046 279.294 43.6044 279.294 41.2396V39.6684C277.6 40.4459 276.165 40.5431 275.326 40.8022Z" fill="black"/>
<path d="M302.163 41.5798C301.792 45.8236 298.873 48.4314 294.631 48.4314C289.841 48.4314 286.906 45.1271 286.906 39.5065C286.906 33.8859 289.906 30.5815 294.776 30.5815C299.099 30.5815 301.808 33.0274 302.131 37.0768H297.728C297.47 35.3113 296.454 34.3394 294.825 34.3394C292.599 34.3394 291.535 36.105 291.535 39.5551C291.535 42.7946 292.728 44.544 294.825 44.544C296.486 44.544 297.486 43.5397 297.792 41.5636H302.163V41.5798Z" fill="black"/>
</g>
<defs>
<clipPath id="clip0_5048_6319">
<rect width="320" height="54.6835" fill="white"/>
</clipPath>
</defs>
</svg>
