<svg baseProfile="tiny" xmlns="http://www.w3.org/2000/svg" viewBox="0 0 89.4 42.1" overflow="scroll">
	<path fill="#FFF" d="M1 1h87.4v40.1H1z" />
	<path fill="#0017a0" d="M87.4 2v38.1H2V2h85.4m2-2H0v42.1h89.4V0z" />
	<g>
		<path fill="#FFF" d="M19.5 27.6v-13h1.7V26h6.4v1.5h-8.1z" />
		<path fill="#0017a0" d="M21.3 14.6h-1.8v13h8.2V26h-6.4V14.6" />
		<path fill="#FFF" d="M29.2 21.2c0-2.2.6-3.8 1.7-5.1 1.2-1.2 2.7-1.8 4.5-1.8 1.2 0 2.3.3 3.2.9s1.7 1.4 2.2 2.4c.5 1 .8 2.2.8 3.5 0 1.3-.3 2.5-.8 3.5s-1.3 1.8-2.3 2.4c-1 .5-2 .8-3.2.8-1.2 0-2.3-.3-3.3-.9-1-.6-1.7-1.4-2.2-2.4-.4-1-.6-2.1-.6-3.3zm1.8.1c0 1.6.4 2.8 1.3 3.7.8.9 1.9 1.4 3.2 1.4 1.3 0 2.4-.5 3.2-1.4.8-.9 1.3-2.2 1.3-3.9 0-1.1-.2-2-.5-2.8-.4-.8-.9-1.4-1.6-1.8s-1.5-.7-2.3-.7c-1.2 0-2.3.4-3.1 1.3-1.1.8-1.5 2.2-1.5 4.2z" />
		<path fill="#0017a0" d="M35.4 14.3c-1.8 0-3.3.6-4.5 1.8-1.2 1.2-1.7 2.9-1.7 5.1 0 1.1.2 2.2.7 3.2.5 1 1.2 1.8 2.2 2.4 1 .6 2.1.9 3.3.9 1.1 0 2.2-.3 3.2-.8s1.7-1.3 2.3-2.4c.5-1 .8-2.2.8-3.5 0-1.3-.3-2.5-.8-3.5s-1.2-1.8-2.2-2.4c-1-.5-2.1-.8-3.3-.8zm0 12c-1.3 0-2.3-.4-3.2-1.4-.8-.9-1.3-2.1-1.3-3.7 0-2 .4-3.3 1.3-4.2.9-.8 1.9-1.3 3.1-1.3.9 0 1.6.2 2.3.7.7.4 1.2 1 1.6 1.8.4.8.5 1.7.5 2.8 0 1.7-.4 3-1.3 3.9-.7 1-1.7 1.4-3 1.4z" />
		<g>
			<path fill="#FFF" d="M49.9 22.5V21h5.5v4.8c-.8.7-1.7 1.2-2.6 1.5-.9.3-1.8.5-2.8.5-1.3 0-2.4-.3-3.5-.8-1-.5-1.8-1.3-2.4-2.4-.5-1-.8-2.2-.8-3.5 0-1.3.3-2.4.8-3.5s1.3-1.9 2.3-2.4 2.1-.8 3.4-.8c.9 0 1.8.2 2.5.5.8.3 1.4.7 1.8 1.3.4.5.8 1.3 1 2.1l-1.6.4c-.2-.7-.4-1.2-.7-1.6-.3-.4-.7-.7-1.2-.9-.5-.2-1.1-.3-1.8-.3-.8 0-1.5.1-2 .4-.6.2-1 .6-1.4.9s-.6.8-.8 1.3c-.3.8-.5 1.7-.5 2.6 0 1.2.2 2.1.6 2.9.4.8 1 1.4 1.7 1.7.8.4 1.6.6 2.4.6.7 0 1.5-.1 2.2-.4.7-.3 1.2-.6 1.6-.9v-2.4h-3.7z" />
			<path fill="#0017a0" d="M49.9 14.4c-1.3 0-2.4.3-3.4.8s-1.8 1.3-2.3 2.4c-.5 1.1-.8 2.3-.8 3.5 0 1.3.3 2.4.8 3.5.5 1 1.3 1.8 2.4 2.4 1 .5 2.2.8 3.5.8.9 0 1.9-.2 2.8-.5.9-.3 1.8-.8 2.6-1.5V21H50v1.5h3.8v2.4c-.4.3-.9.6-1.6.9-.7.3-1.4.4-2.2.4-.9 0-1.7-.2-2.4-.6-.8-.4-1.3-1-1.7-1.7-.4-.8-.6-1.7-.6-2.9 0-.9.2-1.8.5-2.6.2-.5.5-.9.8-1.3.4-.4.8-.7 1.4-.9.6-.2 1.3-.4 2-.4s1.3.1 1.8.3c.5.2 1 .5 1.2.9.3.4.5.9.7 1.6l1.6-.4c-.2-.9-.6-1.6-1-2.1s-1-1-1.8-1.3c-.8-.3-1.7-.4-2.6-.4z" />
		</g>
		<g>
			<path fill="#FFF" d="M57.4 21.2c0-2.2.6-3.8 1.7-5.1s2.7-1.8 4.5-1.8c1.2 0 2.3.3 3.2.9 1 .6 1.7 1.4 2.2 2.4.5 1 .8 2.2.8 3.5 0 1.3-.3 2.5-.8 3.5s-1.3 1.8-2.3 2.4c-1 .5-2 .8-3.2.8-1.2 0-2.3-.3-3.3-.9-1-.6-1.7-1.4-2.2-2.4-.3-1-.6-2.1-.6-3.3zm1.8.1c0 1.6.4 2.8 1.3 3.7.8.9 1.9 1.4 3.2 1.4 1.3 0 2.4-.5 3.2-1.4.8-.9 1.3-2.2 1.3-3.9 0-1.1-.2-2-.5-2.8-.4-.8-.9-1.4-1.6-1.8-.7-.4-1.5-.7-2.3-.7-1.2 0-2.3.4-3.1 1.3-1.1.8-1.5 2.2-1.5 4.2z" />
			<path fill="#0017a0" d="M63.6 14.3c-1.8 0-3.3.6-4.5 1.8-1.2 1.2-1.7 2.9-1.7 5.1 0 1.1.2 2.2.7 3.2.5 1 1.2 1.8 2.2 2.4 1 .6 2.1.9 3.3.9 1.1 0 2.2-.3 3.2-.8s1.7-1.3 2.3-2.4c.5-1 .8-2.2.8-3.5 0-1.3-.3-2.5-.8-3.5s-1.2-1.8-2.2-2.4c-1-.5-2.1-.8-3.3-.8zm0 12c-1.3 0-2.3-.4-3.2-1.4-.8-.9-1.3-2.1-1.3-3.7 0-2 .4-3.3 1.3-4.2.9-.8 1.9-1.3 3.1-1.3.9 0 1.6.2 2.3.7.7.4 1.2 1 1.6 1.8.4.8.5 1.7.5 2.8 0 1.7-.4 3-1.3 3.9-.6 1-1.7 1.4-3 1.4z" />
		</g>
	</g>
</svg>
