<?xml version="1.0" encoding="UTF-8"?>
<svg width="285px" height="76px" viewBox="0 0 285 76" version="1.1" xmlns="http://www.w3.org/2000/svg" xmlns:xlink="http://www.w3.org/1999/xlink">
    <title>logo_reversed</title>
    <g id="logo_reversed" stroke="none" stroke-width="1" fill="none" fill-rule="evenodd">
        <g id="Group-123" transform="translate(0.000000, 0.000000)" fill="#FFFFFF">
            <path d="M5.2612,67.5117 C5.9912,67.5117 6.5992,67.2687 7.0242,66.8427 C7.4502,66.4177 7.6932,65.6877 7.6932,64.7157 C7.6932,63.9247 7.5102,63.3777 7.0852,63.0127 C6.6592,62.6487 6.0512,62.5267 5.2612,62.5267 C4.9572,62.5267 4.6532,62.5267 4.3492,62.5877 L3.9242,62.5877 L3.9242,67.4507 C4.1672,67.5117 4.6532,67.5117 5.2612,67.5117 M2.4652,62.7087 L1.3702,62.5267 L1.3702,61.8577 L3.1942,61.8577 C3.4982,61.8577 3.8632,61.8577 4.1672,61.7977 C4.6532,61.7367 5.1402,61.7367 5.5652,61.7367 C6.9022,61.7367 7.8142,61.9797 8.3612,62.4657 C8.9082,62.9527 9.2122,63.6817 9.2122,64.6547 C9.2122,65.3837 9.0302,65.9917 8.7262,66.5387 C8.3612,67.0857 7.9362,67.5117 7.3282,67.7547 C6.7202,68.0587 6.0512,68.1807 5.2612,68.1807 L4.4712,68.1807 C4.1672,68.1807 4.0452,68.1807 3.9852,68.1197 L3.9852,71.1587 L5.8692,71.2807 L5.8692,71.9497 L1.3702,71.9497 L1.3702,71.2807 L2.5252,71.1587 C2.4652,71.2197 2.4652,62.7087 2.4652,62.7087" id="Fill-1"></path>
            <path d="M10.8545,61.8579 L9.6995,61.7359 L9.6995,61.1289 L11.9485,60.8849 L12.2525,61.0679 L12.2525,64.2289 L12.1925,65.3839 C12.4955,65.1409 12.8605,64.8979 13.4075,64.6539 C13.8945,64.4109 14.4415,64.2899 14.9275,64.2899 C15.4745,64.2899 15.9605,64.4109 16.2645,64.5939 C16.5685,64.8369 16.8115,65.1409 16.9335,65.6269 C17.0555,66.0529 17.1155,66.6609 17.1155,67.4509 L17.1155,71.2809 L18.0885,71.4019 L18.0885,72.0709 L14.8055,72.0709 L14.8055,71.4019 L15.7175,71.2809 L15.7175,67.4509 C15.7175,66.9039 15.6565,66.4779 15.5965,66.1739 C15.5355,65.8699 15.4135,65.6269 15.1705,65.5059 C14.9885,65.3839 14.6845,65.2619 14.2585,65.2619 C13.9545,65.2619 13.5905,65.3229 13.2255,65.5059 C12.8605,65.6879 12.4955,65.8699 12.2525,66.0529 L12.2525,71.2199 L13.2255,71.3409 L13.2255,72.0099 L10.0035,72.0099 L10.0035,71.3409 L10.8545,71.2199 L10.8545,61.8579 Z" id="Fill-3"></path>
            <path d="M20.0337,62.831 C19.9117,62.649 19.7907,62.466 19.7907,62.223 C19.7907,61.919 19.8507,61.676 20.0337,61.494 C20.2157,61.311 20.4587,61.19 20.7627,61.19 C21.0667,61.19 21.3107,61.25 21.4317,61.433 C21.5537,61.615 21.6747,61.797 21.6747,62.041 C21.6747,62.345 21.6147,62.588 21.4317,62.77 C21.2497,62.953 21.0067,63.013 20.7027,63.013 C20.3987,63.074 20.2157,63.013 20.0337,62.831 L20.0337,62.831 Z M20.1547,65.506 L19.1217,65.263 L19.1217,64.533 L21.2497,64.29 L21.5537,64.533 L21.5537,71.281 L22.6477,71.403 L22.6477,72.071 L18.9997,72.071 L18.9997,71.403 L20.0947,71.281 L20.0947,65.506 L20.1547,65.506 Z" id="Fill-5"></path>
            <polygon id="Fill-7" points="24.5933 61.8579 23.4383 61.6759 23.4383 61.0679 25.6873 60.8249 25.9913 61.0679 25.9913 71.2809 27.1463 71.4019 27.1463 72.0709 23.4383 72.0709 23.4383 71.4019 24.5933 71.2809"></polygon>
            <path d="M31.7666,71.0376 C32.0706,70.9156 32.3746,70.7336 32.6176,70.4906 L32.6176,68.1196 C31.6456,68.1196 30.8546,68.3016 30.3686,68.6056 C29.8816,68.9096 29.5776,69.3356 29.5776,69.8216 C29.5776,70.3086 29.6996,70.6726 29.9426,70.9156 C30.1856,71.1596 30.4896,71.2806 30.9156,71.2806 C31.1586,71.2806 31.4626,71.2196 31.7666,71.0376 M29.3346,68.1196 C30.1856,67.6936 31.2806,67.5116 32.6176,67.4506 L32.6176,67.0866 C32.6176,66.6606 32.5566,66.2956 32.4966,66.0526 C32.3746,65.8096 32.2536,65.6276 32.0096,65.5056 C31.7666,65.3836 31.4626,65.3236 31.0376,65.3236 C30.5506,65.3236 30.1256,65.3836 29.7606,65.5056 C29.3956,65.6276 29.0306,65.8096 28.6666,65.9916 L28.3016,65.2626 C28.4226,65.1406 28.6666,65.0196 28.9706,64.8366 C29.2736,64.6546 29.6386,64.5326 30.0646,64.4116 C30.4896,64.2896 30.9156,64.2286 31.3416,64.2286 C32.0096,64.2286 32.4966,64.2896 32.8606,64.4726 C33.2256,64.6546 33.5296,64.9586 33.6516,65.3236 C33.8336,65.6876 33.8946,66.2356 33.8946,66.9036 L33.8946,71.2806 L34.6846,71.2806 L34.6846,71.8886 C34.5026,71.9496 34.2596,72.0106 34.0156,72.0106 C33.7116,72.0706 33.4686,72.0706 33.2866,72.0706 C33.0436,72.0706 32.8606,72.0106 32.7396,71.9496 C32.6176,71.8886 32.6176,71.7066 32.6176,71.4636 L32.6176,71.0376 C32.3136,71.2806 32.0096,71.5846 31.5846,71.7666 C31.1586,72.0106 30.7336,72.1316 30.2466,72.1316 C29.5776,72.1316 29.0306,71.9496 28.6056,71.5846 C28.1796,71.2196 27.9366,70.6726 27.9366,69.9436 C28.0586,69.1526 28.4836,68.4846 29.3346,68.1196" id="Fill-9"></path>
            <path d="M36.5083,65.5058 L35.5353,65.2628 L35.5353,64.5328 L37.4803,64.2898 L37.5413,64.2898 L37.8453,64.5328 L37.8453,65.1408 L37.8453,65.4448 C38.1493,65.1408 38.6363,64.8978 39.1223,64.6548 C39.6693,64.4118 40.1553,64.2898 40.6423,64.2898 C41.1893,64.2898 41.6753,64.4118 41.9793,64.5938 C42.2833,64.8368 42.5263,65.1408 42.6483,65.6278 C42.7693,66.0528 42.8303,66.6608 42.8303,67.4508 L42.8303,71.2808 L43.8033,71.4028 L43.8033,72.0708 L40.5813,72.0708 L40.5813,71.4028 L41.4323,71.2808 L41.4323,67.4508 C41.4323,66.9038 41.3713,66.4788 41.3103,66.1748 C41.2503,65.8708 41.1283,65.6278 40.8853,65.5058 C40.7033,65.3838 40.3993,65.2628 40.0343,65.2628 C39.7303,65.2628 39.3653,65.3238 39.0003,65.5058 C38.6363,65.6878 38.2713,65.8708 38.0283,66.0528 L38.0283,71.2198 L38.9403,71.3418 L38.9403,72.0108 L35.7183,72.0108 L35.7183,71.3418 L36.5693,71.2198 C36.5083,71.2808 36.5083,65.5058 36.5083,65.5058" id="Fill-11"></path>
            <path d="M45.8701,71.8281 C45.6271,71.5851 45.5051,71.1591 45.5051,70.6121 L45.5051,65.3231 L44.5321,65.3231 L44.5321,64.7151 C44.5931,64.7151 44.7151,64.6551 44.8971,64.5941 C45.0801,64.5331 45.2621,64.4721 45.3231,64.4721 C45.4441,64.4111 45.5661,64.2291 45.6871,63.9861 C45.7481,63.8041 45.8701,63.5601 45.9311,63.1351 C46.0521,62.7701 46.1131,62.5271 46.1131,62.4661 L46.9031,62.4661 L46.9031,64.4721 L49.2141,64.4721 L49.2141,65.3841 L46.9031,65.3841 L46.9031,69.5791 C46.9031,70.1261 46.9031,70.4911 46.9641,70.6731 C47.0251,70.8551 47.0861,71.0381 47.1471,71.0991 C47.2681,71.1591 47.4511,71.2201 47.6941,71.2201 C47.9371,71.2201 48.2411,71.1591 48.4841,71.0991 C48.7881,71.0381 49.0311,70.9771 49.1531,70.9161 L49.3351,71.5241 C49.0921,71.7061 48.7881,71.8281 48.3021,72.0101 C47.8151,72.1931 47.3901,72.2541 46.9641,72.2541 C46.5391,72.1931 46.1741,72.0711 45.8701,71.8281" id="Fill-13"></path>
            <path d="M50.9766,61.8579 L49.8216,61.7359 L49.8216,61.1289 L52.0706,60.8849 L52.3746,61.0679 L52.3746,64.2289 L52.3146,65.3839 C52.6176,65.1409 52.9826,64.8979 53.5296,64.6539 C54.0166,64.4109 54.5636,64.2899 55.0496,64.2899 C55.5966,64.2899 56.0826,64.4109 56.3866,64.5939 C56.6906,64.8369 56.9336,65.1409 57.0556,65.6269 C57.1776,66.0529 57.2376,66.6609 57.2376,67.4509 L57.2376,71.2809 L58.2106,71.4019 L58.2106,72.0709 L54.9276,72.0709 L54.9276,71.4019 L55.8396,71.2809 L55.8396,67.4509 C55.8396,66.9039 55.7786,66.4779 55.7186,66.1739 C55.6576,65.8699 55.5356,65.6269 55.2926,65.5059 C55.1106,65.3839 54.8066,65.2619 54.3806,65.2619 C54.0766,65.2619 53.7126,65.3229 53.3476,65.5059 C52.9826,65.6879 52.6176,65.8699 52.3746,66.0529 L52.3746,71.2199 L53.3476,71.3409 L53.3476,72.0099 L50.1256,72.0099 L50.1256,71.3409 L50.9766,71.2199 L50.9766,61.8579 Z" id="Fill-15"></path>
            <path d="M59.2441,71.4023 L60.2771,71.3413 L60.2771,65.5663 L59.3051,65.3233 L59.3051,64.5933 L61.1891,64.3503 L61.4931,64.5933 L61.4931,64.8373 L61.4321,65.9313 L61.4931,65.9313 C61.6151,65.7483 61.7361,65.5663 61.9801,65.3233 C62.2231,65.0803 62.5271,64.8373 62.8911,64.6543 C63.2561,64.4723 63.6821,64.3503 64.1071,64.3503 C64.2901,64.3503 64.4111,64.3503 64.5331,64.4113 L64.5331,65.9313 C64.4721,65.8703 64.3501,65.8703 64.2291,65.8093 C64.1071,65.7483 63.9251,65.7483 63.7431,65.7483 C63.0131,65.7483 62.2841,65.9923 61.6151,66.4783 L61.6151,71.4023 L63.3781,71.5243 L63.3781,72.1923 L59.1831,72.1923 C59.2441,72.0713 59.2441,71.4023 59.2441,71.4023" id="Fill-17"></path>
            <path d="M70.4297,70.6728 C70.7947,70.1258 70.9157,69.3958 70.9157,68.3628 C70.9157,67.3288 70.7337,66.5388 70.4297,65.9308 C70.1257,65.3228 69.6397,65.0188 68.9097,65.0188 C68.3017,65.0188 67.8157,65.2628 67.4507,65.8098 C67.0857,66.3568 66.9647,67.0858 66.9647,68.1198 C66.9647,69.1528 67.1467,69.9438 67.4507,70.5508 C67.7547,71.1588 68.2417,71.4628 68.9707,71.4628 C69.5787,71.4018 70.0647,71.1588 70.4297,70.6728 M65.9307,66.1138 C66.2957,65.5058 66.7217,65.0798 67.2687,64.7148 C67.8157,64.4108 68.4237,64.2288 69.0317,64.2288 C70.1867,64.2288 71.0377,64.5938 71.6457,65.3228 C72.2537,66.0528 72.4967,67.0258 72.4967,68.1808 C72.4967,69.0318 72.3147,69.6998 72.0107,70.3078 C71.6457,70.9158 71.2197,71.3418 70.6727,71.7058 C70.1257,72.0098 69.5177,72.1928 68.9097,72.1928 C67.7547,72.1928 66.9037,71.8278 66.2957,71.0988 C65.6877,70.3688 65.4447,69.3958 65.4447,68.2408 C65.3837,67.3898 65.5667,66.7218 65.9307,66.1138" id="Fill-19"></path>
            <path d="M76.5698,65.4448 C76.2658,65.5668 76.0228,65.7488 75.8408,65.9308 L75.8408,71.0988 C75.9008,71.2198 76.0838,71.2808 76.3268,71.4028 C76.5698,71.4628 76.8738,71.5238 77.1778,71.5238 C77.9068,71.5238 78.4548,71.2198 78.8798,70.6728 C79.3058,70.1258 79.5488,69.2748 79.5488,68.1808 C79.5488,67.2078 79.3658,66.4778 79.0018,65.9918 C78.6368,65.5058 78.1508,65.2628 77.5428,65.2628 C77.1778,65.2018 76.8738,65.2628 76.5698,65.4448 M80.5818,70.1258 C80.2778,70.7948 79.7918,71.2808 79.1838,71.6458 C78.5758,72.0098 77.9068,72.1928 77.1168,72.1928 C76.8738,72.1928 76.6308,72.1928 76.3878,72.1318 C76.1438,72.0708 75.9008,72.0708 75.7798,72.0098 L75.8408,73.1648 L75.8408,74.5638 L77.2388,74.6848 L77.2388,75.3538 L73.4088,75.3538 L73.4088,74.6848 L74.3818,74.5638 L74.3818,65.5058 L73.4088,65.2628 L73.4088,64.5328 L75.3538,64.2898 L75.6578,64.5328 L75.6578,65.3228 C75.9618,65.0188 76.2658,64.7758 76.6918,64.5328 C77.1168,64.3508 77.5428,64.2288 78.0288,64.2288 C78.5758,64.2288 79.0618,64.3508 79.4878,64.6548 C79.9138,64.8978 80.2778,65.3228 80.5818,65.8708 C80.8858,66.4178 81.0078,67.1468 81.0078,67.9978 C81.0688,68.7888 80.8858,69.4568 80.5818,70.1258" id="Fill-21"></path>
            <path d="M82.8311,75.4145 C82.7091,75.4145 82.5881,75.3535 82.5271,75.3535 L82.5271,74.1375 C82.5881,74.1985 82.7091,74.1985 82.8311,74.1985 L83.3171,74.1985 C83.7431,74.1985 84.1681,74.0165 84.4721,73.7125 C84.7761,73.4085 85.1411,72.8005 85.4451,71.9495 L84.7761,71.9495 L82.1621,65.1405 L81.5541,64.9585 L81.5541,64.2895 L84.8371,64.2895 L84.8371,64.9585 L83.8041,65.1405 L85.1411,69.1525 L85.7491,71.1595 L86.3571,69.1525 L87.5731,65.1405 L86.6611,64.9585 L86.6611,64.2895 L89.3961,64.2895 L89.3961,64.9585 L88.7281,65.1405 C87.3901,69.2745 86.6001,71.5845 86.3571,72.1315 C86.0531,72.9225 85.7491,73.5295 85.5061,73.9555 C85.2631,74.3815 84.9591,74.7455 84.5941,74.9885 C84.2291,75.2325 83.8041,75.3535 83.3171,75.3535 C83.1351,75.4755 83.0131,75.4755 82.8311,75.4145" id="Fill-23"></path>
            <path d="M94.2603,65.3838 L92.9833,65.3838 L92.9833,64.7758 L94.2603,64.5328 L94.2603,63.8638 C94.2603,63.3168 94.3823,62.7698 94.6863,62.2838 C94.9893,61.7968 95.3543,61.4328 95.8413,61.1288 C96.3273,60.8248 96.8133,60.7028 97.3603,60.7028 C97.6643,60.7028 97.9683,60.7638 98.1513,60.8248 L98.1513,62.2228 C98.0903,62.1618 97.9073,62.1008 97.6643,62.0398 C97.4213,61.9798 97.1783,61.9188 96.8743,61.9188 C96.4483,61.9188 96.1453,62.0398 95.9623,62.2838 C95.7803,62.5268 95.6583,62.8918 95.6583,63.4388 L95.6583,64.5328 L97.5433,64.5328 L97.5433,65.4448 L95.6583,65.4448 L95.6583,71.3418 L97.1783,71.4628 L97.1783,72.1318 L93.0443,72.1318 L93.0443,71.4628 L94.1993,71.3418 L94.1993,65.3838 L94.2603,65.3838 Z" id="Fill-25"></path>
            <path d="M103.561,70.6728 C103.926,70.1258 104.047,69.3958 104.047,68.3628 C104.047,67.3288 103.865,66.5388 103.561,65.9308 C103.257,65.3228 102.771,65.0188 102.041,65.0188 C101.433,65.0188 100.947,65.2628 100.582,65.8098 C100.217,66.3568 100.096,67.0858 100.096,68.1198 C100.096,69.1528 100.278,69.9438 100.582,70.5508 C100.886,71.1588 101.373,71.4628 102.102,71.4628 C102.771,71.4018 103.196,71.1588 103.561,70.6728 M99.062,66.1138 C99.427,65.5058 99.853,65.0798 100.4,64.7148 C100.947,64.3508 101.555,64.2288 102.163,64.2288 C103.318,64.2288 104.169,64.5938 104.777,65.3228 C105.385,66.0528 105.628,67.0258 105.628,68.1808 C105.628,69.0318 105.446,69.6998 105.142,70.3078 C104.777,70.9158 104.351,71.3418 103.804,71.7058 C103.257,72.0098 102.649,72.1928 102.041,72.1928 C100.886,72.1928 100.035,71.8278 99.427,71.0988 C98.819,70.3688 98.576,69.3958 98.576,68.2408 C98.576,67.3898 98.758,66.7218 99.062,66.1138" id="Fill-27"></path>
            <path d="M106.8438,71.4023 L107.8768,71.3413 L107.8768,65.5663 L106.9048,65.3233 L106.9048,64.5933 L108.7888,64.3503 L109.0928,64.5933 L109.0928,64.8373 L109.0318,65.9313 L109.0928,65.9313 C109.2148,65.7483 109.3358,65.5663 109.5798,65.3233 C109.8228,65.0803 110.1268,64.8373 110.4908,64.6543 C110.8558,64.4723 111.2818,64.3503 111.7068,64.3503 C111.8898,64.3503 112.0108,64.3503 112.1328,64.4113 L112.1328,65.9313 C112.0718,65.8703 111.9498,65.8703 111.8288,65.8093 C111.7068,65.7483 111.5248,65.7483 111.3428,65.7483 C110.6128,65.7483 109.8838,65.9923 109.2148,66.4783 L109.2148,71.4023 L110.9778,71.5243 L110.9778,72.1923 L106.7828,72.1923 C106.8438,72.0713 106.8438,71.4023 106.8438,71.4023" id="Fill-29"></path>
            <path d="M119.063,71.0376 C119.367,70.9156 119.671,70.7336 119.914,70.4906 L119.914,68.1196 C118.941,68.1196 118.151,68.3016 117.665,68.6056 C117.178,68.9096 116.935,69.3356 116.935,69.8216 C116.935,70.3086 117.057,70.6726 117.3,70.9156 C117.543,71.1596 117.847,71.2806 118.273,71.2806 C118.516,71.2806 118.759,71.2196 119.063,71.0376 M116.692,68.1196 C117.543,67.6936 118.637,67.5116 119.975,67.4506 L119.975,67.0866 C119.975,66.6606 119.914,66.2956 119.853,66.0526 C119.732,65.8096 119.61,65.6276 119.367,65.5056 C119.124,65.3836 118.82,65.3236 118.394,65.3236 C117.908,65.3236 117.482,65.3836 117.118,65.5056 C116.753,65.6276 116.388,65.8096 116.023,65.9916 L115.659,65.2626 C115.78,65.1406 116.023,65.0196 116.327,64.8366 C116.631,64.6546 116.996,64.5326 117.422,64.4116 C117.847,64.2896 118.273,64.2286 118.698,64.2286 C119.367,64.2286 119.853,64.2896 120.218,64.4726 C120.583,64.6546 120.887,64.9586 121.008,65.3236 C121.191,65.6876 121.251,66.2356 121.251,66.9036 L121.251,71.2806 L122.042,71.2806 L122.042,71.8886 C121.859,71.9496 121.616,72.0106 121.373,72.0106 C121.069,72.0706 120.826,72.0706 120.644,72.0706 C120.4,72.0706 120.218,72.0106 120.096,71.9496 C119.975,71.8886 119.975,71.7066 119.975,71.4636 L119.975,71.0376 C119.671,71.2806 119.367,71.5846 118.941,71.7666 C118.516,72.0106 118.09,72.1316 117.604,72.1316 C116.935,72.1316 116.388,71.9496 115.963,71.5846 C115.537,71.2196 115.294,70.6726 115.294,69.9436 C115.416,69.1526 115.841,68.4846 116.692,68.1196" id="Fill-31"></path>
            <path d="M123.8047,65.5058 L122.8317,65.2628 L122.8317,64.5328 L124.7777,64.2898 L124.8377,64.2898 L125.1417,64.5328 L125.1417,65.1408 L125.1417,65.4448 C125.4457,65.1408 125.9327,64.8978 126.4187,64.6548 C126.9657,64.4118 127.4517,64.2898 127.9387,64.2898 C128.4857,64.2898 128.9717,64.4118 129.2757,64.5938 C129.5797,64.8368 129.8227,65.1408 129.9447,65.6278 C130.0667,66.0528 130.1267,66.6608 130.1267,67.4508 L130.1267,71.2808 L131.0997,71.4028 L131.0997,72.0708 L127.8777,72.0708 L127.8777,71.4028 L128.7287,71.2808 L128.7287,67.4508 C128.7287,66.9038 128.6677,66.4788 128.6077,66.1748 C128.5467,65.8708 128.4247,65.6278 128.1817,65.5058 C127.9997,65.3838 127.6957,65.2628 127.3307,65.2628 C127.0267,65.2628 126.6617,65.3238 126.2967,65.5058 C125.9327,65.6878 125.5677,65.8708 125.3247,66.0528 L125.3247,71.2198 L126.2367,71.3418 L126.2367,72.0108 L123.0147,72.0108 L123.0147,71.3418 L123.8657,71.2198 L123.8657,65.5058 L123.8047,65.5058 Z" id="Fill-33"></path>
            <polygon id="Fill-35" points="136.6318 62.709 135.3548 62.587 135.3548 61.858 139.3678 61.858 139.3678 62.587 138.0908 62.709 138.0908 71.22 139.3678 71.402 139.3678 72.071 135.3548 72.071 135.3548 71.402 136.6318 71.22"></polygon>
            <path d="M141.4951,65.5058 L140.5221,65.2628 L140.5221,64.5328 L142.4681,64.2898 L142.5281,64.2898 L142.8321,64.5328 L142.8321,65.1408 L142.8321,65.4448 C143.1361,65.1408 143.6231,64.8978 144.1091,64.6548 C144.6561,64.4118 145.1421,64.2898 145.6291,64.2898 C146.1761,64.2898 146.6621,64.4118 146.9661,64.5938 C147.2701,64.8368 147.5131,65.1408 147.6351,65.6278 C147.7571,66.0528 147.8171,66.6608 147.8171,67.4508 L147.8171,71.2808 L148.7901,71.4028 L148.7901,72.0708 L145.5681,72.0708 L145.5681,71.4028 L146.4191,71.2808 L146.4191,67.4508 C146.4191,66.9038 146.3581,66.4788 146.2981,66.1748 C146.2371,65.8708 146.1151,65.6278 145.8721,65.5058 C145.6901,65.3838 145.3861,65.2628 145.0211,65.2628 C144.7171,65.2628 144.3521,65.3238 143.9871,65.5058 C143.6231,65.6878 143.2581,65.8708 143.0151,66.0528 L143.0151,71.2198 L143.9271,71.3418 L143.9271,72.0108 L140.6441,72.0108 L140.6441,71.3418 L141.4951,71.2198 L141.4951,65.5058 Z" id="Fill-37"></path>
            <path d="M150.8569,71.8281 C150.6139,71.5851 150.4919,71.1591 150.4919,70.6121 L150.4919,65.3231 L149.5199,65.3231 L149.5199,64.7151 C149.5799,64.7151 149.7019,64.6551 149.8839,64.5941 C150.0669,64.5331 150.2489,64.4721 150.3099,64.4721 C150.4309,64.4111 150.5529,64.2291 150.6749,63.9861 C150.7349,63.8041 150.8569,63.5601 150.9179,63.1351 C151.0389,62.7701 151.0999,62.5271 151.0999,62.4661 L151.8899,62.4661 L151.8899,64.4721 L154.2009,64.4721 L154.2009,65.3841 L151.8899,65.3841 L151.8899,69.5791 C151.8899,70.1261 151.8899,70.4911 151.9509,70.6731 C152.0119,70.8551 152.0729,71.0381 152.1339,71.0991 C152.2549,71.1591 152.4379,71.2201 152.6809,71.2201 C152.9239,71.2201 153.2279,71.1591 153.4709,71.0991 C153.7749,71.0381 154.0179,70.9771 154.1399,70.9161 L154.3219,71.5241 C154.0789,71.7061 153.7749,71.8281 153.2889,72.0101 C152.8019,72.1931 152.3769,72.2541 151.9509,72.2541 C151.5259,72.1931 151.1609,72.0711 150.8569,71.8281" id="Fill-39"></path>
            <path d="M159.9756,67.5117 C159.9756,67.3297 160.0366,67.1467 160.0366,66.9037 C160.0366,66.2957 159.9146,65.8707 159.6716,65.5057 C159.4286,65.1407 159.0636,65.0197 158.5166,65.0197 C157.9696,65.0197 157.5436,65.2017 157.2396,65.6267 C156.9356,65.9917 156.7536,66.6607 156.6926,67.5727 L159.9756,67.5117 Z M156.0846,71.0987 C155.4766,70.3687 155.2336,69.3967 155.2336,68.1807 C155.2336,67.3897 155.3556,66.6607 155.6596,66.1137 C155.9636,65.5057 156.3886,65.0197 156.9356,64.7157 C157.4836,64.4117 158.0906,64.2287 158.8206,64.2287 C159.6716,64.2287 160.3406,64.4717 160.8266,64.9587 C161.3126,65.4447 161.5566,66.1137 161.5566,66.9647 C161.5566,67.5117 161.4956,67.9377 161.4346,68.2407 L156.6926,68.2407 C156.6926,69.1527 156.9356,69.8827 157.3006,70.4297 C157.7266,70.9767 158.2736,71.2807 159.0026,71.2807 C159.3676,71.2807 159.7326,71.2197 160.1576,71.0987 C160.5836,70.9767 160.8876,70.7947 161.0696,70.6117 L161.3126,71.2197 C161.0696,71.4627 160.6446,71.7067 160.1576,71.9497 C159.6716,72.1927 159.1246,72.2537 158.5776,72.2537 C157.4836,72.1927 156.6316,71.8277 156.0846,71.0987 L156.0846,71.0987 Z" id="Fill-41"></path>
            <path d="M162.6504,71.4023 L163.6834,71.3413 L163.6834,65.5663 L162.7114,65.3233 L162.7114,64.5933 L164.5954,64.3503 L164.8994,64.5933 L164.8994,64.8373 L164.8384,65.9313 L164.8994,65.9313 C165.0214,65.7483 165.1424,65.5663 165.3864,65.3233 C165.6294,65.0803 165.9334,64.8373 166.2974,64.6543 C166.6624,64.4723 167.0884,64.3503 167.5134,64.3503 C167.6964,64.3503 167.8174,64.3503 167.9394,64.4113 L167.9394,65.9313 C167.8784,65.8703 167.7564,65.8703 167.6354,65.8093 C167.5134,65.7483 167.3314,65.7483 167.1494,65.7483 C166.4194,65.7483 165.6904,65.9923 165.0214,66.4783 L165.0214,71.4023 L166.7844,71.5243 L166.7844,72.1923 L162.5894,72.1923 L162.6504,71.4023 Z" id="Fill-43"></path>
            <path d="M173.2891,70.9765 C173.5931,70.7945 173.8361,70.6115 174.0181,70.4295 L174.0181,65.3835 C173.9581,65.2625 173.7751,65.2015 173.5321,65.0805 C173.2891,65.0185 172.9851,64.9585 172.6811,64.9585 C171.9521,64.9585 171.4041,65.2015 170.9791,65.7485 C170.5531,66.2955 170.3711,67.1465 170.3711,68.2405 C170.3711,69.2135 170.5531,69.9435 170.9181,70.4295 C171.2831,70.9155 171.7691,71.1585 172.3771,71.1585 C172.6811,71.2195 172.9851,71.1585 173.2891,70.9765 M170.2491,71.8275 C169.8241,71.5235 169.4591,71.1585 169.1551,70.5505 C168.8511,69.9435 168.7301,69.2745 168.7301,68.4235 C168.7301,67.6325 168.9121,66.9645 169.2161,66.2955 C169.5201,65.6265 170.0061,65.1405 170.6141,64.7755 C171.2221,64.4125 171.8911,64.2285 172.7421,64.2285 C173.2281,64.2285 173.6541,64.2895 174.0181,64.3505 L174.0181,61.7965 L172.6201,61.6145 L172.6201,61.0065 L175.1131,60.7635 L175.1731,60.7635 L175.4771,61.0065 L175.4771,71.3415 L176.2681,71.3415 L176.2681,71.9495 C175.9641,72.0095 175.7211,72.0705 175.5381,72.0705 C175.3561,72.0705 175.1131,72.1315 174.8701,72.1315 C174.6261,72.1315 174.4441,72.0705 174.3831,72.0095 C174.2621,71.9495 174.2621,71.7665 174.2621,71.4625 L174.2621,71.0385 C174.0181,71.3415 173.6541,71.5845 173.2281,71.8275 C172.8031,72.0095 172.3771,72.1315 171.8911,72.1315 C171.2221,72.1925 170.7361,72.0705 170.2491,71.8275" id="Fill-45"></path>
            <path d="M182.043,67.5117 C182.043,67.3297 182.104,67.1467 182.104,66.9037 C182.104,66.2957 181.982,65.8707 181.739,65.5057 C181.496,65.1407 181.131,65.0197 180.584,65.0197 C180.037,65.0197 179.611,65.2017 179.307,65.6267 C179.003,65.9917 178.821,66.6607 178.76,67.5727 L182.043,67.5117 Z M178.092,71.0987 C177.484,70.3687 177.24,69.3967 177.24,68.1807 C177.24,67.3897 177.362,66.6607 177.666,66.1137 C177.97,65.5057 178.396,65.0197 178.943,64.7157 C179.49,64.4117 180.098,64.2287 180.827,64.2287 C181.678,64.2287 182.347,64.4717 182.833,64.9587 C183.32,65.4447 183.563,66.1137 183.563,66.9647 C183.563,67.5117 183.502,67.9377 183.441,68.2407 L178.699,68.2407 C178.699,69.1527 178.943,69.8827 179.307,70.4297 C179.733,70.9767 180.28,71.2807 181.01,71.2807 C181.374,71.2807 181.739,71.2197 182.165,71.0987 C182.59,70.9767 182.894,70.7947 183.076,70.6117 L183.32,71.2197 C183.076,71.4627 182.651,71.7067 182.165,71.9497 C181.617,72.1317 181.131,72.2537 180.584,72.2537 C179.49,72.1927 178.699,71.8277 178.092,71.0987 L178.092,71.0987 Z" id="Fill-47"></path>
            <path d="M187.5142,65.4448 C187.2102,65.5668 186.9672,65.7488 186.7852,65.9308 L186.7852,71.0988 C186.8452,71.2198 187.0282,71.2808 187.2712,71.4028 C187.5142,71.4628 187.8182,71.5238 188.1222,71.5238 C188.8512,71.5238 189.3992,71.2198 189.8242,70.6728 C190.2502,70.1258 190.4932,69.2748 190.4932,68.1808 C190.4932,67.2078 190.3102,66.4778 189.9462,65.9918 C189.5812,65.5058 189.0952,65.2628 188.4872,65.2628 C188.1222,65.2018 187.8182,65.2628 187.5142,65.4448 M191.5872,70.1258 C191.2832,70.7948 190.7972,71.2808 190.1892,71.6458 C189.5812,72.0098 188.9122,72.1928 188.1222,72.1928 C187.8792,72.1928 187.6962,72.1928 187.3922,72.1318 C187.1492,72.0708 186.9062,72.0708 186.7852,72.0098 L186.8452,73.1648 L186.8452,74.5638 L188.2442,74.6848 L188.2442,75.3538 L184.4142,75.3538 L184.4142,74.6848 L185.3862,74.5638 L185.3862,65.5058 L184.4142,65.2628 L184.4142,64.5328 L186.3592,64.2898 L186.6632,64.5328 L186.6632,65.3228 C186.9672,65.0188 187.2712,64.7758 187.6962,64.5328 C188.1222,64.3508 188.5472,64.2288 189.0342,64.2288 C189.5812,64.2288 190.0672,64.3508 190.4932,64.6548 C190.9182,64.8978 191.2832,65.3228 191.5872,65.8708 C191.8302,66.4178 192.0132,67.1468 192.0132,67.9978 C192.0732,68.7888 191.8912,69.4568 191.5872,70.1258" id="Fill-49"></path>
            <path d="M197.9092,67.5117 C197.9092,67.3297 197.9702,67.1467 197.9702,66.9037 C197.9702,66.2957 197.8482,65.8707 197.6052,65.5057 C197.3622,65.1407 196.9972,65.0197 196.4502,65.0197 C195.9032,65.0197 195.4772,65.2017 195.1732,65.6267 C194.8692,65.9917 194.6872,66.6607 194.6262,67.5727 L197.9092,67.5117 Z M194.0182,71.0987 C193.4102,70.3687 193.1672,69.3967 193.1672,68.1807 C193.1672,67.3897 193.2892,66.6607 193.5932,66.1137 C193.8972,65.5057 194.3222,65.0197 194.8692,64.7157 C195.4172,64.4117 196.0242,64.2287 196.7542,64.2287 C197.6052,64.2287 198.2742,64.4717 198.7602,64.9587 C199.2462,65.4447 199.4902,66.1137 199.4902,66.9647 C199.4902,67.5117 199.4292,67.9377 199.3682,68.2407 L194.6262,68.2407 C194.6262,69.1527 194.8692,69.8827 195.2342,70.4297 C195.6602,70.9767 196.2072,71.2807 196.9362,71.2807 C197.3012,71.2807 197.6662,71.2197 198.0912,71.0987 C198.5172,70.9767 198.8212,70.7947 199.0032,70.6117 L199.2462,71.2197 C199.0032,71.4627 198.5782,71.7067 198.0912,71.9497 C197.5442,72.1317 197.0582,72.2537 196.5112,72.2537 C195.4172,72.1927 194.5652,71.8277 194.0182,71.0987 L194.0182,71.0987 Z" id="Fill-51"></path>
            <path d="M201.3745,65.5058 L200.4015,65.2628 L200.4015,64.5328 L202.3475,64.2898 L202.4075,64.2898 L202.7115,64.5328 L202.7115,65.1408 L202.7115,65.4448 C203.0155,65.1408 203.5025,64.8978 203.9885,64.6548 C204.5355,64.4118 205.0215,64.2898 205.5085,64.2898 C206.0555,64.2898 206.5415,64.4118 206.8455,64.5938 C207.1495,64.8368 207.3925,65.1408 207.5145,65.6278 C207.6365,66.0528 207.6965,66.6608 207.6965,67.4508 L207.6965,71.2808 L208.6695,71.4028 L208.6695,72.0708 L205.4475,72.0708 L205.4475,71.4028 L206.2985,71.2808 L206.2985,67.4508 C206.2985,66.9038 206.2375,66.4788 206.1775,66.1748 C206.1165,65.8708 205.9945,65.6278 205.7515,65.5058 C205.5695,65.3838 205.2655,65.2628 204.9005,65.2628 C204.5965,65.2628 204.2315,65.3238 203.8665,65.5058 C203.5025,65.6878 203.1375,65.8708 202.8945,66.0528 L202.8945,71.2198 L203.8065,71.3418 L203.8065,72.0108 L200.5845,72.0108 L200.5845,71.3418 L201.4355,71.2198 L201.3745,65.5058 Z" id="Fill-53"></path>
            <path d="M214.0796,70.9765 C214.3836,70.7945 214.6266,70.6115 214.8096,70.4295 L214.8096,65.3835 C214.7486,65.2625 214.5656,65.2015 214.3226,65.0805 C214.0796,65.0185 213.7756,64.9585 213.4716,64.9585 C212.7426,64.9585 212.1946,65.2015 211.7696,65.7485 C211.3436,66.2955 211.1616,67.1465 211.1616,68.2405 C211.1616,69.2135 211.3436,69.9435 211.7086,70.4295 C212.0736,70.9155 212.5596,71.1585 213.1676,71.1585 C213.4716,71.2195 213.7756,71.1585 214.0796,70.9765 M211.0396,71.8275 C210.6146,71.5235 210.2496,71.1585 209.9456,70.5505 C209.7026,70.0035 209.5206,69.2745 209.5206,68.4235 C209.5206,67.6325 209.7026,66.9645 210.0066,66.2955 C210.3106,65.6265 210.7966,65.1405 211.4046,64.7755 C212.0126,64.4125 212.6816,64.2285 213.5326,64.2285 C214.0186,64.2285 214.4446,64.2895 214.8096,64.3505 L214.8096,61.7965 L213.4106,61.6145 L213.4106,61.0065 L215.9036,60.7635 L215.9646,60.7635 L216.2686,61.0065 L216.2686,71.3415 L217.0586,71.3415 L217.0586,71.9495 C216.7546,72.0095 216.5116,72.0705 216.3286,72.0705 C216.1466,72.0705 215.9036,72.1315 215.6606,72.1315 C215.4166,72.1315 215.2346,72.0705 215.1736,72.0095 C215.0526,71.9495 215.0526,71.7665 215.0526,71.4625 L215.0526,71.0385 C214.8096,71.3415 214.4446,71.5845 214.0186,71.8275 C213.5936,72.0095 213.1676,72.1315 212.6816,72.1315 C212.0126,72.1925 211.4656,72.0705 211.0396,71.8275" id="Fill-55"></path>
            <path d="M222.7729,67.5117 C222.7729,67.3297 222.8339,67.1467 222.8339,66.9037 C222.8339,66.2957 222.7119,65.8707 222.4689,65.5057 C222.2259,65.1407 221.8609,65.0197 221.3139,65.0197 C220.7669,65.0197 220.3409,65.2017 220.0369,65.6267 C219.7329,65.9917 219.5509,66.6607 219.4899,67.5727 L222.7729,67.5117 Z M218.8819,71.0987 C218.2739,70.3687 218.0309,69.3967 218.0309,68.1807 C218.0309,67.3897 218.1529,66.6607 218.4569,66.1137 C218.7609,65.5057 219.1859,65.0197 219.7329,64.7157 C220.2809,64.4117 220.8879,64.2287 221.6179,64.2287 C222.4689,64.2287 223.1379,64.4717 223.6239,64.9587 C224.1099,65.4447 224.3539,66.1137 224.3539,66.9647 C224.3539,67.5117 224.2929,67.9377 224.2319,68.2407 L219.4899,68.2407 C219.4899,69.1527 219.7329,69.8827 220.0979,70.4297 C220.5239,70.9767 221.0709,71.2807 221.7999,71.2807 C222.1649,71.2807 222.5299,71.2197 222.9549,71.0987 C223.3809,70.9767 223.6849,70.7947 223.8669,70.6117 L224.1099,71.2197 C223.8669,71.4627 223.4419,71.7067 222.9549,71.9497 C222.4079,72.1317 221.9219,72.2537 221.3749,72.2537 C220.2809,72.1927 219.4289,71.8277 218.8819,71.0987 L218.8819,71.0987 Z" id="Fill-57"></path>
            <path d="M226.2383,65.5058 L225.2653,65.2628 L225.2653,64.5328 L227.2113,64.2898 L227.2713,64.2898 L227.5753,64.5328 L227.5753,65.1408 L227.5753,65.4448 C227.8793,65.1408 228.3663,64.8978 228.8523,64.6548 C229.3993,64.4118 229.8853,64.2898 230.3723,64.2898 C230.9193,64.2898 231.4053,64.4118 231.7093,64.5938 C232.0133,64.8368 232.2563,65.1408 232.3783,65.6278 C232.5003,66.0528 232.5603,66.6608 232.5603,67.4508 L232.5603,71.2808 L233.5333,71.4028 L233.5333,72.0708 L230.3113,72.0708 L230.3113,71.4028 L231.1623,71.2808 L231.1623,67.4508 C231.1623,66.9038 231.1013,66.4788 231.0413,66.1748 C230.9803,65.8708 230.8583,65.6278 230.6153,65.5058 C230.4333,65.3838 230.1293,65.2628 229.7643,65.2628 C229.4603,65.2628 229.0953,65.3238 228.7303,65.5058 C228.3663,65.6878 228.0013,65.8708 227.7583,66.0528 L227.7583,71.2198 L228.6703,71.3418 L228.6703,72.0108 L225.4483,72.0108 L225.4483,71.3418 L226.2993,71.2198 L226.2383,65.5058 Z" id="Fill-59"></path>
            <path d="M235.6001,71.8281 C235.3571,71.5851 235.2351,71.1591 235.2351,70.6121 L235.2351,65.3231 L234.2631,65.3231 L234.2631,64.7151 C234.3231,64.7151 234.4451,64.6551 234.6271,64.5941 C234.8101,64.5331 234.9921,64.4721 235.0531,64.4721 C235.1741,64.4111 235.2961,64.2291 235.4181,63.9861 C235.4781,63.8041 235.6001,63.5601 235.6611,63.1351 C235.7821,62.7701 235.8431,62.5271 235.8431,62.4661 L236.6331,62.4661 L236.6331,64.4721 L238.9441,64.4721 L238.9441,65.3841 L236.6941,65.3841 L236.6941,69.5791 C236.6941,70.1261 236.6941,70.4911 236.7551,70.6731 C236.8161,70.8551 236.8771,71.0381 236.9371,71.0991 C236.9981,71.1591 237.2411,71.2201 237.4851,71.2201 C237.7281,71.2201 238.0321,71.1591 238.2751,71.0991 C238.5181,71.0381 238.8221,70.9771 238.9441,70.9161 L239.1261,71.5241 C238.8831,71.7061 238.5791,71.8281 238.0921,72.0101 C237.6061,72.1931 237.1811,72.2541 236.7551,72.2541 C236.2691,72.1931 235.9041,72.0711 235.6001,71.8281" id="Fill-61"></path>
            <polygon id="Fill-63" points="242.2261 61.8579 245.9951 61.8579 245.9951 62.5869 244.6581 62.7089 246.5421 69.0919 246.9691 71.0379 247.3931 69.0919 248.9751 63.8639 248.6091 62.7089 247.6371 62.5869 247.6371 61.8579 251.4661 61.8579 251.4661 62.5869 250.1291 62.7089 252.0141 69.0919 252.4391 71.1589 252.8641 69.0919 254.5671 62.7089 253.2291 62.5869 253.2291 61.8579 256.4511 61.8579 256.4511 62.5869 255.6011 62.7089 252.8641 72.1319 251.5271 72.1319 249.3991 65.2619 247.3931 72.1319 246.0571 72.1319 243.1381 62.7699 242.2261 62.5869"></polygon>
            <path d="M261.7402,70.6728 C262.1052,70.1258 262.2262,69.3958 262.2262,68.3628 C262.2262,67.3288 262.0442,66.5388 261.7402,65.9308 C261.4362,65.3228 260.9502,65.0188 260.2202,65.0188 C259.6122,65.0188 259.1262,65.2628 258.7612,65.8098 C258.3962,66.3568 258.2752,67.0858 258.2752,68.1198 C258.2752,69.1528 258.4572,69.9438 258.7612,70.5508 C259.0652,71.1588 259.5512,71.4628 260.2812,71.4628 C260.9502,71.4018 261.4362,71.1588 261.7402,70.6728 M257.2412,66.1138 C257.6062,65.5058 258.0322,65.0798 258.5792,64.7148 C259.1262,64.4108 259.7342,64.2288 260.3422,64.2288 C261.4972,64.2288 262.3482,64.5938 262.9562,65.3228 C263.5642,66.0528 263.8072,67.0258 263.8072,68.1808 C263.8072,69.0318 263.6252,69.6998 263.3212,70.3078 C262.9562,70.9158 262.5302,71.3418 261.9832,71.7058 C261.4362,72.0098 260.8282,72.1928 260.2202,72.1928 C259.0652,72.1928 258.2142,71.8278 257.6062,71.0988 C256.9982,70.3688 256.7552,69.3958 256.7552,68.2408 C256.7552,67.3898 256.9372,66.7218 257.2412,66.1138" id="Fill-65"></path>
            <path d="M265.084,71.4023 L266.117,71.3413 L266.117,65.5663 L265.145,65.3233 L265.145,64.5933 L267.028,64.3503 L267.333,64.5933 L267.333,64.8373 L267.272,65.9313 L267.333,65.9313 C267.455,65.7483 267.576,65.5663 267.819,65.3233 C268.063,65.0803 268.367,64.8373 268.73,64.6543 C269.096,64.4723 269.521,64.3503 269.947,64.3503 C270.13,64.3503 270.251,64.3503 270.373,64.4113 L270.373,65.9313 C270.312,65.8703 270.189,65.8703 270.068,65.8093 C269.947,65.7483 269.765,65.7483 269.583,65.7483 C268.853,65.7483 268.124,65.9923 267.455,66.4783 L267.455,71.4023 L269.218,71.5243 L269.218,72.1923 L265.022,72.1923 L265.084,71.4023 Z" id="Fill-67"></path>
            <polygon id="Fill-69" points="272.2568 61.8579 271.1028 61.6759 271.1028 61.0679 273.3518 60.8249 273.6548 61.0679 273.6548 71.2809 274.8108 71.4019 274.8108 72.0709 271.1028 72.0709 271.1028 71.4019 272.2568 71.2809"></polygon>
            <path d="M280.2207,70.9765 C280.5247,70.7945 280.7677,70.6115 280.9497,70.4295 L280.9497,65.3835 C280.8897,65.2625 280.7067,65.2015 280.4637,65.0805 C280.2207,65.0185 279.9167,64.9585 279.6137,64.9585 C278.8837,64.9585 278.3357,65.2015 277.9107,65.7485 C277.4847,66.2955 277.3027,67.1465 277.3027,68.2405 C277.3027,69.2135 277.4847,69.9435 277.8497,70.4295 C278.2147,70.9155 278.7007,71.1585 279.3087,71.1585 C279.6137,71.2195 279.9167,71.1585 280.2207,70.9765 M277.1807,71.8275 C276.7557,71.5235 276.3907,71.1585 276.0867,70.5505 C275.8437,70.0035 275.6617,69.2745 275.6617,68.4235 C275.6617,67.6325 275.8437,66.9645 276.1477,66.2955 C276.4517,65.6265 276.9377,65.1405 277.5457,64.7755 C278.1547,64.4125 278.8237,64.2285 279.6737,64.2285 C280.1597,64.2285 280.5857,64.2895 280.9497,64.3505 L280.9497,61.7965 L279.5517,61.6145 L279.5517,61.0065 L282.0447,60.7635 L282.1057,60.7635 L282.4097,61.0065 L282.4097,71.3415 L283.1997,71.3415 L283.1997,71.9495 C282.8957,72.0095 282.6537,72.0705 282.4697,72.0705 C282.2877,72.0705 282.0447,72.1315 281.8017,72.1315 C281.5577,72.1315 281.3757,72.0705 281.3147,72.0095 C281.1947,71.9495 281.1947,71.7665 281.1947,71.4625 L281.1947,71.0385 C280.9497,71.3415 280.5857,71.5845 280.1597,71.8275 C279.7347,72.0095 279.3087,72.1315 278.8237,72.1315 C278.1547,72.1925 277.6677,72.0705 277.1807,71.8275" id="Fill-71"></path>
            <path d="M31.3413,36.8725 C29.1523,38.4535 26.5993,39.1825 23.8033,39.1825 C16.3863,39.1825 10.3683,33.1645 10.3683,25.7475 C10.3683,18.3315 16.3863,12.3125 23.8033,12.3125 C27.9973,12.3125 31.5233,13.7115 34.0163,16.7505 L41.1893,9.8205 C36.8733,5.0175 30.7943,2.2215 23.8033,2.2215 C10.7323,2.2215 0.1553,12.7995 0.1553,25.8695 C0.1553,38.9395 10.7323,49.5165 23.8033,49.5165 C29.4563,49.5165 34.0163,47.8145 37.9673,44.1675 L57.1163,25.7475 L50.3693,19.1215 L31.3413,36.8725 Z" id="Fill-73"></path>
            <path d="M52.8613,14.5014 C55.0503,12.7994 57.6033,12.0694 60.3993,12.0694 C67.8163,12.0694 73.8343,18.0884 73.8343,25.5044 C73.8343,32.9214 67.8163,38.9394 60.3993,38.9394 C56.2053,38.9394 52.7393,37.3584 50.3083,34.3804 L43.0133,41.3714 C47.3293,46.2344 53.4083,49.0924 60.3993,49.0924 C73.4693,49.0924 84.0473,38.5144 84.0473,25.4434 C84.0473,12.3734 73.4693,1.7964 60.3993,1.7964 C54.7463,1.7964 50.1863,3.4984 46.2353,7.1454 L27.0863,25.6264 L33.8333,32.3744 L52.8613,14.5014 Z" id="Fill-75"></path>
            <path d="M110.4912,11.5229 C111.1602,10.7929 111.4642,9.6989 111.4642,8.2399 C111.4642,6.9639 111.1602,5.9909 110.4912,5.2609 C109.8222,4.5929 108.6672,4.2279 107.0872,4.2279 C106.5402,4.2279 105.9322,4.2889 105.3852,4.3489 C105.0202,4.4099 104.7772,4.4099 104.7162,4.4099 L104.7162,12.6169 L106.3572,12.6169 L107.8772,12.6169 C108.9102,12.6779 109.8222,12.3129 110.4912,11.5229 L110.4912,11.5229 Z M99.6092,21.4319 L101.7982,21.1889 L101.7982,4.6529 L99.7312,4.2889 L99.7312,3.0119 L103.1962,3.0119 C103.6822,3.0119 104.3512,2.9509 105.2022,2.8899 C106.1142,2.8299 106.7832,2.7689 107.2692,2.7689 C109.8832,2.7689 111.7072,3.1939 112.8012,4.0449 C113.8952,4.8969 114.4422,6.2339 114.4422,7.9969 C114.4422,9.2739 114.0782,10.4289 113.4092,11.4619 C112.7402,12.4959 111.7682,13.2249 110.5522,13.5899 C111.0992,13.8939 111.6462,14.3799 112.1322,15.1699 C112.6192,15.8999 113.2272,16.9329 113.8952,18.2099 C114.4422,19.1829 114.8682,19.9119 115.1722,20.3989 C115.4762,20.8849 115.7192,21.1279 116.0232,21.1889 L117.0562,21.4319 L117.0562,22.7089 L113.4092,22.7089 C113.1052,22.7089 112.8012,22.4049 112.4362,21.7969 C112.0722,21.1889 111.5852,20.2159 111.0382,18.9999 C110.4302,17.6019 109.8222,16.5079 109.3972,15.6569 C108.9102,14.8059 108.4852,14.3189 107.9992,14.0759 L104.6552,14.0759 L104.6552,21.1889 L107.2692,21.4319 L107.2692,22.7089 L99.6092,22.7089 L99.6092,21.4319 Z" id="Fill-77"></path>
            <path d="M127.8169,19.9726 C128.4859,18.9386 128.7899,17.4796 128.7899,15.4736 C128.7899,13.5286 128.4859,11.9476 127.8779,10.7926 C127.2699,9.6376 126.2969,9.0906 124.9599,9.0906 C123.7439,9.0906 122.7709,9.5776 122.1629,10.6106 C121.4949,11.6436 121.1909,13.1036 121.1909,15.1096 C121.1909,17.0546 121.4949,18.6346 122.1029,19.7906 C122.7109,20.9456 123.6829,21.4936 125.0209,21.4936 C126.1759,21.4936 127.1479,21.0066 127.8169,19.9726 M119.1239,11.2186 C119.7929,10.0636 120.6439,9.1516 121.7379,8.5436 C122.8319,7.9356 123.9259,7.6316 125.1419,7.6316 C127.3909,7.6316 129.0329,8.3616 130.1879,9.7596 C131.2819,11.1586 131.8899,13.0426 131.8899,15.3526 C131.8899,16.9326 131.5859,18.3306 130.9169,19.4866 C130.2489,20.6416 129.3979,21.5536 128.3029,22.1616 C127.2089,22.7686 126.1149,23.0726 124.8989,23.0726 C122.6499,23.0726 121.0079,22.3436 119.8529,20.9456 C118.7589,19.5466 118.1509,17.6626 118.1509,15.3526 C118.0899,13.7716 118.4549,12.3736 119.1239,11.2186" id="Fill-79"></path>
            <path d="M134.6255,11.4619 C135.1725,10.3069 136.0235,9.3339 137.1785,8.6649 C138.2725,7.9969 139.6715,7.6319 141.1905,7.6319 C141.9205,7.6319 142.5895,7.6929 143.1365,7.8139 C143.6835,7.9359 144.3525,8.1789 145.0815,8.4219 L144.9605,12.4959 L143.2575,12.4959 L142.6495,9.7599 C142.5285,9.2729 141.8595,9.0299 140.6435,9.0299 C139.4285,9.0299 138.4555,9.5169 137.7255,10.5499 C136.9965,11.5229 136.6315,12.9819 136.6315,14.8059 C136.6315,16.8719 137.0575,18.4529 137.8475,19.5469 C138.6375,20.6419 139.6715,21.1889 141.0085,21.1889 C141.7385,21.1889 142.4675,21.0669 143.1365,20.8239 C143.8045,20.5809 144.3525,20.3379 144.8385,19.9729 L145.3245,21.0059 C144.8385,21.4929 144.1695,21.9179 143.1975,22.3439 C142.2855,22.7689 141.3125,22.9519 140.4005,22.9519 C138.9415,22.9519 137.7255,22.6479 136.7535,21.9789 C135.7805,21.3099 134.9905,20.4589 134.5035,19.3039 C134.0175,18.1489 133.7745,16.8719 133.7745,15.4129 C133.7745,14.0149 134.0785,12.6779 134.6255,11.4619" id="Fill-81"></path>
            <polygon id="Fill-83" points="148.9722 2.9512 146.9052 2.6472 146.9052 1.5532 151.1002 1.0062 151.1602 1.0062 151.7082 1.4312 151.7082 14.3802 151.6472 15.9602 157.7872 9.5772 155.7812 9.2122 155.7812 7.9972 162.2252 7.9972 162.2252 9.2122 160.1582 9.5772 156.2062 13.4072 161.2522 21.1882 162.8932 21.4312 162.8932 22.7082 156.4492 22.7082 156.4492 21.4312 158.1522 21.1882 154.3822 15.0482 151.6472 17.7232 151.7082 19.1222 151.7082 21.1882 153.5922 21.4312 153.5922 22.7082 147.2702 22.7082 147.2702 21.4312 148.9722 21.1882"></polygon>
            <path d="M172.5591,13.9546 C172.6201,13.5896 172.6201,13.2246 172.6201,12.7996 C172.6201,11.6446 172.3771,10.7326 171.8901,10.0636 C171.4041,9.3956 170.6741,9.0916 169.7021,9.0916 C168.6681,9.0916 167.8781,9.4556 167.2701,10.1856 C166.6621,10.9146 166.2971,12.1916 166.2371,13.8936 C166.1761,13.9546 172.5591,13.9546 172.5591,13.9546 M164.9601,20.9456 C163.8661,19.5476 163.2581,17.6626 163.2581,15.3526 C163.2581,13.8326 163.5621,12.4346 164.1091,11.2796 C164.7171,10.1246 165.5071,9.2126 166.5411,8.6046 C167.5741,7.9966 168.7901,7.6326 170.1271,7.6326 C171.7691,7.6326 173.0451,8.0576 173.9571,8.9696 C174.8691,9.8816 175.3551,11.1586 175.4161,12.8606 C175.4161,13.9546 175.3551,14.7446 175.2341,15.3526 L166.1151,15.3526 C166.1761,17.1156 166.5411,18.5136 167.3311,19.6076 C168.1211,20.7026 169.2151,21.1886 170.6141,21.1886 C171.3431,21.1886 172.0731,21.0666 172.8021,20.8236 C173.5921,20.5806 174.1401,20.2766 174.5651,19.9116 L175.0511,21.0666 C174.5651,21.6146 173.7751,22.0396 172.7411,22.4656 C171.7081,22.8306 170.7351,23.0736 169.6411,23.0736 C167.6961,23.0126 166.1151,22.3436 164.9601,20.9456" id="Fill-85"></path>
            <path d="M179.7329,9.7597 L177.2409,9.7597 L177.2409,8.5437 L179.7329,8.0577 L179.7329,6.8417 C179.7329,5.7477 180.0369,4.7137 180.5839,3.8017 C181.1309,2.8897 181.9209,2.1607 182.8329,1.6137 C183.7449,1.0667 184.7179,0.8237 185.8119,0.8237 C186.4199,0.8237 186.9059,0.8837 187.3929,1.0667 L187.3929,3.7407 C187.2099,3.6197 186.9059,3.4367 186.4809,3.3157 C185.9949,3.1937 185.5079,3.1337 184.8999,3.1337 C184.0489,3.1337 183.4409,3.3767 183.0769,3.8017 C182.7119,4.2277 182.5289,4.9567 182.5289,6.0517 L182.5289,8.1187 L186.1769,8.1187 L186.1769,9.8217 L182.5289,9.8217 L182.5289,21.1887 L185.4469,21.3707 L185.4469,22.6477 L177.4839,22.6477 L177.4839,21.3707 L179.7329,21.1277 L179.7329,9.7597 Z" id="Fill-87"></path>
            <path d="M196.9976,13.9546 C197.0586,13.5896 197.0586,13.2246 197.0586,12.7996 C197.0586,11.6446 196.8156,10.7326 196.3286,10.0636 C195.8426,9.3956 195.1126,9.0916 194.1406,9.0916 C193.1066,9.0916 192.3166,9.4556 191.7086,10.1856 C191.1006,10.9146 190.7356,12.1916 190.6756,13.8936 C190.6146,13.9546 196.9976,13.9546 196.9976,13.9546 M189.3986,20.9456 C188.3046,19.5476 187.6966,17.6626 187.6966,15.3526 C187.6966,13.8326 188.0006,12.4346 188.5476,11.2796 C189.1556,10.1246 189.9456,9.2126 190.9796,8.6046 C192.0126,7.9966 193.2286,7.6326 194.5656,7.6326 C196.2076,7.6326 197.4836,8.0576 198.3956,8.9696 C199.3076,9.8816 199.7936,11.1586 199.8546,12.8606 C199.8546,13.9546 199.7936,14.7446 199.6726,15.3526 L190.5536,15.3526 C190.6146,17.1156 190.9796,18.5136 191.7696,19.6076 C192.5596,20.7026 193.6536,21.1886 195.0526,21.1886 C195.7816,21.1886 196.5116,21.0666 197.2406,20.8236 C198.0306,20.5806 198.5786,20.2766 199.0036,19.9116 L199.4896,21.0666 C199.0036,21.6146 198.2136,22.0396 197.1796,22.4656 C196.1466,22.8306 195.1736,23.0736 194.0796,23.0736 C192.1346,23.0126 190.4926,22.3436 189.3986,20.9456" id="Fill-89"></path>
            <polygon id="Fill-91" points="203.9883 2.9512 201.7993 2.6472 201.7993 1.5532 206.1163 1.0062 206.7243 1.4312 206.7243 21.1882 208.9733 21.4312 208.9733 22.7082 201.7993 22.7082 201.7993 21.4312 203.9883 21.1882"></polygon>
            <polygon id="Fill-93" points="212.6816 2.9512 210.4936 2.6472 210.4936 1.5532 214.8096 1.0062 215.4176 1.4312 215.4176 21.1882 217.6666 21.4312 217.6666 22.7082 210.4936 22.7082 210.4936 21.4312 212.6816 21.1882"></polygon>
            <path d="M228.6699,13.9546 C228.7309,13.5896 228.7309,13.2246 228.7309,12.7996 C228.7309,11.6446 228.4879,10.7326 228.0009,10.0636 C227.5149,9.3956 226.7859,9.0916 225.8129,9.0916 C224.7789,9.0916 223.9889,9.4556 223.3809,10.1856 C222.7729,10.9146 222.4089,12.1916 222.3479,13.8936 C222.2869,13.9546 228.6699,13.9546 228.6699,13.9546 M221.0709,20.9456 C219.9769,19.5476 219.3689,17.6626 219.3689,15.3526 C219.3689,13.8326 219.6729,12.4346 220.2199,11.2796 C220.8279,10.1246 221.6179,9.2126 222.6519,8.6046 C223.6849,7.9966 224.9009,7.6326 226.2379,7.6326 C227.8799,7.6326 229.1559,8.0576 230.0679,8.9696 C230.9799,9.8816 231.4659,11.1586 231.5269,12.8606 C231.5269,13.9546 231.4659,14.7446 231.3449,15.3526 L222.2259,15.3526 C222.2869,17.1156 222.6519,18.5136 223.4419,19.6076 C224.2319,20.7026 225.3259,21.1886 226.7249,21.1886 C227.4539,21.1886 228.1839,21.0666 228.9129,20.8236 C229.7039,20.5806 230.2509,20.2766 230.6759,19.9116 L231.1619,21.0666 C230.6759,21.6146 229.8859,22.0396 228.8519,22.4656 C227.8189,22.8306 226.8459,23.0736 225.7519,23.0736 C223.8069,23.0126 222.1649,22.3436 221.0709,20.9456" id="Fill-95"></path>
            <path d="M233.7764,21.4316 L235.7824,21.2496 L235.7824,10.0636 L233.8984,9.5776 L233.8984,8.1186 L237.5454,7.6326 L237.6064,7.6326 L238.2144,8.1186 L238.2144,8.6046 L238.1534,10.6716 L238.2144,10.6716 C238.3964,10.3676 238.7004,10.0026 239.1864,9.5166 C239.6734,9.0306 240.2204,8.6046 240.9494,8.1796 C241.6794,7.7536 242.4694,7.5716 243.3204,7.5716 C243.6854,7.5716 243.9894,7.6326 244.1714,7.6926 L244.1714,10.6716 C244.0504,10.6106 243.8674,10.4896 243.5634,10.4286 C243.3204,10.3676 242.9564,10.3066 242.6524,10.3066 C241.1934,10.3066 239.7944,10.7326 238.5794,11.6446 L238.5794,21.1886 L241.9224,21.3706 L241.9224,22.6476 L233.8374,22.6476 L233.7764,21.4316 Z" id="Fill-97"></path>
            <path d="M107.3911,48.4228 C109.1541,48.4228 110.4911,48.0578 111.2821,47.3288 C112.0721,46.5988 112.4971,45.5658 112.4971,44.1678 C112.4971,42.8298 112.1331,41.7968 111.4641,41.1888 C110.7351,40.5808 109.6401,40.2768 108.0601,40.2768 C106.2361,40.2768 105.1421,40.2768 104.6551,40.3378 L104.6551,48.2408 C105.0201,48.3618 105.9321,48.4228 107.3911,48.4228 L107.3911,48.4228 Z M106.1141,38.6958 L107.5731,38.6958 C108.7891,38.6958 109.7621,38.3318 110.3701,37.6628 C110.9781,36.9938 111.3421,36.0218 111.3421,34.7448 C111.3421,33.5288 111.0381,32.6168 110.3701,32.0088 C109.7621,31.4618 108.6681,31.1578 107.0871,31.1578 C106.4791,31.1578 105.8101,31.2188 105.1421,31.2798 L104.5951,31.3408 L104.5951,38.6958 L106.1141,38.6958 L106.1141,38.6958 Z M101.7981,31.6448 L99.6101,31.3408 L99.6101,30.0028 L103.1961,30.0028 C103.8041,30.0028 104.5341,29.9428 105.5061,29.8818 C106.3581,29.8208 106.9651,29.7598 107.3911,29.7598 C109.8231,29.7598 111.5861,30.1248 112.6191,30.9148 C113.6531,31.6448 114.2001,32.7998 114.2001,34.2588 C114.2001,35.5348 113.8351,36.5688 113.1051,37.4808 C112.3761,38.3918 111.4031,38.9398 110.1271,39.1828 C111.8291,39.1218 113.1661,39.5478 114.1391,40.3978 C115.1121,41.2498 115.5981,42.3438 115.5981,43.8028 C115.5981,45.5658 114.9901,47.0258 113.7131,48.1798 C112.4371,49.3348 110.3701,49.8818 107.4521,49.8818 C106.8441,49.8818 106.2361,49.8818 105.6281,49.8208 C104.2301,49.7608 103.4401,49.7608 103.1361,49.7608 L99.6101,49.7608 L99.6101,48.4848 L101.7981,48.2408 L101.7981,31.6448 Z" id="Fill-99"></path>
            <path d="M117.6646,48.3623 L119.6706,48.1803 L119.6706,36.9943 L117.7866,36.5083 L117.7866,35.0483 L121.4336,34.5623 L121.4946,34.5623 L122.1026,35.0483 L122.1026,35.5353 L122.0416,37.6023 L122.1026,37.6023 C122.2846,37.2983 122.5886,36.9333 123.0746,36.4473 C123.5616,35.9603 124.1086,35.5353 124.8376,35.1093 C125.5676,34.6843 126.3576,34.5013 127.2086,34.5013 C127.5736,34.5013 127.8776,34.5623 128.0596,34.6233 L128.0596,37.6023 C127.9386,37.5413 127.7556,37.4203 127.4516,37.3583 C127.1476,37.2983 126.8446,37.2373 126.5406,37.2373 C125.0816,37.2373 123.7436,37.6623 122.4676,38.5743 L122.4676,48.1193 L125.8106,48.3013 L125.8106,49.5783 L117.7256,49.5783 C117.6646,49.7003 117.6646,48.3623 117.6646,48.3623" id="Fill-101"></path>
            <path d="M139.3066,46.9643 C139.9756,45.9303 140.2796,44.4713 140.2796,42.4653 C140.2796,40.5203 139.9756,38.9393 139.3676,37.7843 C138.7596,36.6293 137.7866,36.0823 136.4496,36.0823 C135.2336,36.0823 134.2606,36.5683 133.6526,37.6023 C132.9846,38.6353 132.6806,40.0943 132.6806,42.1013 C132.6806,44.0463 132.9846,45.6263 133.5926,46.7813 C134.2006,47.9363 135.1726,48.4843 136.5106,48.4843 C137.7256,48.4843 138.6376,47.9363 139.3066,46.9643 M130.6136,38.1493 C131.2826,36.9943 132.1336,36.0823 133.2276,35.4743 C134.3216,34.8663 135.4156,34.5623 136.6316,34.5623 C138.8806,34.5623 140.5226,35.2923 141.6776,36.6903 C142.7716,38.0883 143.3796,39.9733 143.3796,42.2833 C143.3796,43.8633 143.0756,45.2613 142.4066,46.4173 C141.7386,47.5723 140.8876,48.4843 139.7926,49.0923 C138.6986,49.7003 137.6046,50.0043 136.3886,50.0043 C134.1396,50.0043 132.4976,49.2743 131.3426,47.8763 C130.2486,46.4773 129.6406,44.5933 129.6406,42.2833 C129.6406,40.7023 129.9446,39.3043 130.6136,38.1493" id="Fill-103"></path>
            <path d="M147.8779,49.2744 C147.3919,48.7884 147.1479,48.0584 147.1479,46.9034 L147.1479,36.6904 L145.2639,36.6904 L145.2639,35.4744 C145.3249,35.4744 145.6289,35.4144 145.9929,35.2924 C146.4189,35.1704 146.6619,35.1094 146.8449,34.9884 C147.1479,34.8054 147.3309,34.5024 147.5129,34.0154 C147.6349,33.6514 147.8169,33.1644 147.9999,32.3744 C148.1819,31.6444 148.3039,31.2194 148.3639,31.0374 L149.9449,31.0374 L150.0059,34.8664 L154.4429,34.8664 L154.4429,36.6304 L150.0059,36.6304 L150.0059,44.7754 C150.0059,45.8094 150.0059,46.4774 150.1269,46.9034 C150.1879,47.3294 150.3099,47.5724 150.5529,47.6934 C150.7349,47.8154 151.0999,47.8764 151.5859,47.8764 C152.0729,47.8764 152.5589,47.8154 153.1669,47.6934 C153.7139,47.5724 154.1999,47.4504 154.5039,47.2684 L154.9299,48.4844 C154.5039,48.7884 153.8359,49.0924 152.8629,49.3964 C151.8899,49.7004 151.0389,49.8214 150.2489,49.8214 C149.1549,49.9424 148.3639,49.7004 147.8779,49.2744" id="Fill-105"></path>
            <path d="M157.6655,29.8818 L155.4165,29.5778 L155.4165,28.4838 L159.7325,27.9978 L159.7935,27.9978 L160.4015,28.4228 L160.4015,34.5628 L160.2795,36.8118 C160.8265,36.3258 161.6165,35.8388 162.5895,35.3528 C163.5625,34.8668 164.5955,34.6848 165.5685,34.6848 C166.6625,34.6848 167.5745,34.8668 168.1825,35.2928 C168.7905,35.7178 169.2155,36.3868 169.4595,37.2378 C169.7025,38.0888 169.8235,39.3048 169.8235,40.7638 L169.8235,48.1808 L171.7085,48.4228 L171.7085,49.6998 L165.3855,49.6998 L165.3855,48.4228 L167.0885,48.1808 L167.0885,40.7028 C167.0885,39.6698 167.0275,38.8178 166.9055,38.2708 C166.7845,37.6628 166.4805,37.2378 166.1155,36.9338 C165.7505,36.6298 165.1425,36.5088 164.3525,36.5088 C163.7445,36.5088 163.0155,36.6908 162.2855,36.9948 C161.5565,37.2988 160.9485,37.6628 160.4015,38.0888 L160.4015,48.1188 L162.2245,48.3628 L162.2245,49.6388 L156.0245,49.6388 L156.0245,48.3628 L157.6045,48.1808 C157.6655,48.1808 157.6655,29.8818 157.6655,29.8818" id="Fill-107"></path>
            <path d="M182.833,40.8852 C182.894,40.5202 182.894,40.1552 182.894,39.7302 C182.894,38.5742 182.651,37.6632 182.164,36.9942 C181.678,36.3262 180.948,36.0222 179.976,36.0222 C178.942,36.0222 178.152,36.3862 177.544,37.1162 C176.936,37.8452 176.571,39.1222 176.511,40.8242 C176.45,40.8852 182.833,40.8852 182.833,40.8852 M175.234,47.8762 C174.14,46.4772 173.532,44.5932 173.532,42.2832 C173.532,40.7632 173.836,39.3652 174.383,38.2102 C174.991,37.0552 175.781,36.1432 176.815,35.5352 C177.848,34.9272 179.064,34.5622 180.401,34.5622 C182.043,34.5622 183.319,34.9882 184.231,35.9002 C185.143,36.8122 185.629,38.0882 185.69,39.7902 C185.69,40.8852 185.629,41.6752 185.508,42.2832 L176.389,42.2832 C176.45,44.0462 176.815,45.4442 177.605,46.5392 C178.395,47.6332 179.489,48.1192 180.888,48.1192 C181.617,48.1192 182.347,47.9972 183.076,47.7542 C183.866,47.5112 184.414,47.2072 184.839,46.8422 L185.325,47.9972 C184.839,48.5442 184.049,48.9702 183.015,49.3962 C181.982,49.7602 181.009,50.0042 179.915,50.0042 C177.97,49.9432 176.328,49.2742 175.234,47.8762" id="Fill-109"></path>
            <path d="M187.9395,48.3623 L189.9455,48.1803 L189.9455,36.9943 L188.0615,36.5083 L188.0615,35.0483 L191.7085,34.5623 L191.7695,34.5623 L192.3775,35.0483 L192.3775,35.5353 L192.3165,37.6023 L192.3775,37.6023 C192.5595,37.2983 192.8635,36.9333 193.3495,36.4473 C193.8365,35.9603 194.3835,35.5353 195.1125,35.1093 C195.8425,34.6843 196.6325,34.5013 197.4835,34.5013 C197.8485,34.5013 198.1525,34.5623 198.3345,34.6233 L198.3345,37.6023 C198.2135,37.5413 198.0305,37.4203 197.7265,37.3583 C197.4225,37.2983 197.1195,37.2373 196.8155,37.2373 C195.3565,37.2373 193.9575,37.6623 192.7425,38.5743 L192.7425,48.1193 L196.0855,48.3013 L196.0855,49.5783 L188.0005,49.5783 L187.9395,48.3623 Z" id="Fill-111"></path>
            <path d="M202.3472,47.5722 C202.5292,47.8152 202.8942,48.0582 203.5022,48.3012 C204.0492,48.4842 204.6572,48.6052 205.3262,48.6052 C206.3592,48.6052 207.0892,48.4232 207.5752,47.9972 C208.0612,47.6332 208.3052,47.0852 208.3052,46.3562 C208.3052,45.8692 208.1222,45.4442 207.8792,45.1402 C207.5752,44.7752 207.1502,44.4712 206.6022,44.2282 C206.0552,43.9252 205.2652,43.6212 204.2922,43.2552 C202.9552,42.7692 201.9212,42.1012 201.3142,41.4322 C200.7062,40.7022 200.4022,39.7902 200.4022,38.6362 C200.4022,37.8452 200.6452,37.1762 201.1312,36.5682 C201.6182,35.9602 202.2252,35.5352 203.0772,35.2312 C203.9282,34.9272 204.8392,34.7452 205.8122,34.7452 C206.6022,34.7452 207.3322,34.8062 207.9402,34.9272 C208.5482,35.0492 209.0342,35.1702 209.3992,35.2922 C209.7642,35.4142 210.0072,35.4742 210.1282,35.5352 L210.1282,38.8182 L208.4872,38.8182 L207.9402,36.8722 C207.8182,36.6902 207.5752,36.5082 207.0892,36.3262 C206.6022,36.2042 206.1162,36.0822 205.5692,36.0822 C204.7792,36.0822 204.1102,36.2642 203.6242,36.6302 C203.1372,36.9942 202.8942,37.4802 202.8942,38.0882 C202.8942,38.6362 203.0162,39.0612 203.2592,39.4262 C203.5022,39.7902 203.8672,40.0342 204.2322,40.2772 C204.5962,40.4592 205.1432,40.7632 205.8122,41.0062 L206.3592,41.1892 C207.3322,41.5532 208.1832,41.9182 208.7912,42.2832 C209.3992,42.6482 209.9462,43.0732 210.3112,43.6812 C210.7362,44.2282 210.9192,44.9572 210.9192,45.8092 C210.9192,47.0852 210.4322,48.1802 209.3992,48.9092 C208.3652,49.7002 206.9672,50.0642 205.2042,50.0642 C204.3532,50.0642 203.4412,49.9422 202.4692,49.7002 C201.5572,49.4562 200.7662,49.2132 200.1592,48.9702 L200.1592,45.5052 L201.8612,45.5052 L202.3472,47.5722 Z" id="Fill-113"></path>
            <polygon id="Fill-115" points="221.8613 31.645 219.6123 31.28 219.6123 30.004 233.7763 30.004 234.0803 34.502 232.3173 34.502 231.5273 31.523 224.7183 31.341 224.7183 39.062 229.5213 39.001 229.9463 36.751 231.4053 36.751 231.4053 42.952 230.0073 42.952 229.5213 40.642 224.7183 40.582 224.7183 48.119 228.8523 48.363 228.8523 49.7 219.7943 49.7 219.7943 48.363 221.8613 48.119"></polygon>
            <path d="M246.9072,49.6387 C246.6642,49.4567 246.5422,49.1527 246.5422,48.6667 L246.5422,47.7547 C245.9342,48.3627 245.2052,48.8487 244.3542,49.2737 C243.5032,49.7007 242.5912,49.9427 241.7402,49.9427 C240.0982,49.9427 238.9432,49.5167 238.2142,48.6047 C237.5452,47.6937 237.1802,46.2347 237.1802,44.2287 L237.1802,36.5687 L235.7212,36.1427 L235.7212,34.9887 L239.4302,34.6237 L239.9162,34.9277 L239.9162,44.0457 C239.9162,45.0797 239.9772,45.8697 240.1592,46.4167 C240.2812,46.9647 240.5852,47.3897 240.9492,47.6937 C241.3142,47.9977 241.8612,48.1187 242.5912,48.1187 C243.3202,48.1187 243.9282,47.9977 244.5972,47.6937 C245.2052,47.3897 245.7522,47.0247 246.2382,46.6607 L246.2382,36.5687 L244.3542,36.1427 L244.3542,34.9887 L248.3662,34.6237 L248.9742,34.9277 L248.9742,48.3007 L250.5532,48.3007 L250.5532,49.5167 C250.0682,49.6387 249.6432,49.7607 249.2782,49.8207 C248.9132,49.8817 248.4882,49.9427 248.0012,49.9427 C247.5152,49.9427 247.1502,49.8207 246.9072,49.6387" id="Fill-117"></path>
            <path d="M254.1416,36.9941 L252.2566,36.5081 L252.2566,35.0491 L256.0266,34.5621 L256.0856,34.5621 L256.6336,35.0491 L256.6336,36.1431 L256.6336,36.7511 C257.2416,36.2041 258.0926,35.6561 259.1256,35.2311 C260.1596,34.7451 261.1936,34.5621 262.1056,34.5621 C263.1996,34.5621 264.0506,34.7451 264.7196,35.1701 C265.3276,35.5971 265.7516,36.2651 265.9956,37.1161 C266.2386,37.9661 266.3606,39.1821 266.3606,40.6411 L266.3606,48.0581 L268.1846,48.2401 L268.1846,49.5781 L261.9216,49.5781 L261.9216,48.3011 L263.5646,48.1191 L263.5646,40.7021 C263.5646,39.6691 263.5026,38.8181 263.3816,38.2701 C263.2606,37.6621 262.9556,37.2371 262.5916,36.9331 C262.2266,36.6291 261.6186,36.5081 260.8896,36.5081 C260.2816,36.5081 259.5516,36.6901 258.8226,36.9941 C258.0926,37.2981 257.4246,37.6621 256.8766,38.0881 L256.8766,48.1191 L258.7006,48.3621 L258.7006,49.6391 L252.4996,49.6391 L252.4996,48.3621 L254.1416,48.1191 L254.1416,36.9941 Z" id="Fill-119"></path>
            <path d="M278.7617,47.6328 C279.3697,47.3288 279.7947,46.9648 280.0987,46.5388 L280.0987,36.8118 C279.9777,36.6298 279.6137,36.3868 279.1267,36.2648 C278.5797,36.0828 278.0327,36.0218 277.4857,36.0218 C276.0867,36.0218 274.9927,36.5688 274.2027,37.6018 C273.4117,38.6358 272.9877,40.2768 272.9877,42.4658 C272.9877,44.3498 273.3517,45.8088 274.0807,46.7208 C274.8107,47.6328 275.7217,48.1188 276.8767,48.1188 C277.4857,48.0588 278.1547,47.9368 278.7617,47.6328 M272.8037,49.1528 C271.8927,48.6048 271.2237,47.8148 270.6767,46.7208 C270.1297,45.6268 269.8857,44.2888 269.8857,42.6478 C269.8857,41.1278 270.1897,39.7908 270.7977,38.5138 C271.4067,37.2978 272.3187,36.3258 273.4727,35.5958 C274.6277,34.8668 275.9657,34.5018 277.5457,34.5018 C278.4577,34.5018 279.2477,34.6238 280.0387,34.8058 L280.0387,29.8208 L277.3647,29.5168 L277.3647,28.3618 L282.1057,27.8758 L282.1657,27.8758 L282.7737,28.3008 L282.7737,48.2408 L284.2937,48.2408 L284.2937,49.4568 C283.7467,49.5778 283.2607,49.6998 282.8347,49.7608 C282.4087,49.8208 281.9847,49.8818 281.4977,49.8818 C281.0107,49.8818 280.7067,49.8208 280.5247,49.6388 C280.3427,49.4568 280.2207,49.1528 280.2207,48.6048 L280.2207,47.7548 C279.7357,48.3628 279.0657,48.8488 278.2757,49.2738 C277.4857,49.6998 276.6337,49.8818 275.6617,49.8818 C274.6887,49.9428 273.7157,49.6998 272.8037,49.1528" id="Fill-121"></path>
        </g>
    </g>
</svg>