<svg width="457" height="26" viewBox="0 0 457 26" fill="none" xmlns="http://www.w3.org/2000/svg">
<g clip-path="url(#clip0)">
<path d="M16.781 7.0607H15.5224C14.9699 3.37711 12.6063 1.22835 8.98407 1.22835C5.82233 1.22835 3.82705 2.64039 3.82705 4.88124C3.82705 6.78443 5.42327 8.04299 8.55432 9.70061C10.611 10.775 12.2993 11.6652 13.6192 12.5247C16.4126 14.3972 17.6712 16.3311 17.6712 18.7868C17.6712 22.4397 14.9392 25.9698 8.64641 25.9698C6.09859 25.9698 2.93685 25.2638 0.450426 24.1587L0.327637 17.7431H1.5862C2.01595 22.2248 4.53307 24.5577 8.7078 24.5577C12.0844 24.5577 14.5708 22.8694 14.5708 20.3523C14.5708 18.2036 13.2202 16.8836 10.6724 15.3795C8.83059 14.2744 7.05019 13.3842 5.51536 12.4326C2.87545 10.8057 0.910873 9.17876 0.910873 6.29329C0.910873 2.6097 4.01122 0.000488281 9.01476 0.000488281C12.33 0.000488281 14.755 0.982779 16.781 2.05716V7.0607Z" fill="black"/>
<path d="M31.9153 0.430176V1.50456H31.3013C28.7842 1.50456 27.9554 2.45615 27.9554 4.42073V21.4266C27.9554 23.6061 28.8149 24.4963 31.24 24.4963H31.946V25.5707H20.5269V24.4963H21.018C23.5658 24.4963 24.5481 23.7903 24.5481 21.5494V4.39003C24.5481 2.14918 23.5965 1.50456 20.9259 1.50456H20.5269V0.430176H31.9153Z" fill="black"/>
<path d="M58.5873 7.24488H57.5129C56.0088 3.37711 52.847 1.22835 48.6109 1.22835C42.3795 1.22835 37.9592 5.89423 37.9592 12.6475C37.9592 19.677 42.4102 24.7112 48.7951 24.7112C51.2508 24.7112 53.8293 24.0052 55.4255 22.9308V17.0678C55.4255 14.52 54.3511 13.9674 51.6192 13.9674H50.9131V12.9237H62.5164V13.9981H62.1481C59.631 13.9981 58.8328 14.9804 58.8328 17.0064V24.0666C55.3027 25.3252 51.9875 25.9698 49.0406 25.9698C40.7833 25.9698 33.9686 21.7644 33.9686 13.3535C33.9686 5.67935 39.9852 0.000488281 49.1327 0.000488281C52.2331 0.000488281 54.8423 0.553027 58.1268 1.78089L58.5873 7.24488Z" fill="black"/>
<path d="M75.7149 0.430176C80.3501 0.430176 84.2793 2.85521 84.2793 6.84576C84.2793 10.0075 81.885 12.4018 77.2805 13.0772C78.5697 14.5506 79.8283 15.8399 80.2887 16.3924L84.4942 21.2732C86.8271 23.9744 87.9322 24.3735 88.9145 24.4042V25.1716C87.7787 25.4172 86.8885 25.54 86.1211 25.54C84.0951 25.54 82.7445 24.5884 80.5343 21.9178L74.4257 14.5813C73.9959 14.0288 73.6276 13.6604 72.5839 13.6604H70.3737V21.3345C70.3737 23.6982 71.2639 24.4656 73.8118 24.4656H74.1494V25.54H63.2214V24.4963H63.5591C66.1069 24.4963 66.9971 23.7903 66.9971 21.3652V4.51282C66.9971 2.42545 66.2297 1.50456 63.6512 1.50456H63.2521V0.430176H75.7149ZM73.3206 12.3404C78.0479 12.3404 80.3194 10.6828 80.3194 7.21412C80.3194 3.34635 77.7716 1.50456 73.5355 1.50456H70.3737V12.3404H73.3206Z" fill="black"/>
<path d="M101.78 0.430176V1.50456H101.166C98.649 1.50456 97.8202 2.45615 97.8202 4.42073V21.4266C97.8202 23.6061 98.6797 24.4963 101.105 24.4963H101.811V25.5707H90.3916V24.4963H90.8827C93.4306 24.4963 94.4129 23.7903 94.4129 21.5494V4.39003C94.4129 2.14918 93.4613 1.50456 90.7906 1.50456H90.3916V0.430176H101.78Z" fill="black"/>
<path d="M119.03 0.430176C126.857 0.430176 132.721 5.37232 132.721 12.6781C132.721 16.024 131.585 19.1244 129.252 21.6722C127.011 24.1279 123.788 25.54 117.771 25.54H104.817V24.4963H105.216C108.133 24.4963 108.931 23.7289 108.931 21.3959V4.63561C108.931 2.17988 107.887 1.50456 105.278 1.50456H104.787V0.430176H119.03ZM112.369 20.5364C112.369 22.8694 113.075 24.4656 117.372 24.4656C120.442 24.4656 122.775 23.9438 124.555 22.8387C127.625 20.9355 128.853 17.3133 128.853 13.6604C128.853 6.01695 123.849 1.47386 116.605 1.47386H112.369V20.5364Z" fill="black"/>
<path d="M159.086 0.430176C163.721 0.430176 167.651 2.85521 167.651 6.84576C167.651 10.0075 165.256 12.4018 160.652 13.0772C161.941 14.5506 163.2 15.8399 163.66 16.3924L167.865 21.2732C170.198 23.9744 171.304 24.3735 172.286 24.4042V25.1716C171.15 25.4172 170.26 25.54 169.492 25.54C167.466 25.54 166.116 24.5884 163.906 21.9178L157.797 14.5813C157.367 14.0288 156.999 13.6604 155.955 13.6604H153.745V21.3345C153.745 23.6982 154.635 24.4656 157.183 24.4656H157.521V25.54H146.593V24.4963H146.93C149.478 24.4963 150.368 23.7903 150.368 21.3652V4.51282C150.368 2.42545 149.601 1.50456 147.023 1.50456H146.623V0.430176H159.086ZM156.692 12.3404C161.419 12.3404 163.691 10.6828 163.691 7.21412C163.691 3.34635 161.143 1.50456 156.907 1.50456H153.745V12.3404H156.692Z" fill="black"/>
<path d="M184.261 0.430176L192.795 20.6899C193.961 23.4833 194.852 24.1893 196.448 24.4963V25.5707H186.656V24.4963C188.835 24.3735 189.725 23.7903 189.725 22.4703C189.725 21.7029 189.51 20.9662 189.05 19.8918L187.208 15.625H177.355C176.065 19.0937 175.39 20.5057 175.39 21.7336C175.39 23.3912 176.526 24.3735 178.582 24.4963V25.5707H170.202V24.4963C171.123 24.4656 171.891 23.8824 172.535 22.9615C173.088 22.1634 173.303 21.9178 174.899 17.9886L181.406 1.75013L180.854 0.460872H184.261V0.430176ZM177.938 14.0288H186.563L182.02 3.19287L177.938 14.0288Z" fill="black"/>
<path d="M205.532 0.430176V1.50456H204.857C202.432 1.50456 201.358 2.11849 201.358 4.32864V17.3133C201.358 21.3345 203.967 24.3735 209.154 24.3735C214.925 24.3735 217.688 20.7513 217.688 14.9804V6.26253C217.688 2.73242 216.399 1.53525 213.452 1.50456V0.430176H222.753V1.50456C219.745 1.81152 218.947 2.97799 218.947 5.95556V15.5022C218.947 22.2861 215.57 26.0004 208.418 26.0004C201.419 26.0004 197.889 22.4089 197.889 17.8351V4.7277C197.889 1.9957 196.753 1.53525 194.42 1.53525H194.082V0.430176H205.532Z" fill="black"/>
<path d="M240.862 7.06064H239.604C239.051 3.37705 236.688 1.22829 233.035 1.22829C229.873 1.22829 227.878 2.64033 227.878 4.88118C227.878 6.78437 229.474 8.04293 232.605 9.70054C234.662 10.7749 236.35 11.6651 237.67 12.5246C240.463 14.3971 241.722 16.331 241.722 18.7867C241.722 22.4396 238.99 25.9697 232.697 25.9697C230.149 25.9697 226.988 25.2637 224.501 24.1586L224.378 17.743H225.637C226.067 22.194 228.584 24.527 232.789 24.527C236.166 24.527 238.652 22.8387 238.652 20.3216C238.652 18.1728 237.302 16.8528 234.754 15.3487C232.912 14.2436 231.132 13.3534 229.597 12.4018C226.957 10.7749 224.992 9.148 224.992 6.26252C224.992 2.57894 228.093 -0.0302734 233.096 -0.0302734C236.411 -0.0302734 238.836 0.952017 240.862 2.0264V7.06064Z" fill="black"/>
<path d="M255.263 0.430176V1.50456H254.649C252.132 1.50456 251.303 2.45615 251.303 4.42073V21.4266C251.303 23.6061 252.163 24.4963 254.588 24.4963H255.294V25.5707H243.875V24.4963H244.366C246.914 24.4963 247.896 23.7903 247.896 21.5494V4.39003C247.896 2.14918 246.944 1.50456 244.274 1.50456H243.875V0.430176H255.263Z" fill="black"/>
<path d="M263.183 0.430176L282.399 20.1988V5.86347C282.399 3.22356 281.049 1.50456 277.948 1.50456V0.430176H287.771V1.50456C284.886 1.65804 283.781 3.10078 283.781 7.02994V21.5494C283.781 21.8871 283.842 22.6852 284.088 23.9131C284.303 25.1409 284.333 25.7855 284.333 25.9083H282.369C281.816 25.0181 280.773 23.6675 279.483 22.3475L264.043 6.29322V20.5057C264.043 22.9001 265.486 24.3735 268.586 24.527V25.6014H258.272V24.4963H258.702C261.219 24.4963 262.631 22.7159 262.631 20.475V4.94257C261.894 4.17516 260.973 3.22356 260.206 2.51754C259.531 1.93431 258.702 1.56595 257.658 1.53525V0.430176H263.183Z" fill="black"/>
<path d="M313.463 7.24488H312.389C310.885 3.37711 307.723 1.22835 303.487 1.22835C297.256 1.22835 292.835 5.89423 292.835 12.6475C292.835 19.677 297.286 24.7112 303.671 24.7112C306.127 24.7112 308.705 24.0052 310.302 22.9308V17.0678C310.302 14.52 309.227 13.9674 306.526 13.9674H305.82V12.9237H317.423V13.9981H317.055C314.538 13.9981 313.74 14.9804 313.74 17.0064V24.0666C310.21 25.3252 306.894 25.9698 303.948 25.9698C295.69 25.9698 288.875 21.7644 288.875 13.3535C288.875 5.67935 294.892 0.000488281 304.04 0.000488281C307.14 0.000488281 309.749 0.553027 313.034 1.78089L313.463 7.24488Z" fill="black"/>
<path d="M356.066 0.430176L356.557 6.35461H355.513C354.101 3.00869 352.536 1.50456 350.019 1.50456H344.616V21.2425C344.616 23.6368 345.322 24.4963 348.085 24.4963H348.515V25.5707H337.402V24.4963H338.016C340.656 24.4963 341.178 23.3605 341.178 21.1811V1.53525H336.236C333.535 1.53525 331.816 2.70172 330.312 6.38531H329.237L329.667 0.460872H356.066V0.430176Z" fill="black"/>
<path d="M370.557 0.430176C375.192 0.430176 379.121 2.85521 379.121 6.84576C379.121 10.0075 376.727 12.4018 372.123 13.0772C373.412 14.5506 374.67 15.8399 375.131 16.3924L379.336 21.2732C381.669 23.9744 382.774 24.3735 383.757 24.4042V25.1716C382.621 25.4172 381.731 25.54 380.963 25.54C378.937 25.54 377.587 24.5884 375.376 21.9178L369.268 14.5813C368.838 14.0288 368.47 13.6604 367.426 13.6604H365.216V21.3345C365.216 23.6982 366.106 24.4656 368.654 24.4656H368.992V25.54H358.064V24.4963H358.401C360.949 24.4963 361.839 23.7903 361.839 21.3652V4.51282C361.839 2.42545 361.072 1.50456 358.493 1.50456H358.094V0.430176H370.557ZM368.163 12.3404C372.89 12.3404 375.162 10.6828 375.162 7.21412C375.162 3.34635 372.614 1.50456 368.378 1.50456H365.216V12.3404H368.163Z" fill="black"/>
<path d="M392.692 0.430176V1.50456H392.016C389.591 1.50456 388.517 2.11849 388.517 4.32864V17.3133C388.517 21.3345 391.126 24.3735 396.314 24.3735C402.085 24.3735 404.848 20.7513 404.848 14.9804V6.26253C404.848 2.73242 403.558 1.53525 400.612 1.50456V0.430176H409.913V1.50456C406.904 1.81152 406.106 2.97799 406.106 5.95556V15.5022C406.106 22.2861 402.73 26.0004 395.577 26.0004C388.578 26.0004 385.048 22.4089 385.048 17.8351V4.7277C385.048 1.9957 383.913 1.53525 381.58 1.53525H381.242V0.430176H392.692Z" fill="black"/>
<path d="M428.02 7.0607H426.761C426.209 3.37711 423.845 1.22835 420.223 1.22835C417.061 1.22835 415.066 2.64039 415.066 4.88124C415.066 6.78443 416.662 8.04299 419.793 9.70061C421.85 10.775 423.538 11.6652 424.858 12.5247C427.651 14.3972 428.91 16.3311 428.91 18.7868C428.91 22.4397 426.178 25.9698 419.885 25.9698C417.337 25.9698 414.175 25.2638 411.689 24.1587L411.566 17.7431H412.825C413.255 22.2248 415.741 24.5577 419.946 24.5577C423.323 24.5577 425.809 22.8694 425.809 20.3523C425.809 18.2036 424.459 16.8836 421.911 15.3795C420.069 14.2744 418.289 13.3842 416.754 12.4326C414.114 10.8057 412.149 9.17876 412.149 6.29329C412.149 2.6097 415.25 0.000488281 420.253 0.000488281C423.569 0.000488281 425.994 0.982779 428.02 2.05716V7.0607Z" fill="black"/>
<path d="M457 0.430176L457.491 6.35461H456.447C455.035 3.00869 453.469 1.50456 450.952 1.50456H445.55V21.2425C445.55 23.6368 446.256 24.4963 449.018 24.4963H449.448V25.5707H438.336V24.4963H438.95C441.59 24.4963 442.112 23.3605 442.112 21.1811V1.53525H437.17C434.468 1.53525 432.749 2.70172 431.245 6.38531H430.171L430.6 0.460872H457V0.430176Z" fill="black"/>
</g>
<defs>
<clipPath id="clip0">
<rect width="457" height="26" fill="white"/>
</clipPath>
</defs>
</svg>
