<svg xmlns="http://www.w3.org/2000/svg" width="268" height="81" viewBox="0 0 268 81">
  <defs>
    <radialGradient id="a" cx="104.07" cy="-393.09" fx="104.07" fy="-393.09" r="12.33" gradientTransform="matrix(1 0 0 -1 -64.58 -364.22)" gradientUnits="userSpaceOnUse">
      <stop offset="0" stop-color="#dc8da1"/>
      <stop offset="1" stop-color="#aa004f"/>
    </radialGradient>
    <radialGradient id="b" cx="126.28" cy="-386.24" fx="126.28" fy="-386.24" r="6.52" gradientTransform="matrix(1 0 0 -1 -64.79 -364.21)" gradientUnits="userSpaceOnUse">
      <stop offset="0" stop-color="#b6b1af"/>
      <stop offset=".15" stop-color="#a49f9d"/>
      <stop offset=".52" stop-color="#7f7975"/>
      <stop offset=".82" stop-color="#68615d"/>
      <stop offset="1" stop-color="#5f5854"/>
    </radialGradient>
    <radialGradient id="c" cx="121.29" cy="-415.65" fx="121.29" fy="-415.65" r="8.1" gradientTransform="matrix(1 0 0 -1 -64.79 -364.21)" gradientUnits="userSpaceOnUse">
      <stop offset="0" stop-color="#f0eeee"/>
      <stop offset=".04" stop-color="#eceaea"/>
      <stop offset=".46" stop-color="#c7c3c2"/>
      <stop offset=".8" stop-color="#b0acaa"/>
      <stop offset="1" stop-color="#a8a3a1"/>
    </radialGradient>
    <radialGradient id="d" cx="96.71" cy="-400.52" fx="96.71" fy="-400.52" r="4.52" gradientTransform="matrix(1.04 0 0 -1.04 -74.08 -360.6)" gradientUnits="userSpaceOnUse">
      <stop offset="0" stop-color="#766f6c"/>
      <stop offset=".13" stop-color="#68615e"/>
      <stop offset=".51" stop-color="#413b36"/>
      <stop offset=".81" stop-color="#29231e"/>
      <stop offset="1" stop-color="#201a15"/>
    </radialGradient>
    <radialGradient id="e" cx="95.08" cy="-375.88" fx="95.08" fy="-375.88" r="4.26" gradientTransform="matrix(1 0 0 -1 -64.58 -364.22)" gradientUnits="userSpaceOnUse">
      <stop offset="0" stop-color="#766f6c"/>
      <stop offset=".13" stop-color="#68615e"/>
      <stop offset=".51" stop-color="#413b36"/>
      <stop offset=".81" stop-color="#29231e"/>
      <stop offset="1" stop-color="#201a15"/>
    </radialGradient>
    <radialGradient id="f" cx="74.03" cy="-399.16" fx="74.03" fy="-399.16" r="6.52" gradientTransform="matrix(1 0 0 -1 -64.58 -364.22)" gradientUnits="userSpaceOnUse">
      <stop offset="0" stop-color="#b6b1af"/>
      <stop offset=".15" stop-color="#a49f9d"/>
      <stop offset=".52" stop-color="#7f7975"/>
      <stop offset=".82" stop-color="#68615d"/>
      <stop offset="1" stop-color="#5f5854"/>
    </radialGradient>
    <radialGradient id="g" cx="119.32" cy="-366.79" fx="119.32" fy="-366.79" r="3.9" gradientTransform="matrix(1 0 0 -1 -64.58 -364.22)" gradientUnits="userSpaceOnUse">
      <stop offset="0" stop-color="#f0eeee"/>
      <stop offset=".04" stop-color="#eceaea"/>
      <stop offset=".46" stop-color="#c7c3c2"/>
      <stop offset=".8" stop-color="#b0acaa"/>
      <stop offset="1" stop-color="#a8a3a1"/>
    </radialGradient>
  </defs>
  <path d="M268 69.83h-1.5l-3.41 5.6-3.39-5.6h-1.63l4.21 6.92v3.7h1.5v-3.67l4.22-6.95Zm-16.39 10.71c.78 0 1.55-.14 2.28-.42.68-.27 1.29-.7 1.79-1.24l-.99-.96a3.91 3.91 0 0 1-2.98 1.27 4.3 4.3 0 0 1-2.14-.53 3.87 3.87 0 0 1-1.49-1.46 4.35 4.35 0 0 1 0-4.17 3.8 3.8 0 0 1 1.49-1.46 4.33 4.33 0 0 1 2.14-.53 3.92 3.92 0 0 1 2.98 1.26l.99-.95a4.66 4.66 0 0 0-1.76-1.24 6.32 6.32 0 0 0-5.16.29 5.1 5.1 0 0 0-2.01 1.95 5.62 5.62 0 0 0 0 5.56 5.23 5.23 0 0 0 2.01 1.95c.88.47 1.87.71 2.88.7m-15.86-3.99 2.29-5.2 2.29 5.2h-4.58Zm6.28 3.87h1.59l-4.84-10.6h-1.5l-4.83 10.61h1.56l1.19-2.65h5.64l1.18 2.64Zm-17.26-4.52h-2.58v-4.76h2.52a3.4 3.4 0 0 1 2.2.6c.98.93 1.02 2.47.09 3.45l-.09.09c-.64.45-1.42.66-2.2.6m4.65 4.52-2.52-3.57c.7-.23 1.3-.67 1.73-1.26.41-.62.62-1.35.6-2.09a3.32 3.32 0 0 0-1.19-2.71c-.93-.67-2.07-1-3.21-.93h-4.17v10.62h1.52v-3.24h2.63c.16 0 .38 0 .67-.03l2.29 3.26 1.67-.05Zm-17.39.12a6.4 6.4 0 0 0 2.29-.42c.68-.27 1.29-.7 1.79-1.24l-.98-.96a3.96 3.96 0 0 1-2.98 1.27 4.33 4.33 0 0 1-2.14-.53 3.8 3.8 0 0 1-1.49-1.46 4.3 4.3 0 0 1 0-4.17c.35-.62.87-1.13 1.49-1.46a4.3 4.3 0 0 1 2.14-.53 3.95 3.95 0 0 1 2.98 1.26l.98-.95a4.66 4.66 0 0 0-1.76-1.24 6.3 6.3 0 0 0-5.15.29 5.12 5.12 0 0 0-2.02 1.95 5.68 5.68 0 0 0 0 5.56 5.23 5.23 0 0 0 2.01 1.95c.88.47 1.87.71 2.88.7m-15.42-1.35a4.19 4.19 0 0 1-2.11-.53 3.87 3.87 0 0 1-1.49-1.46 4.35 4.35 0 0 1 0-4.17 3.8 3.8 0 0 1 1.49-1.46 4.21 4.21 0 0 1 2.11-.53c.74-.01 1.46.17 2.1.53.62.34 1.12.85 1.47 1.46a4.3 4.3 0 0 1 0 4.17 3.82 3.82 0 0 1-1.47 1.46c-.64.36-1.37.54-2.1.53m0 1.35c1 .01 2-.23 2.88-.7a5.12 5.12 0 0 0 2.02-1.95 5.68 5.68 0 0 0 0-5.56 5.19 5.19 0 0 0-2.02-1.95 6.26 6.26 0 0 0-5.77 0 5.19 5.19 0 0 0-2.02 1.95 5.6 5.6 0 0 0 0 5.55c.48.82 1.18 1.5 2.02 1.95.89.48 1.88.72 2.89.7m-10.4-.12V69.81h-1.24l-4.36 7.46-4.46-7.41h-1.24v10.62h1.46v-7.7l3.83 6.4h.7l3.84-6.45v7.74l1.48-.05Zm-22.07-1.32v-3.43h5.33v-1.29h-5.33v-3.26h5.95v-1.27h-7.48v10.62h7.7v-1.32l-6.18-.05Zm-15.25 0v-7.98h2.86c.79-.02 1.56.15 2.27.5.63.31 1.15.8 1.51 1.4.71 1.3.71 2.87 0 4.17-.36.6-.88 1.09-1.51 1.4a4.8 4.8 0 0 1-2.27.5h-2.86Zm-1.53 1.37h4.48a6.44 6.44 0 0 0 2.98-.67 4.8 4.8 0 0 0 2.02-1.87 5.64 5.64 0 0 0 0-5.54 4.8 4.8 0 0 0-2.02-1.87 6.38 6.38 0 0 0-2.98-.67h-4.48v10.62Zm-11.07-9.3v-1.32h-7.49v10.62h1.52v-4.29h5.32v-1.3h-5.32v-3.7h5.97Zm-18.16 8.06a4.25 4.25 0 0 1-2.12-.53 3.84 3.84 0 0 1-1.48-1.46 4.3 4.3 0 0 1 0-4.17c.35-.62.86-1.12 1.48-1.46a4.25 4.25 0 0 1 2.12-.53 3.96 3.96 0 0 1 3.57 1.99c.71 1.3.71 2.87 0 4.17a3.89 3.89 0 0 1-1.47 1.46c-.64.36-1.37.54-2.1.53m0 1.35c1 .01 2-.23 2.88-.7a5.19 5.19 0 0 0 2.02-1.95 5.68 5.68 0 0 0 0-5.56 5.26 5.26 0 0 0-2.02-1.95 6.28 6.28 0 0 0-5.78 0 5.19 5.19 0 0 0-2.02 1.95 5.6 5.6 0 0 0 0 5.55c.48.82 1.18 1.5 2.02 1.95.89.47 1.89.72 2.9.7m-20.05 0c.78.02 1.55-.12 2.27-.4.56-.22 1.04-.6 1.38-1.09.3-.45.46-.98.46-1.52a2.35 2.35 0 0 0-.52-1.59 3.2 3.2 0 0 0-1.26-.88 16.4 16.4 0 0 0-1.92-.6c-.49-.11-.98-.24-1.46-.4-.33-.11-.64-.3-.9-.54a1.19 1.19 0 0 1-.37-.89c0-.48.25-.93.65-1.19a3.27 3.27 0 0 1 1.93-.47 5.42 5.42 0 0 1 2.92.86l.5-1.19a5.04 5.04 0 0 0-1.57-.7 7.22 7.22 0 0 0-1.85-.24 5.66 5.66 0 0 0-2.26.41 2.77 2.77 0 0 0-1.81 2.62c-.03.59.16 1.16.52 1.62.34.39.77.7 1.26.89.63.24 1.28.44 1.93.6.64.15 1.13.29 1.48.4.33.11.63.29.88.52.24.23.37.55.36.89 0 .48-.24.94-.65 1.19-.6.34-1.28.49-1.97.45-.66 0-1.32-.11-1.95-.34a4.45 4.45 0 0 1-1.55-.89l-.56 1.19c.51.44 1.11.77 1.75.96.75.25 1.52.37 2.31.37m-14.46-1.44v-3.43h5.32v-1.29h-5.32V71.2h5.95v-1.36h-7.47v10.62h7.7v-1.32l-6.18.04Zm-9.25 1.32h1.52V69.84h-1.52V80.5Zm-9.52 0h1.5v-9.35H70v-1.32h-8.77v1.32h3.64v9.34Zm-13.48-1.32v-3.43h5.32v-1.29h-5.32V71.2h5.95v-1.36h-7.47v10.62h7.7v-1.32l-6.18.04Zm-8.93 1.32h1.52V69.84h-1.54l.02 10.66Zm-9.36-4.57h-2.58v-4.76h2.58a3.4 3.4 0 0 1 2.2.6c.98.93 1.02 2.47.09 3.45l-.09.09c-.64.45-1.42.66-2.2.6m4.65 4.52-2.52-3.57c.7-.22 1.3-.67 1.73-1.26.41-.62.62-1.35.6-2.09a3.32 3.32 0 0 0-1.19-2.71 4.97 4.97 0 0 0-3.24-.99h-4.17v10.62h1.52v-3.2h2.63c.16 0 .38 0 .67-.03l2.29 3.26 1.7-.03Zm-20.62-3.87 2.27-5.17 2.29 5.2-4.57-.03Zm6.27 3.87h1.6l-4.83-10.58h-1.51l-4.8 10.62h1.56l1.19-2.65h5.64l1.15 2.62ZM10.46 69.85l-3.85 8.72-3.81-8.72H1.14l4.67 10.62h1.5l4.65-10.62h-1.53Z" fill="#575756"/>
  <path d="M254.84 28.69c-2.44-.04-4.85.48-7.05 1.52a11.88 11.88 0 0 0-4.89 4.21 10.14 10.14 0 0 0-4.33-4.27c-2-1-4.21-1.51-6.44-1.46-2.16-.04-4.29.39-6.27 1.26-1.78.8-3.32 2.06-4.45 3.66v-4.63h-5.39v31.03h5.62V44.03c0-3.31.84-5.86 2.52-7.64s3.94-2.67 6.79-2.66c2.58 0 4.56.76 5.95 2.28 1.39 1.52 2.08 3.78 2.08 6.79v17.21h5.62V44.03c0-3.32.83-5.86 2.52-7.64s3.94-2.66 6.79-2.66c2.58 0 4.56.76 5.95 2.28 1.39 1.52 2.08 3.78 2.08 6.79v17.21h5.62V42.15c0-4.44-1.14-7.8-3.43-10.07-2.29-2.27-5.38-3.4-9.27-3.39m-58.33 4.76a9.62 9.62 0 0 1 9.96 8.85h-19.92a9.69 9.69 0 0 1 9.95-8.86m15.34 11.24c.06-2.9-.62-5.77-1.96-8.33a14.25 14.25 0 0 0-5.41-5.64 15.54 15.54 0 0 0-7.93-2.02c-2.79-.04-5.55.65-7.99 2.02a14.6 14.6 0 0 0-5.57 5.65 16.52 16.52 0 0 0-2.02 8.14c-.05 2.87.67 5.7 2.08 8.2a14.41 14.41 0 0 0 5.88 5.65 19.7 19.7 0 0 0 15.72.73 13.58 13.58 0 0 0 5.24-3.74l-3.1-3.63c-2.26 2.5-5.25 3.75-8.96 3.74-2.76.09-5.46-.78-7.64-2.48a9.75 9.75 0 0 1-3.6-6.59h25.17a16 16 0 0 0 .12-1.7m-68.3 10.27V24.12h11.07a19 19 0 0 1 8.76 1.93 13.87 13.87 0 0 1 5.82 5.41 16.8 16.8 0 0 1 0 16.1 13.93 13.93 0 0 1-5.82 5.41 18.8 18.8 0 0 1-8.75 1.93l-11.07.03Zm-5.86 5.1h17.26c3.99.07 7.95-.81 11.53-2.58a18.89 18.89 0 0 0 7.83-7.28 20.46 20.46 0 0 0 2.78-10.71c.07-3.75-.89-7.44-2.78-10.68a18.94 18.94 0 0 0-7.82-7.18A25.04 25.04 0 0 0 155 19.04h-17.26v41Zm-20.85-13.64h15.75v-4.86h-15.76v4.86Zm-3.39-27.34L98.61 52.73 83.86 19.04h-6.32l18.03 40.98h5.8l17.98-40.98-5.86.03Z" fill="#1d1d1b"/>
  <path d="M34.14 46.61A12.28 12.28 0 0 1 21.9 34.28v-.11a12.33 12.33 0 1 1 24.66.34 12.25 12.25 0 0 1-12.38 12.11h-.04Z" fill="url(#a)"/>
  <path d="M58.78 31.41a6.55 6.55 0 1 1 6.55-6.55v.15a6.5 6.5 0 0 1-6.55 6.4Z" fill="url(#b)"/>
  <path d="M53.1 63.09a8.1 8.1 0 1 1 8.16-8.04v.09a8.09 8.09 0 0 1-8.16 7.95Z" fill="url(#c)"/>
  <path d="M24.73 63a4.72 4.72 0 1 1 4.76-4.69v.05A4.71 4.71 0 0 1 24.73 63Z" fill="url(#d)"/>
  <path d="M28.37 15.62a4.46 4.46 0 1 1 4.48-4.43v.06a4.44 4.44 0 0 1-4.48 4.37Z" fill="url(#e)"/>
  <path d="M6.55 44.33a6.55 6.55 0 1 1 6.55-6.55v.15a6.5 6.5 0 0 1-6.55 6.4Z" fill="url(#f)"/>
  <path d="M53.03 8.19a3.9 3.9 0 1 1 3.93-3.87v.04a3.89 3.89 0 0 1-3.93 3.83Z" fill="url(#g)"/>
</svg>
