<svg xmlns="http://www.w3.org/2000/svg" width="293" height="51" viewBox="0 0 293 51">
  <defs>
    <radialGradient id="a" cx="-552.39" cy="278.58" fx="-552.39" fy="278.58" r="20.73" gradientTransform="matrix(.37 0 0 -.37 227.7 120.62)" gradientUnits="userSpaceOnUse">
      <stop offset="0" stop-color="#dc8da1"/>
      <stop offset="1" stop-color="#aa004f"/>
    </radialGradient>
    <radialGradient id="b" cx="-515.2" cy="290.08" fx="-515.2" fy="290.08" r="10.95" gradientTransform="matrix(.37 0 0 -.37 227.62 120.62)" gradientUnits="userSpaceOnUse">
      <stop offset="0" stop-color="#b6b1af"/>
      <stop offset=".15" stop-color="#a49f9d"/>
      <stop offset=".52" stop-color="#7f7975"/>
      <stop offset=".82" stop-color="#68615d"/>
      <stop offset="1" stop-color="#5f5854"/>
    </radialGradient>
    <radialGradient id="c" cx="-523.59" cy="240.65" fx="-523.59" fy="240.65" r="13.61" gradientTransform="matrix(.37 0 0 -.37 227.62 120.62)" gradientUnits="userSpaceOnUse">
      <stop offset="0" stop-color="#f0eeee"/>
      <stop offset=".04" stop-color="#eceaea"/>
      <stop offset=".46" stop-color="#c7c3c2"/>
      <stop offset=".8" stop-color="#b0acaa"/>
      <stop offset="1" stop-color="#a8a3a1"/>
    </radialGradient>
    <radialGradient id="d" cx="-543.02" cy="236.4" fx="-543.02" fy="236.4" r="7.6" gradientTransform="matrix(.38 0 0 -.38 224.21 125.32)" gradientUnits="userSpaceOnUse">
      <stop offset="0" stop-color="#766f6c"/>
      <stop offset=".13" stop-color="#68615e"/>
      <stop offset=".51" stop-color="#413b36"/>
      <stop offset=".81" stop-color="#29231e"/>
      <stop offset="1" stop-color="#201a15"/>
    </radialGradient>
    <radialGradient id="e" cx="-567.5" cy="307.49" fx="-567.5" fy="307.49" r="7.16" gradientTransform="matrix(.37 0 0 -.37 227.7 120.62)" gradientUnits="userSpaceOnUse">
      <stop offset="0" stop-color="#766f6c"/>
      <stop offset=".13" stop-color="#68615e"/>
      <stop offset=".51" stop-color="#413b36"/>
      <stop offset=".81" stop-color="#29231e"/>
      <stop offset="1" stop-color="#201a15"/>
    </radialGradient>
    <radialGradient id="f" cx="-602.88" cy="268.37" fx="-602.88" fy="268.37" r="10.95" gradientTransform="matrix(.37 0 0 -.37 227.7 120.62)" gradientUnits="userSpaceOnUse">
      <stop offset="0" stop-color="#b6b1af"/>
      <stop offset=".15" stop-color="#a49f9d"/>
      <stop offset=".52" stop-color="#7f7975"/>
      <stop offset=".82" stop-color="#68615d"/>
      <stop offset="1" stop-color="#5f5854"/>
    </radialGradient>
    <radialGradient id="g" cx="-526.75" cy="322.77" fx="-526.75" fy="322.77" r="6.55" gradientTransform="matrix(.37 0 0 -.37 227.7 120.62)" gradientUnits="userSpaceOnUse">
      <stop offset="0" stop-color="#f0eeee"/>
      <stop offset=".04" stop-color="#eceaea"/>
      <stop offset=".46" stop-color="#c7c3c2"/>
      <stop offset=".8" stop-color="#b0acaa"/>
      <stop offset="1" stop-color="#a8a3a1"/>
    </radialGradient>
  </defs>
  <path d="M165.74 43.43h-.93l-2.11 3.46-2.1-3.46h-1.01l2.61 4.28V50h.93v-2.27l2.61-4.3Zm-10.13 6.63c.48 0 .96-.08 1.41-.26.42-.17.8-.43 1.1-.77l-.61-.59c-.47.51-1.14.8-1.84.79-.46 0-.92-.11-1.33-.33a2.24 2.24 0 0 1-.92-.91 2.69 2.69 0 0 1 0-2.58c.22-.38.54-.7.92-.91.41-.22.86-.34 1.33-.33.7-.02 1.37.27 1.84.78l.61-.59a2.9 2.9 0 0 0-1.09-.77 3.9 3.9 0 0 0-3.19.18c-.52.28-.95.7-1.24 1.2a3.51 3.51 0 0 0 0 3.44c.3.51.72.92 1.24 1.2.55.29 1.16.44 1.78.43m-9.81-2.47 1.42-3.22 1.42 3.22h-2.83Zm3.88 2.39h.98l-2.99-6.55h-.93l-2.99 6.56h.96l.74-1.64h3.49l.73 1.63Zm-10.68-2.8h-1.59v-2.95h1.56c.48-.04.96.09 1.36.37.6.57.63 1.53.06 2.13l-.06.06c-.4.28-.88.41-1.36.37m2.88 2.8-1.56-2.21a2.1 2.1 0 0 0 1.07-.78c.25-.38.38-.83.37-1.29a2.07 2.07 0 0 0-.74-1.68 3.02 3.02 0 0 0-1.99-.57h-2.58v6.57h.94v-2h1.62c.1 0 .24 0 .41-.02l1.41 2.02 1.03-.03Zm-10.76.07c.48 0 .96-.08 1.41-.26.42-.17.8-.43 1.1-.77l-.61-.59c-.47.51-1.14.8-1.84.79-.46 0-.92-.11-1.32-.33a2.24 2.24 0 0 1-.92-.91 2.63 2.63 0 0 1 0-2.58c.22-.38.54-.7.92-.91.4-.22.86-.34 1.32-.33.7-.01 1.37.27 1.84.78l.61-.59a2.9 2.9 0 0 0-1.09-.77 3.9 3.9 0 0 0-3.19.18 3.2 3.2 0 0 0-1.25 1.2 3.51 3.51 0 0 0 0 3.44c.3.51.72.92 1.24 1.2.55.29 1.16.44 1.78.43m-9.54-.84c-.46 0-.91-.11-1.31-.33-.38-.21-.7-.52-.92-.91a2.69 2.69 0 0 1 0-2.58 2.5 2.5 0 0 1 2.23-1.24c.45 0 .9.1 1.3.33.38.21.7.53.91.91.45.8.45 1.78 0 2.58-.21.38-.53.69-.91.91-.4.22-.84.34-1.3.33m0 .84a3.8 3.8 0 0 0 1.78-.43 3.2 3.2 0 0 0 1.25-1.2c.6-1.07.6-2.37 0-3.44-.3-.51-.73-.93-1.25-1.2a3.88 3.88 0 0 0-3.57 0c-.52.28-.95.7-1.25 1.21a3.44 3.44 0 0 0 0 3.43c.3.51.73.93 1.25 1.21.55.29 1.17.44 1.79.43m-6.43-.07v-6.57h-.77l-2.7 4.62-2.76-4.58h-.77v6.57h.9v-4.76l2.37 3.96h.43l2.37-3.99v4.79l.92-.03Zm-13.65-.82v-2.12h3.29v-.8h-3.29v-2.02h3.68v-.78h-4.62v6.57h4.76v-.82l-3.82-.03Zm-9.43 0v-4.93h1.77c.49-.01.97.1 1.4.31.39.19.71.49.94.87.44.8.44 1.77 0 2.58-.22.37-.55.68-.94.87a3.1 3.1 0 0 1-1.4.31h-1.77Zm-.95.85h2.77c.64.01 1.27-.13 1.84-.42.52-.26.96-.66 1.25-1.16.6-1.06.6-2.36 0-3.42-.3-.5-.73-.9-1.25-1.16a4.04 4.04 0 0 0-1.84-.42H91.1v6.57Zm-6.85-5.75v-.81h-4.63v6.57h.94v-2.65h3.29v-.81h-3.29v-2.29h3.69Zm-11.23 4.98c-.46 0-.91-.11-1.31-.33-.38-.21-.7-.52-.92-.91a2.63 2.63 0 0 1 0-2.58c.22-.38.53-.69.92-.91a2.7 2.7 0 0 1 2.61 0c.38.21.69.53.91.91.44.8.44 1.77 0 2.58a2.48 2.48 0 0 1-2.21 1.24m0 .84a3.8 3.8 0 0 0 1.78-.43c.52-.28.95-.7 1.25-1.2.6-1.07.6-2.37 0-3.44a3.2 3.2 0 0 0-1.25-1.2 3.88 3.88 0 0 0-3.57 0c-.52.28-.95.7-1.25 1.21a3.5 3.5 0 0 0 0 3.43c.3.51.73.93 1.25 1.21.55.29 1.17.44 1.79.43m-12.4 0c.48.01.96-.07 1.41-.25.35-.13.64-.37.85-.67.19-.28.29-.61.28-.94.02-.36-.1-.71-.32-.98a1.93 1.93 0 0 0-.78-.54 9.65 9.65 0 0 0-1.19-.37 9.4 9.4 0 0 1-.91-.25c-.21-.07-.4-.18-.56-.33a.75.75 0 0 1-.23-.55c0-.3.15-.57.4-.74a2 2 0 0 1 1.19-.29 3.5 3.5 0 0 1 1.8.53l.31-.74c-.29-.2-.62-.35-.97-.43a4.4 4.4 0 0 0-2.54.1 1.9 1.9 0 0 0-.84.67c-.18.28-.28.61-.28.95-.02.36.1.72.32 1 .21.24.48.43.78.55.39.15.79.27 1.2.37.39.09.7.18.91.25.2.07.39.18.54.32a.7.7 0 0 1 .22.55c0 .3-.15.58-.4.74-.37.21-.79.31-1.22.28a3.48 3.48 0 0 1-2.16-.76l-.35.74c.31.27.68.48 1.08.6.46.15.94.23 1.43.23m-8.95-.89v-2.12h3.29v-.8h-3.29v-2.02h3.68v-.84H50.7v6.57h4.76v-.82l-3.82.03Zm-5.72.82h.94v-6.59h-.94v6.59Zm-5.89 0h.93v-5.78h2.25v-.81h-5.43v.82h2.25v5.78Zm-8.33-.82v-2.12h3.29v-.8H31.7v-2.02h3.68v-.84h-4.62v6.57h4.76v-.82l-3.82.03Zm-5.52.82h.94v-6.59h-.95v6.59Zm-5.78-2.83h-1.59v-2.95h1.59c.48-.04.96.09 1.36.37.6.57.63 1.53.06 2.13l-.06.06c-.4.28-.88.41-1.36.37m2.88 2.8-1.56-2.21a2.1 2.1 0 0 0 1.07-.78c.25-.38.38-.83.37-1.29a2.07 2.07 0 0 0-.74-1.68 3.1 3.1 0 0 0-2.01-.61h-2.58v6.57h.94v-1.98h1.62c.1 0 .24 0 .41-.02l1.41 2.02 1.05-.02Zm-12.75-2.39 1.41-3.2 1.42 3.22-2.82-.02Zm3.88 2.39h.99l-2.99-6.55h-.93l-2.97 6.57h.96l.74-1.64h3.49l.71 1.62Zm-8-6.55L4.03 48.8l-2.36-5.39H.71l2.89 6.57h.93l2.88-6.57h-.95Z" fill="#575756"/>
  <path d="M157.61 17.99c-1.51-.03-3 .3-4.36.94a7.3 7.3 0 0 0-3.03 2.61 6.26 6.26 0 0 0-2.68-2.64 8.58 8.58 0 0 0-3.98-.91 9.26 9.26 0 0 0-3.88.78 6.88 6.88 0 0 0-2.75 2.26v-2.86h-3.33v19.19h3.48v-9.88c0-2.05.52-3.62 1.56-4.73s2.44-1.65 4.2-1.65c1.6 0 2.82.47 3.68 1.41.86.94 1.29 2.34 1.29 4.2v10.65h3.48v-9.88c0-2.05.52-3.63 1.56-4.73s2.44-1.65 4.2-1.65c1.6 0 2.82.47 3.68 1.41.86.94 1.29 2.34 1.28 4.2v10.65h3.48V26.32c0-2.75-.71-4.83-2.12-6.23-1.41-1.4-3.33-2.1-5.74-2.1m-36.08 2.95a5.97 5.97 0 0 1 6.16 5.47h-12.32a6 6 0 0 1 6.15-5.48m9.49 6.95a10.6 10.6 0 0 0-1.21-5.15 8.85 8.85 0 0 0-3.35-3.49 9.6 9.6 0 0 0-4.91-1.25 9.71 9.71 0 0 0-4.94 1.25 8.95 8.95 0 0 0-3.44 3.49 10.28 10.28 0 0 0-1.25 5.03c-.03 1.77.41 3.52 1.28 5.07a8.87 8.87 0 0 0 3.64 3.49 12.18 12.18 0 0 0 9.72.45 8.41 8.41 0 0 0 3.24-2.32l-1.92-2.25a7.1 7.1 0 0 1-5.54 2.32 7.24 7.24 0 0 1-4.72-1.54 6.03 6.03 0 0 1-2.23-4.08h15.57c.04-.35.07-.7.07-1.05M88.8 34.2V15.17h6.84c1.87-.04 3.73.37 5.42 1.2 1.5.74 2.75 1.9 3.6 3.35a10.42 10.42 0 0 1 0 9.96 8.68 8.68 0 0 1-3.6 3.35 11.66 11.66 0 0 1-5.41 1.2l-6.85.02Zm-3.62 3.15h10.68c2.47.05 4.92-.5 7.13-1.59 2.01-1 3.69-2.57 4.84-4.5a12.64 12.64 0 0 0 1.72-6.63c.04-2.32-.55-4.6-1.72-6.6a11.75 11.75 0 0 0-4.83-4.44A15.46 15.46 0 0 0 95.87 12H85.19v25.36Zm-12.89-8.44h9.74v-3h-9.74v3ZM70.2 12 61 32.82l-9.12-20.84h-3.91l11.15 25.35h3.59l11.12-25.35-3.62.02Z" fill="#1d1d1b"/>
  <path d="M21.12 29.08a7.6 7.6 0 0 1-7.57-7.63v-.07a7.63 7.63 0 0 1 15.25.21 7.58 7.58 0 0 1-7.66 7.49h-.02Z" fill="url(#a)"/>
  <path d="M36.35 19.67a4.05 4.05 0 1 1 4.05-4.05v.09a4.02 4.02 0 0 1-4.05 3.96Z" fill="url(#b)"/>
  <path d="M32.84 39.27a5 5 0 1 1 5.05-4.97v.06a4.99 4.99 0 0 1-5.05 4.91Z" fill="url(#c)"/>
  <path d="M15.29 39.21a2.93 2.93 0 1 1 2.95-2.9v.03a2.91 2.91 0 0 1-2.95 2.87Z" fill="url(#d)"/>
  <path d="M17.54 9.91a2.75 2.75 0 1 1 2.77-2.74v.04a2.74 2.74 0 0 1-2.77 2.7Z" fill="url(#e)"/>
  <path d="M4.05 27.66a4.05 4.05 0 1 1 4.05-4.05v.09a4.02 4.02 0 0 1-4.05 3.96Z" fill="url(#f)"/>
  <path d="M32.8 5.31a2.41 2.41 0 1 1 2.43-2.39v.03a2.41 2.41 0 0 1-2.43 2.37Z" fill="url(#g)"/>
  <rect x="174.17" y="11.42" width=".4" height="39.09" fill="#1d1d1b"/>
  <path d="M188.07 25.55h.89v2.55a4.08 4.08 0 0 1-4.25.39 3.11 3.11 0 0 1-1.24-1.2 3.44 3.44 0 0 1 0-3.43c.3-.51.73-.92 1.25-1.19 1-.51 2.17-.57 3.22-.17.42.16.8.41 1.1.74l-.58.58a2.63 2.63 0 0 0-1.89-.74c-.47 0-.93.1-1.34.32-.4.2-.73.51-.96.89-.45.8-.45 1.78 0 2.58.22.38.54.69.93.9.41.22.87.33 1.33.33.54.01 1.07-.13 1.53-.42v-2.13Zm3.25-3.23h.93v5.72h3.54v.81h-4.47v-6.53Zm7.14 6.18c-.52-.28-.95-.7-1.24-1.2a3.47 3.47 0 0 1 0-3.42c.3-.51.73-.92 1.24-1.2a3.86 3.86 0 0 1 3.56 0c.51.28.94.69 1.24 1.19a3.5 3.5 0 0 1 0 3.43c-.3.5-.73.92-1.24 1.2a3.92 3.92 0 0 1-3.56 0Zm3.08-.74c.38-.21.69-.52.91-.9.45-.8.45-1.78 0-2.58a2.38 2.38 0 0 0-.91-.9 2.78 2.78 0 0 0-2.59 0c-.38.21-.7.52-.91.9-.45.8-.45 1.78 0 2.58.22.38.53.69.91.9a2.7 2.7 0 0 0 2.59.01Zm9.45-1.73c.23.3.34.67.33 1.05.02.52-.22 1.01-.64 1.31a3.2 3.2 0 0 1-1.86.46h-3.12v-6.53h2.95c.61-.04 1.22.12 1.73.45.4.28.63.75.61 1.24 0 .31-.07.62-.24.89a1.6 1.6 0 0 1-.64.57c.35.09.66.29.88.57Zm-4.36-2.95v2.09h1.91c.39.02.77-.07 1.1-.27a.97.97 0 0 0 0-1.55c-.33-.2-.72-.29-1.1-.27h-1.91Zm3.34 4.76a.89.89 0 0 0 .4-.82c0-.74-.53-1.1-1.6-1.1h-2.15v2.18h2.15c.42.02.83-.07 1.2-.27v.02Zm7.51-.62h-3.47l-.72 1.63h-.96l2.95-6.53h.92l2.97 6.53h-.98l-.71-1.63Zm-.33-.74-1.41-3.2-1.41 3.2h2.82Zm3.57-4.18h.94v5.72h3.54v.81h-4.47V22.3Zm9.65 6.39c-.4-.12-.77-.32-1.08-.59l.35-.74a3.48 3.48 0 0 0 2.16.75c.42.03.85-.07 1.21-.28a.85.85 0 0 0 .4-.74c0-.2-.07-.4-.22-.54a1.3 1.3 0 0 0-.54-.32c-.21-.07-.52-.16-.91-.25a8.6 8.6 0 0 1-1.19-.37c-.3-.12-.57-.3-.78-.54a1.47 1.47 0 0 1-.32-.99c0-.33.09-.66.28-.94.21-.3.5-.53.84-.67a4.35 4.35 0 0 1 2.53-.1c.34.09.67.23.96.43l-.31.74a3.48 3.48 0 0 0-.87-.36 3.6 3.6 0 0 0-.92-.14 2 2 0 0 0-1.19.29.88.88 0 0 0-.4.74c0 .2.08.4.22.54.16.15.35.26.56.33.3.1.6.18.9.25.4.09.8.22 1.19.37.3.12.56.3.77.54.23.27.34.62.32.98 0 .33-.1.66-.28.94-.21.3-.5.54-.85.67-.45.18-.92.26-1.4.25-.48 0-.97-.08-1.42-.23Zm7.08-5.58h-2.24v-.81h5.39v.81h-2.21v5.72h-.92l-.02-5.72Zm8.58 4.1h-3.47l-.72 1.63h-.96l2.95-6.53h.92l2.97 6.53h-.98l-.7-1.63Zm-.33-.74-1.41-3.2-1.41 3.2h2.82Zm9.18-4.18v6.53h-.77l-3.92-4.87v4.87h-.94v-6.53h.77l3.92 4.87v-4.87h.94Zm2.51 0h2.75c.64-.01 1.27.13 1.84.41a3 3 0 0 1 1.24 1.15 3.5 3.5 0 0 1 0 3.41c-.3.49-.73.89-1.24 1.15-.57.28-1.2.42-1.84.41h-2.75v-6.53Zm2.7 5.72c.48.01.96-.1 1.4-.31.39-.19.71-.49.93-.87.44-.8.44-1.77 0-2.58a2.2 2.2 0 0 0-.93-.86 3.05 3.05 0 0 0-1.4-.31h-1.76v4.91h1.76Zm9.64-.8h-3.47l-.74 1.63h-.96l2.95-6.53h.92l2.97 6.53h-.98l-.68-1.63Zm-.33-.74-1.41-3.2-1.41 3.2h2.82Zm7.93 2.35-1.41-2.01h-2.02v1.99h-.94v-6.52h2.55a3 3 0 0 1 2 .61c.49.41.77 1.03.74 1.67.01.46-.11.91-.37 1.29-.26.36-.64.63-1.06.77l1.55 2.21h-1.03Zm-.49-3.18c.32-.27.49-.68.47-1.1a1.3 1.3 0 0 0-.47-1.1c-.4-.27-.87-.4-1.35-.37h-1.59v2.95h1.59c.48.04.96-.09 1.35-.37Zm3.47-3.37h2.75c.64-.01 1.27.13 1.84.41a3 3 0 0 1 1.24 1.15 3.5 3.5 0 0 1 0 3.41c-.3.49-.73.89-1.24 1.15-.57.28-1.2.42-1.84.41h-2.75v-6.53Zm2.7 5.72c.48.01.96-.1 1.4-.31.39-.19.71-.49.93-.87.44-.8.44-1.77 0-2.58a2.2 2.2 0 0 0-.93-.86 3.05 3.05 0 0 0-1.4-.31h-1.76v4.91h1.76Zm6.05.68c-.4-.12-.77-.32-1.08-.59l.35-.74a3.48 3.48 0 0 0 2.16.75c.42.03.85-.07 1.21-.28a.85.85 0 0 0 .4-.74c0-.2-.07-.4-.22-.54a1.64 1.64 0 0 0-.54-.32c-.21-.07-.52-.16-.91-.25a8.2 8.2 0 0 1-1.19-.37 1.9 1.9 0 0 1-.77-.54 1.42 1.42 0 0 1-.32-.99c0-.33.09-.66.28-.94.21-.3.5-.53.84-.67a3.5 3.5 0 0 1 1.39-.25c.38 0 .77.05 1.14.15.34.08.67.23.96.43l-.31.74a3.5 3.5 0 0 0-1.8-.54 2 2 0 0 0-1.19.29.88.88 0 0 0-.4.74c0 .21.07.4.22.54.16.15.35.26.56.33.29.1.59.18.9.25.4.09.8.22 1.19.37.3.12.56.3.77.54.23.28.34.62.32.98 0 .33-.09.66-.28.94-.21.3-.51.54-.85.67a4.55 4.55 0 0 1-2.82.06Z" fill="#1d1d1b"/>
  <path d="M183.53 34.09h.94v5.72h3.54v.81h-4.47v-6.53Zm7.15 6.17a3.2 3.2 0 0 1-1.25-1.2 3.47 3.47 0 0 1 0-3.42c.3-.51.73-.92 1.25-1.2a3.86 3.86 0 0 1 3.56 0c.52.28.95.69 1.24 1.2.6 1.06.6 2.36 0 3.42-.3.51-.72.92-1.24 1.2a3.86 3.86 0 0 1-3.56 0Zm3.07-.74c.38-.21.69-.52.91-.9.44-.8.44-1.78 0-2.58a2.38 2.38 0 0 0-.91-.9 2.67 2.67 0 0 0-2.59 0c-.38.21-.7.52-.91.9-.44.8-.44 1.78 0 2.58.22.38.53.69.91.9a2.7 2.7 0 0 0 2.59.01Zm5.31.73a3.25 3.25 0 0 1-1.24-1.2 3.47 3.47 0 0 1 0-3.42c.3-.5.73-.92 1.24-1.2a3.68 3.68 0 0 1 1.77-.43c.48 0 .95.08 1.4.26.42.17.79.43 1.09.76l-.61.59a2.42 2.42 0 0 0-1.84-.77c-.46 0-.91.11-1.31.33-.38.21-.7.52-.92.9-.44.8-.44 1.78 0 2.58.22.38.54.69.92.9.4.22.85.34 1.31.33.7.01 1.37-.27 1.84-.78l.61.59c-.3.34-.68.6-1.1.77a3.73 3.73 0 0 1-3.16-.18Zm10.16-1.27h-3.47l-.74 1.63h-.96l2.95-6.53h.92l2.97 6.53h-.98l-.69-1.63Zm-.33-.74-1.41-3.2-1.41 3.2h2.82Zm3.56-4.16h.94v5.72h3.54v.81h-4.47v-6.53Zm11.3 3.63-1.2 1.21v1.69h-.93v-6.53h.92v3.65l3.55-3.65h1.06l-2.79 2.95 2.97 3.6h-1.1l-2.48-2.91Zm10.76-3.63v6.53h-.77l-3.92-4.87v4.87h-.93v-6.53h.77l3.93 4.87v-4.87h.92Zm3.68 6.17a3.11 3.11 0 0 1-1.24-1.2 3.47 3.47 0 0 1 0-3.42c.3-.51.73-.92 1.24-1.2a3.7 3.7 0 0 1 1.79-.43c.62 0 1.23.14 1.77.43.52.28.95.69 1.24 1.2a3.53 3.53 0 0 1 0 3.42c-.3.5-.73.92-1.24 1.2-.54.29-1.15.44-1.77.43a3.72 3.72 0 0 1-1.79-.43Zm3.08-.74c.38-.21.69-.52.91-.9.44-.8.44-1.78 0-2.58a2.38 2.38 0 0 0-.91-.9 2.67 2.67 0 0 0-2.59 0c-.38.21-.7.52-.92.9-.44.8-.44 1.78 0 2.58.22.38.53.69.92.9.4.22.85.34 1.3.33.45.01.9-.1 1.29-.32Zm13.18-5.45-2.18 6.53h-1l-1.78-5.22-1.78 5.22h-1l-2.18-6.53h.96l1.77 5.31 1.84-5.31h.86l1.8 5.34 1.8-5.34h.9Zm1.7 0h.94v5.72h3.54v.81h-4.47v-6.53ZM267 39.78v.81h-4.74v-6.53h4.61v.81h-3.68v2.01h3.28v.8h-3.28v2.11H267Zm2.07-5.72h2.75c.64-.01 1.27.13 1.84.41.52.26.95.66 1.25 1.15a3.5 3.5 0 0 1 0 3.41c-.3.5-.73.9-1.25 1.15-.57.28-1.2.42-1.84.41h-2.75v-6.53Zm2.7 5.72c.48.01.96-.1 1.4-.31.39-.19.71-.48.93-.85.44-.8.44-1.77 0-2.58a2.2 2.2 0 0 0-.93-.86 3.05 3.05 0 0 0-1.4-.31H270v4.91h1.76Zm10.1-2.49h.9v2.55a3.78 3.78 0 0 1-2.47.83 3.72 3.72 0 0 1-1.79-.43 3.26 3.26 0 0 1-1.7-2.91 3.2 3.2 0 0 1 1.7-2.92 3.74 3.74 0 0 1 1.8-.43c.49 0 .97.08 1.42.26.42.16.8.41 1.1.74l-.58.58c-.5-.5-1.19-.77-1.9-.75-.47 0-.93.1-1.34.32-.39.21-.71.52-.93.89-.45.8-.45 1.78 0 2.58.22.38.54.69.93.9.41.22.87.34 1.33.33.54.01 1.07-.13 1.53-.42V37.3Zm7.97 2.49v.81h-4.74v-6.53h4.61v.81h-3.68v2.01h3.28v.8h-3.28v2.11h3.81Z" fill="#1d1d1b"/>
</svg>
